<svg xmlns="http://www.w3.org/2000/svg" xmlns:xlink="http://www.w3.org/1999/xlink" viewBox="0 0 506.26 458.89"><defs><style>.cls-1{isolation:isolate;}.cls-16,.cls-17,.cls-18,.cls-19,.cls-2,.cls-3,.cls-30,.cls-32,.cls-37,.cls-38,.cls-4,.cls-5,.cls-57,.cls-6,.cls-60,.cls-61,.cls-67,.cls-7{opacity:0.32;}.cls-10,.cls-11,.cls-12,.cls-13,.cls-14,.cls-15,.cls-16,.cls-17,.cls-18,.cls-19,.cls-2,.cls-20,.cls-21,.cls-22,.cls-23,.cls-24,.cls-25,.cls-26,.cls-27,.cls-28,.cls-29,.cls-3,.cls-30,.cls-31,.cls-32,.cls-33,.cls-34,.cls-35,.cls-36,.cls-37,.cls-38,.cls-39,.cls-4,.cls-40,.cls-41,.cls-42,.cls-43,.cls-44,.cls-45,.cls-46,.cls-47,.cls-48,.cls-49,.cls-5,.cls-50,.cls-51,.cls-52,.cls-53,.cls-54,.cls-55,.cls-56,.cls-57,.cls-58,.cls-59,.cls-6,.cls-60,.cls-61,.cls-63,.cls-64,.cls-65,.cls-66,.cls-67,.cls-69,.cls-7,.cls-70,.cls-71,.cls-72,.cls-73,.cls-74,.cls-76,.cls-77,.cls-8,.cls-9{mix-blend-mode:screen;}.cls-2{fill:url(#radial-gradient);}.cls-3{fill:url(#radial-gradient-2);}.cls-4{fill:url(#radial-gradient-3);}.cls-5{fill:url(#radial-gradient-4);}.cls-6{fill:url(#radial-gradient-5);}.cls-7{fill:url(#radial-gradient-6);}.cls-10,.cls-11,.cls-12,.cls-13,.cls-22,.cls-23,.cls-24,.cls-25,.cls-26,.cls-27,.cls-33,.cls-34,.cls-35,.cls-36,.cls-39,.cls-41,.cls-43,.cls-45,.cls-50,.cls-51,.cls-52,.cls-58,.cls-59,.cls-63,.cls-64,.cls-66,.cls-70,.cls-71,.cls-72,.cls-73,.cls-76,.cls-77,.cls-8,.cls-9{opacity:0.5;}.cls-8{fill:url(#radial-gradient-7);}.cls-9{fill:url(#radial-gradient-8);}.cls-10{fill:url(#radial-gradient-9);}.cls-11{fill:url(#radial-gradient-10);}.cls-12{fill:url(#radial-gradient-11);}.cls-13{fill:url(#radial-gradient-12);}.cls-14{fill:url(#radial-gradient-13);}.cls-15{fill:url(#radial-gradient-14);}.cls-16{fill:url(#radial-gradient-15);}.cls-17{fill:url(#radial-gradient-16);}.cls-18{fill:url(#radial-gradient-17);}.cls-19{fill:url(#radial-gradient-18);}.cls-20{fill:url(#radial-gradient-19);}.cls-21{fill:url(#radial-gradient-20);}.cls-22{fill:url(#radial-gradient-21);}.cls-23{fill:url(#radial-gradient-22);}.cls-24{fill:url(#radial-gradient-23);}.cls-25{fill:url(#radial-gradient-24);}.cls-26{fill:url(#radial-gradient-25);}.cls-27{fill:url(#radial-gradient-26);}.cls-28{fill:url(#radial-gradient-27);}.cls-29{fill:url(#radial-gradient-28);}.cls-30{fill:url(#radial-gradient-29);}.cls-31{fill:url(#radial-gradient-30);}.cls-32{fill:url(#radial-gradient-31);}.cls-33{fill:url(#radial-gradient-32);}.cls-34{fill:url(#radial-gradient-33);}.cls-35{fill:url(#radial-gradient-34);}.cls-36{fill:url(#radial-gradient-35);}.cls-37{fill:url(#radial-gradient-36);}.cls-38{fill:url(#radial-gradient-37);}.cls-39{fill:url(#radial-gradient-38);}.cls-40{fill:url(#radial-gradient-39);}.cls-41{fill:url(#radial-gradient-40);}.cls-42{fill:url(#radial-gradient-41);}.cls-43{fill:url(#radial-gradient-42);}.cls-44{fill:url(#radial-gradient-43);}.cls-45{fill:url(#radial-gradient-44);}.cls-46{fill:url(#radial-gradient-45);}.cls-47{fill:url(#radial-gradient-46);}.cls-48{fill:url(#radial-gradient-47);}.cls-49{fill:url(#radial-gradient-48);}.cls-50{fill:url(#radial-gradient-49);}.cls-51{fill:url(#radial-gradient-50);}.cls-52{fill:url(#radial-gradient-51);}.cls-53{fill:url(#radial-gradient-52);}.cls-54{fill:url(#radial-gradient-53);}.cls-55{fill:url(#radial-gradient-54);}.cls-56{fill:url(#radial-gradient-55);}.cls-57{fill:url(#radial-gradient-56);}.cls-58{fill:url(#radial-gradient-57);}.cls-59{fill:url(#radial-gradient-58);}.cls-60{fill:url(#radial-gradient-59);}.cls-61{fill:url(#radial-gradient-60);}.cls-62{fill:url(#radial-gradient-61);}.cls-63{fill:url(#radial-gradient-62);}.cls-64{fill:url(#radial-gradient-63);}.cls-65{fill:url(#radial-gradient-64);}.cls-66{fill:url(#radial-gradient-65);}.cls-67{fill:url(#radial-gradient-66);}.cls-68{fill:url(#radial-gradient-67);}.cls-69{fill:url(#radial-gradient-68);}.cls-70{fill:url(#radial-gradient-69);}.cls-71{fill:url(#radial-gradient-70);}.cls-72{fill:url(#radial-gradient-71);}.cls-73{fill:url(#radial-gradient-72);}.cls-74{fill:url(#radial-gradient-73);}.cls-75{fill:url(#radial-gradient-74);}.cls-76{fill:url(#radial-gradient-75);}.cls-77{fill:url(#radial-gradient-76);}</style><radialGradient id="radial-gradient" cx="473.62" cy="345.6" r="3.52" gradientUnits="userSpaceOnUse"><stop offset="0.06" stop-color="#e47e99"/><stop offset="0.53" stop-color="#e43d99"/><stop offset="0.99" stop-color="#b30058"/></radialGradient><radialGradient id="radial-gradient-2" cx="463.85" cy="428.07" r="3.52" xlink:href="#radial-gradient"/><radialGradient id="radial-gradient-3" cx="357.55" cy="358.24" r="3.52" xlink:href="#radial-gradient"/><radialGradient id="radial-gradient-4" cx="349.33" cy="395.24" r="5.86" xlink:href="#radial-gradient"/><radialGradient id="radial-gradient-5" cx="345.03" cy="325.67" r="5.86" xlink:href="#radial-gradient"/><radialGradient id="radial-gradient-6" cx="495.11" cy="402.27" r="5.86" xlink:href="#radial-gradient"/><radialGradient id="radial-gradient-7" cx="-123.81" cy="143.63" r="153.36" gradientTransform="translate(292.93 446.92) rotate(180)" gradientUnits="userSpaceOnUse"><stop offset="0.06" stop-color="#0a1656"/><stop offset="0.89" stop-color="#4478ad"/></radialGradient><radialGradient id="radial-gradient-8" cx="-123.81" cy="143.63" r="153.36" xlink:href="#radial-gradient-7"/><radialGradient id="radial-gradient-9" cx="-123.81" cy="143.63" r="153.36" xlink:href="#radial-gradient-7"/><radialGradient id="radial-gradient-10" cx="-123.81" cy="143.63" r="153.36" xlink:href="#radial-gradient-7"/><radialGradient id="radial-gradient-11" cx="-123.81" cy="143.63" r="153.36" xlink:href="#radial-gradient-7"/><radialGradient id="radial-gradient-12" cx="-123.81" cy="143.63" r="153.36" xlink:href="#radial-gradient-7"/><radialGradient id="radial-gradient-13" cx="-188.49" cy="66.87" r="12.03" xlink:href="#radial-gradient-7"/><radialGradient id="radial-gradient-14" cx="-69.16" cy="22.32" r="12.34" xlink:href="#radial-gradient-7"/><radialGradient id="radial-gradient-15" cx="478.9" cy="28.45" r="3.52" xlink:href="#radial-gradient"/><radialGradient id="radial-gradient-16" cx="469.13" cy="110.92" r="3.52" xlink:href="#radial-gradient"/><radialGradient id="radial-gradient-17" cx="362.84" cy="41.09" r="3.52" xlink:href="#radial-gradient"/><radialGradient id="radial-gradient-18" cx="354.62" cy="78.09" r="5.86" xlink:href="#radial-gradient"/><radialGradient id="radial-gradient-19" cx="350.32" cy="8.52" r="5.86" xlink:href="#radial-gradient"/><radialGradient id="radial-gradient-20" cx="500.4" cy="85.12" r="5.86" xlink:href="#radial-gradient"/><radialGradient id="radial-gradient-21" cx="-129.09" cy="460.77" r="153.36" xlink:href="#radial-gradient-7"/><radialGradient id="radial-gradient-22" cx="-129.09" cy="460.77" r="153.36" xlink:href="#radial-gradient-7"/><radialGradient id="radial-gradient-23" cx="-129.09" cy="460.77" r="153.36" xlink:href="#radial-gradient-7"/><radialGradient id="radial-gradient-24" cx="-129.09" cy="460.77" r="153.36" xlink:href="#radial-gradient-7"/><radialGradient id="radial-gradient-25" cx="-129.09" cy="460.77" r="153.36" xlink:href="#radial-gradient-7"/><radialGradient id="radial-gradient-26" cx="-129.09" cy="460.77" r="153.36" xlink:href="#radial-gradient-7"/><radialGradient id="radial-gradient-27" cx="-193.78" cy="384.02" r="12.03" xlink:href="#radial-gradient-7"/><radialGradient id="radial-gradient-28" cx="-74.44" cy="339.47" r="12.34" xlink:href="#radial-gradient-7"/><radialGradient id="radial-gradient-29" cx="202.87" cy="117.13" r="3.36" xlink:href="#radial-gradient"/><radialGradient id="radial-gradient-30" cx="221.55" cy="84.15" r="5.6" xlink:href="#radial-gradient"/><radialGradient id="radial-gradient-31" cx="205.32" cy="151.93" r="5.6" xlink:href="#radial-gradient"/><radialGradient id="radial-gradient-32" cx="392.65" cy="449.59" r="153.36" gradientTransform="translate(-113.82 -392.39) rotate(17)" xlink:href="#radial-gradient-7"/><radialGradient id="radial-gradient-33" cx="392.65" cy="449.59" r="153.36" gradientTransform="translate(-113.82 -392.39) rotate(17)" xlink:href="#radial-gradient-7"/><radialGradient id="radial-gradient-34" cx="392.65" cy="449.59" r="153.36" gradientTransform="translate(-113.82 -392.39) rotate(17)" xlink:href="#radial-gradient-7"/><radialGradient id="radial-gradient-35" cx="392.65" cy="449.59" r="153.36" gradientTransform="translate(-113.82 -392.39) rotate(17)" xlink:href="#radial-gradient-7"/><radialGradient id="radial-gradient-36" cx="250.48" cy="25.43" r="3.19" xlink:href="#radial-gradient"/><radialGradient id="radial-gradient-37" cx="310.95" cy="29.55" r="5.33" xlink:href="#radial-gradient"/><radialGradient id="radial-gradient-38" cx="392.39" cy="276.82" r="153.36" gradientTransform="translate(603.62 -181.56) rotate(114.67)" xlink:href="#radial-gradient-7"/><radialGradient id="radial-gradient-39" cx="154.13" cy="549.24" r="12.13" gradientTransform="matrix(0.13, -0.99, 0.99, 0.13, -282.16, 110.01)" xlink:href="#radial-gradient-7"/><radialGradient id="radial-gradient-40" cx="215.27" cy="549.55" r="193.48" gradientTransform="translate(137.32 517.82) rotate(-160.18)" xlink:href="#radial-gradient-7"/><radialGradient id="radial-gradient-41" cx="409.73" cy="329.81" r="13.79" gradientTransform="translate(-227.58 -341.1) rotate(2.82)" xlink:href="#radial-gradient-7"/><radialGradient id="radial-gradient-42" cx="73.98" cy="436.63" r="193.49" gradientTransform="matrix(0.92, -0.39, 0.39, 0.92, 351.3, -28.34)" xlink:href="#radial-gradient-7"/><radialGradient id="radial-gradient-43" cx="516.05" cy="514.12" r="15.31" gradientTransform="matrix(-0.76, 0.65, -0.65, -0.76, 1204.31, 350.71)" xlink:href="#radial-gradient-7"/><radialGradient id="radial-gradient-44" cx="-119.21" cy="83.08" r="193.47" gradientTransform="matrix(-0.81, 0.58, -0.58, -0.81, 238.52, 152.6)" xlink:href="#radial-gradient-7"/><radialGradient id="radial-gradient-45" cx="597.14" cy="907.98" r="15.31" gradientTransform="translate(-675.23 -34.35) rotate(-52.58)" xlink:href="#radial-gradient-7"/><radialGradient id="radial-gradient-46" cx="74.43" cy="427.79" r="10.96" xlink:href="#radial-gradient-7"/><radialGradient id="radial-gradient-47" cx="45.69" cy="470.36" r="5.6" gradientTransform="translate(-339.64 192.68) rotate(-54.07)" xlink:href="#radial-gradient"/><radialGradient id="radial-gradient-48" cx="115.75" cy="430.7" r="5.6" gradientTransform="translate(-339.64 192.68) rotate(-54.07)" xlink:href="#radial-gradient"/><radialGradient id="radial-gradient-49" cx="336.74" cy="870.76" r="153.36" gradientTransform="translate(-723.9 53.89) rotate(-37.07)" xlink:href="#radial-gradient-7"/><radialGradient id="radial-gradient-50" cx="336.74" cy="870.76" r="153.36" gradientTransform="translate(-723.9 53.89) rotate(-37.07)" xlink:href="#radial-gradient-7"/><radialGradient id="radial-gradient-51" cx="336.74" cy="870.76" r="153.36" gradientTransform="translate(-723.9 53.89) rotate(-37.07)" xlink:href="#radial-gradient-7"/><radialGradient id="radial-gradient-52" cx="44.49" cy="437.16" r="11.94" gradientTransform="translate(-339.64 192.68) rotate(-54.07)" xlink:href="#radial-gradient-7"/><radialGradient id="radial-gradient-53" cx="367.44" cy="369.84" r="11.94" gradientTransform="translate(-339.64 192.68) rotate(-54.07)" xlink:href="#radial-gradient-7"/><radialGradient id="radial-gradient-54" cx="295.98" cy="458.68" r="11.94" gradientTransform="translate(-339.64 192.68) rotate(-54.07)" xlink:href="#radial-gradient-7"/><radialGradient id="radial-gradient-55" cx="409.39" cy="394.47" r="3.36" xlink:href="#radial-gradient"/><radialGradient id="radial-gradient-56" cx="428.07" cy="361.49" r="5.6" xlink:href="#radial-gradient"/><radialGradient id="radial-gradient-57" cx="453.08" cy="686.56" r="153.36" gradientTransform="translate(-113.82 -392.39) rotate(17)" xlink:href="#radial-gradient-7"/><radialGradient id="radial-gradient-58" cx="671.23" cy="654.43" r="153.36" gradientTransform="translate(-113.82 -392.39) rotate(17)" xlink:href="#radial-gradient-7"/><radialGradient id="radial-gradient-59" cx="295.19" cy="81.08" r="3.49" xlink:href="#radial-gradient"/><radialGradient id="radial-gradient-60" cx="336.71" cy="196.82" r="3.49" xlink:href="#radial-gradient"/><radialGradient id="radial-gradient-61" cx="-77.81" cy="272.12" r="5.82" gradientTransform="translate(292.93 446.92) rotate(180)" gradientUnits="userSpaceOnUse"><stop offset="0.06" stop-color="#66b0d8"/><stop offset="1" stop-color="#3f1f7d"/></radialGradient><radialGradient id="radial-gradient-62" cx="421.27" cy="1022.59" r="153.37" gradientTransform="translate(544.21 1096.76) rotate(-173.38)" xlink:href="#radial-gradient-7"/><radialGradient id="radial-gradient-63" cx="356.93" cy="994.87" r="153.37" gradientTransform="translate(544.21 1096.76) rotate(-173.38)" xlink:href="#radial-gradient-7"/><radialGradient id="radial-gradient-64" cx="-67.74" cy="296.64" r="11.99" xlink:href="#radial-gradient-7"/><radialGradient id="radial-gradient-65" cx="421.29" cy="840.7" r="153.36" gradientTransform="translate(-113.82 -392.39) rotate(17)" xlink:href="#radial-gradient-7"/><radialGradient id="radial-gradient-66" cx="443.94" cy="232.94" r="3.36" xlink:href="#radial-gradient"/><radialGradient id="radial-gradient-67" cx="-169.69" cy="246.95" r="5.6" xlink:href="#radial-gradient-61"/><radialGradient id="radial-gradient-68" cx="418.77" cy="304.32" r="5.6" xlink:href="#radial-gradient"/><radialGradient id="radial-gradient-69" cx="657.04" cy="489.86" r="153.36" gradientTransform="translate(-113.82 -392.39) rotate(17)" xlink:href="#radial-gradient-7"/><radialGradient id="radial-gradient-70" cx="641.33" cy="532.91" r="153.36" gradientTransform="translate(-113.82 -392.39) rotate(17)" xlink:href="#radial-gradient-7"/><radialGradient id="radial-gradient-71" cx="657.04" cy="489.86" r="153.36" gradientTransform="translate(-113.82 -392.39) rotate(17)" xlink:href="#radial-gradient-7"/><radialGradient id="radial-gradient-72" cx="657.04" cy="489.86" r="153.36" gradientTransform="translate(-113.82 -392.39) rotate(17)" xlink:href="#radial-gradient-7"/><radialGradient id="radial-gradient-73" cx="-168.49" cy="280.16" r="11.94" xlink:href="#radial-gradient-7"/><radialGradient id="radial-gradient-74" cx="135.31" cy="200.95" r="5.6" xlink:href="#radial-gradient-61"/><radialGradient id="radial-gradient-75" cx="378.83" cy="623.03" r="153.36" gradientTransform="translate(-113.82 -392.39) rotate(17)" xlink:href="#radial-gradient-7"/><radialGradient id="radial-gradient-76" cx="378.82" cy="623.03" r="153.36" gradientTransform="translate(-113.82 -392.39) rotate(17)" xlink:href="#radial-gradient-7"/></defs><g class="cls-1"><g id="Layer_2" data-name="Layer 2"><g id="Capa_1" data-name="Capa 1"><path class="cls-2" d="M473.62,349.12a4.62,4.62,0,0,0-3.52-3.52,11.52,11.52,0,0,0,2.27-1.24,12,12,0,0,0,1.25-2.27,4.59,4.59,0,0,0,3.51,3.51,12.41,12.41,0,0,0-2.27,1.24A11.82,11.82,0,0,0,473.62,349.12Z"/><path class="cls-3" d="M463.85,431.58a12,12,0,0,0-1.25-2.27,11.52,11.52,0,0,0-2.27-1.24,4.66,4.66,0,0,0,3.52-3.52,11.52,11.52,0,0,0,1.24,2.27,12,12,0,0,0,2.27,1.25,4.59,4.59,0,0,0-3.51,3.51Z"/><path class="cls-4" d="M357.55,361.75a4.59,4.59,0,0,0-3.51-3.51,12.41,12.41,0,0,0,2.27-1.24,11.82,11.82,0,0,0,1.24-2.28A12,12,0,0,0,358.8,357a12.41,12.41,0,0,0,2.27,1.24,11.81,11.81,0,0,0-2.27,1.24A12,12,0,0,0,357.55,361.75Z"/><path class="cls-5" d="M349.33,401.1a19.94,19.94,0,0,0-2.07-3.79,19.94,19.94,0,0,0-3.79-2.07,19.55,19.55,0,0,0,3.79-2.08,19.93,19.93,0,0,0,2.07-3.78,19.54,19.54,0,0,0,2.08,3.78,19.54,19.54,0,0,0,3.78,2.08,19.93,19.93,0,0,0-3.78,2.07A19.55,19.55,0,0,0,349.33,401.1Z"/><path class="cls-6" d="M345,331.53a19.37,19.37,0,0,0-2.07-3.79,19.94,19.94,0,0,0-3.79-2.07A19.94,19.94,0,0,0,343,323.6a19.66,19.66,0,0,0,2.07-3.79,19.84,19.84,0,0,0,2.08,3.79,19.94,19.94,0,0,0,3.79,2.07,19.94,19.94,0,0,0-3.79,2.07A19.55,19.55,0,0,0,345,331.53Z"/><path class="cls-7" d="M495.11,408.13a20.25,20.25,0,0,0-2.07-3.79,19.94,19.94,0,0,0-3.79-2.07A19.94,19.94,0,0,0,493,400.2a19.94,19.94,0,0,0,2.07-3.79,19.94,19.94,0,0,0,2.07,3.79,20.25,20.25,0,0,0,3.79,2.07,20.25,20.25,0,0,0-3.79,2.07A20.25,20.25,0,0,0,495.11,408.13Z"/><path class="cls-8" d="M362.94,335.87a2,2,0,1,0,2,2A2,2,0,0,0,362.94,335.87Z"/><path class="cls-9" d="M394.83,443.33a2.56,2.56,0,0,1-1.95,1.95,6.74,6.74,0,0,1,1.26.69,6.47,6.47,0,0,1,.69,1.27,2.55,2.55,0,0,1,1.95-2,6.46,6.46,0,0,1-1.26-.69A6.74,6.74,0,0,1,394.83,443.33Z"/><path class="cls-10" d="M340.9,405.81a6.74,6.74,0,0,1-.69,1.26,6.47,6.47,0,0,1-1.27.69,2.55,2.55,0,0,1,2,2,6.47,6.47,0,0,1,.69-1.27,6.74,6.74,0,0,1,1.26-.69,2.56,2.56,0,0,1-2-1.95Z"/><path class="cls-11" d="M367.77,379.14a2.56,2.56,0,0,1-1.95,1.95,6.35,6.35,0,0,1,1.26.7,6.19,6.19,0,0,1,.69,1.26,6.74,6.74,0,0,1,.69-1.26,6.65,6.65,0,0,1,1.27-.7,6.47,6.47,0,0,1-1.27-.69A6.74,6.74,0,0,1,367.77,379.14Z"/><path class="cls-12" d="M489.62,319.44a2.56,2.56,0,0,1-1.95,1.95,6.74,6.74,0,0,1,1.26.69,7.07,7.07,0,0,1,.69,1.26,7.07,7.07,0,0,1,.69-1.26,6.74,6.74,0,0,1,1.26-.69,2.56,2.56,0,0,1-1.95-1.95Z"/><path class="cls-13" d="M467,407.74a6.47,6.47,0,0,1-.69,1.27,6.74,6.74,0,0,1-1.26.69,2.56,2.56,0,0,1,2,1.95,6.74,6.74,0,0,1,.69-1.26,6.47,6.47,0,0,1,1.27-.69,2.55,2.55,0,0,1-2-2Z"/><path class="cls-14" d="M478.59,378.74a.65.65,0,0,1,.65-.65.65.65,0,1,1,0,1.3A.65.65,0,0,1,478.59,378.74Zm-5.22,12a1.31,1.31,0,1,0-1.3-1.3A1.31,1.31,0,0,0,473.37,390.7ZM470.76,375a2.61,2.61,0,1,0-2.61-2.61A2.61,2.61,0,0,0,470.76,375Zm22.62-3a1.31,1.31,0,1,0,0-2.61,1.31,1.31,0,0,0,0,2.61Z"/><path class="cls-15" d="M364.29,425.49a.65.65,0,0,1-.59.71.66.66,0,0,1-.71-.6.65.65,0,0,1,.6-.7A.64.64,0,0,1,364.29,425.49Zm4.19-12.36a1.3,1.3,0,1,0,1.41,1.19A1.3,1.3,0,0,0,368.48,413.13Zm3.93,15.38a2.61,2.61,0,1,0,2.82,2.38A2.61,2.61,0,0,0,372.41,428.51Zm-22.28,4.95a1.31,1.31,0,1,0,1.41,1.19A1.31,1.31,0,0,0,350.13,433.46Z"/><path class="cls-16" d="M478.9,32a11.52,11.52,0,0,0-1.24-2.27,12,12,0,0,0-2.28-1.25,11.82,11.82,0,0,0,2.28-1.24,11.81,11.81,0,0,0,1.24-2.27,12.41,12.41,0,0,0,1.24,2.27,11.82,11.82,0,0,0,2.28,1.24,12,12,0,0,0-2.28,1.25A12.09,12.09,0,0,0,478.9,32Z"/><path class="cls-17" d="M469.13,114.43a12.41,12.41,0,0,0-1.24-2.27,11.82,11.82,0,0,0-2.28-1.24,12.42,12.42,0,0,0,2.28-1.24,12.42,12.42,0,0,0,1.24-2.28,12.42,12.42,0,0,0,1.24,2.28,12.42,12.42,0,0,0,2.28,1.24,11.82,11.82,0,0,0-2.28,1.24A12.41,12.41,0,0,0,469.13,114.43Z"/><path class="cls-18" d="M362.84,44.61a12.42,12.42,0,0,0-1.24-2.28,12.42,12.42,0,0,0-2.28-1.24,11.82,11.82,0,0,0,2.28-1.24,12.42,12.42,0,0,0,1.24-2.28,11.82,11.82,0,0,0,1.24,2.28,11.81,11.81,0,0,0,2.27,1.24,12.41,12.41,0,0,0-2.27,1.24A11.82,11.82,0,0,0,362.84,44.61Z"/><path class="cls-19" d="M354.62,84a19.94,19.94,0,0,0-2.07-3.79,20.25,20.25,0,0,0-3.79-2.07A20.25,20.25,0,0,0,352.55,76a20.25,20.25,0,0,0,2.07-3.79A20.25,20.25,0,0,0,356.69,76a19.94,19.94,0,0,0,3.79,2.07,19.94,19.94,0,0,0-3.79,2.07A19.94,19.94,0,0,0,354.62,84Z"/><path class="cls-20" d="M350.32,14.38a20.25,20.25,0,0,0-2.07-3.79,20.25,20.25,0,0,0-3.79-2.07,20.25,20.25,0,0,0,3.79-2.07,19.94,19.94,0,0,0,2.07-3.79,19.94,19.94,0,0,0,2.07,3.79,19.94,19.94,0,0,0,3.79,2.07,19.94,19.94,0,0,0-3.79,2.07A20.25,20.25,0,0,0,350.32,14.38Z"/><path class="cls-21" d="M500.4,91a19.54,19.54,0,0,0-2.08-3.78,19.54,19.54,0,0,0-3.78-2.08,19.93,19.93,0,0,0,3.78-2.07,19.55,19.55,0,0,0,2.08-3.79,19.94,19.94,0,0,0,2.07,3.79,19.94,19.94,0,0,0,3.79,2.07,19.55,19.55,0,0,0-3.79,2.08A19.93,19.93,0,0,0,500.4,91Z"/><path class="cls-22" d="M368.22,18.72a2,2,0,1,0,2,2A2,2,0,0,0,368.22,18.72Z"/><path class="cls-23" d="M400.12,126.18a6.65,6.65,0,0,1-.7,1.27,6.74,6.74,0,0,1-1.26.69,6.19,6.19,0,0,1,1.26.69,6.35,6.35,0,0,1,.7,1.26,6.19,6.19,0,0,1,.69-1.26,6.19,6.19,0,0,1,1.26-.69,6.74,6.74,0,0,1-1.26-.69A6.47,6.47,0,0,1,400.12,126.18Z"/><path class="cls-24" d="M346.18,88.66a7.07,7.07,0,0,1-.69,1.27,6.74,6.74,0,0,1-1.26.69,6.19,6.19,0,0,1,1.26.69,6.74,6.74,0,0,1,.69,1.26,6.74,6.74,0,0,1,.69-1.26,6.46,6.46,0,0,1,1.26-.69,7.07,7.07,0,0,1-1.26-.69A7.07,7.07,0,0,1,346.18,88.66Z"/><path class="cls-25" d="M373.06,62a7.07,7.07,0,0,1-.69,1.27,7.07,7.07,0,0,1-1.27.69,6.47,6.47,0,0,1,1.27.69,6.74,6.74,0,0,1,.69,1.26,6.19,6.19,0,0,1,.69-1.26A6.19,6.19,0,0,1,375,64a6.74,6.74,0,0,1-1.26-.69A6.47,6.47,0,0,1,373.06,62Z"/><path class="cls-26" d="M494.9,2.29a6.19,6.19,0,0,1-.69,1.26,6.19,6.19,0,0,1-1.26.69,6.74,6.74,0,0,1,1.26.69,6.47,6.47,0,0,1,.69,1.27,7.07,7.07,0,0,1,.69-1.27,7.07,7.07,0,0,1,1.27-.69,6.47,6.47,0,0,1-1.27-.69A6.74,6.74,0,0,1,494.9,2.29Z"/><path class="cls-27" d="M472.26,90.6a7.07,7.07,0,0,1-.69,1.26,7.07,7.07,0,0,1-1.27.69,7.07,7.07,0,0,1,1.27.69,6.74,6.74,0,0,1,.69,1.26,6.19,6.19,0,0,1,.69-1.26,6.74,6.74,0,0,1,1.26-.69,6.74,6.74,0,0,1-1.26-.69A6.46,6.46,0,0,1,472.26,90.6Z"/><path class="cls-28" d="M483.88,61.59a.65.65,0,0,1,1.3,0,.65.65,0,1,1-1.3,0Zm-5.23,12a1.31,1.31,0,1,0-1.3-1.31A1.31,1.31,0,0,0,478.65,73.56ZM476,57.89a2.61,2.61,0,1,0-2.61-2.61A2.6,2.6,0,0,0,476,57.89Zm22.63-3a1.31,1.31,0,1,0-1.31-1.31A1.31,1.31,0,0,0,498.67,54.85Z"/><path class="cls-29" d="M369.58,108.34a.66.66,0,0,1-.6.71.65.65,0,0,1-.7-.6.64.64,0,0,1,.59-.7A.65.65,0,0,1,369.58,108.34ZM373.76,96a1.3,1.3,0,1,0,1.41,1.19A1.3,1.3,0,0,0,373.76,96Zm3.93,15.38a2.61,2.61,0,1,0,2.82,2.38A2.63,2.63,0,0,0,377.69,111.36Zm-22.28,5a1.3,1.3,0,1,0,1.41,1.19A1.3,1.3,0,0,0,355.41,116.32Z"/><path class="cls-30" d="M203.9,113.77a12.05,12.05,0,0,0,.52,2.53,12.42,12.42,0,0,0,1.81,1.86,12.05,12.05,0,0,0-2.53.52,12,12,0,0,0-1.86,1.81,12.11,12.11,0,0,0-.52-2.54,11.77,11.77,0,0,0-1.81-1.85,12.24,12.24,0,0,0,2.54-.52A12.24,12.24,0,0,0,203.9,113.77Z"/><path class="cls-31" d="M223.27,78.55a19.52,19.52,0,0,0,.87,4.22,19.71,19.71,0,0,0,3,3.09,19.75,19.75,0,0,0-4.23.88,19.32,19.32,0,0,0-3.09,3,19.69,19.69,0,0,0-.88-4.22,19.32,19.32,0,0,0-3-3.09,19.87,19.87,0,0,0,4.23-.88A19.76,19.76,0,0,0,223.27,78.55Z"/><path class="cls-32" d="M207,146.33a19.59,19.59,0,0,0,.87,4.23,20.18,20.18,0,0,0,3,3.09,19.59,19.59,0,0,0-4.23.87,19.71,19.71,0,0,0-3.09,3,19.75,19.75,0,0,0-.88-4.23,19.76,19.76,0,0,0-3-3.09,20.35,20.35,0,0,0,4.23-.87A20.18,20.18,0,0,0,207,146.33Z"/><path class="cls-33" d="M191.18,137a2,2,0,1,0-1.3-2.45A2,2,0,0,0,191.18,137Z"/><path class="cls-34" d="M192.11,24.85a6.9,6.9,0,0,1,1-1,6.57,6.57,0,0,1,1.41-.29,6.6,6.6,0,0,1-1-1,6.57,6.57,0,0,1-.29-1.41,6.17,6.17,0,0,1-1,1,6.74,6.74,0,0,1-1.41.3,6.17,6.17,0,0,1,1,1A6.56,6.56,0,0,1,192.11,24.85Z"/><path class="cls-35" d="M232.71,76.5a6.6,6.6,0,0,1,1-1,6.57,6.57,0,0,1,1.41-.29,6.56,6.56,0,0,1-1-1,7.26,7.26,0,0,1-.29-1.41,6.17,6.17,0,0,1-1,1,6.56,6.56,0,0,1-1.4.3,6.6,6.6,0,0,1,1,1A6.39,6.39,0,0,1,232.71,76.5Z"/><path class="cls-36" d="M199.21,94.15a6.56,6.56,0,0,1,1-1,7.26,7.26,0,0,1,1.41-.29,6.17,6.17,0,0,1-1-1,6.56,6.56,0,0,1-.3-1.4,6.9,6.9,0,0,1-1,1,6.57,6.57,0,0,1-1.41.29,6.6,6.6,0,0,1,1,1A6.57,6.57,0,0,1,199.21,94.15Z"/><path class="cls-37" d="M253.68,26.9a12.3,12.3,0,0,0-2.59.18A12.33,12.33,0,0,0,249,28.63a11.81,11.81,0,0,0-.19-2.59A11.87,11.87,0,0,0,247.29,24a11.73,11.73,0,0,0,2.58-.19A11.64,11.64,0,0,0,252,22.24a12.22,12.22,0,0,0,.18,2.58A12.08,12.08,0,0,0,253.68,26.9Z"/><path class="cls-38" d="M316.28,32a19.55,19.55,0,0,0-4.31.3,19.63,19.63,0,0,0-3.46,2.58,19.71,19.71,0,0,0-.31-4.31,19.86,19.86,0,0,0-2.57-3.47,19.47,19.47,0,0,0,4.3-.3,19.41,19.41,0,0,0,3.47-2.58,20.2,20.2,0,0,0,.3,4.31A20.32,20.32,0,0,0,316.28,32Z"/><path class="cls-39" d="M304.18,57.41a6.21,6.21,0,0,1,.86,1.15,6.35,6.35,0,0,1,.1,1.44,6.36,6.36,0,0,1,1.16-.86,6.24,6.24,0,0,1,1.43-.1,6.87,6.87,0,0,1-.86-1.16,6.92,6.92,0,0,1-.1-1.43,7.13,7.13,0,0,1-1.15.86A7,7,0,0,1,304.18,57.41Z"/><path class="cls-40" d="M282.67,34.74a.65.65,0,1,1,.55-1.18.64.64,0,0,1,.32.86A.65.65,0,0,1,282.67,34.74Zm8.7,9.74a1.31,1.31,0,1,0-1.73.64A1.31,1.31,0,0,0,291.37,44.48ZM276,40.32a2.61,2.61,0,1,0-3.46,1.28A2.61,2.61,0,0,0,276,40.32Zm6.68-21.83a1.31,1.31,0,0,0-.64-1.73A1.3,1.3,0,1,0,281,19.13,1.31,1.31,0,0,0,282.72,18.49Z"/><path class="cls-41" d="M136.11,73.32a8.7,8.7,0,0,1-1.36,1.21,8.61,8.61,0,0,1-1.8.28,8.52,8.52,0,0,1,1.21,1.35,8.52,8.52,0,0,1,.27,1.8,8.27,8.27,0,0,1,1.36-1.2,8,8,0,0,1,1.8-.28,8.7,8.7,0,0,1-1.21-1.36A8.44,8.44,0,0,1,136.11,73.32Z"/><path class="cls-42" d="M160.3,4.87a.82.82,0,0,1,1.55.56.81.81,0,0,1-1,.49A.82.82,0,0,1,160.3,4.87ZM149,16.84a1.65,1.65,0,0,0,1.12-3.1,1.65,1.65,0,1,0-1.12,3.1ZM180.74,3.2a1.65,1.65,0,1,0-1-2.11A1.66,1.66,0,0,0,180.74,3.2Z"/><path class="cls-43" d="M481.05,247.7a8.91,8.91,0,0,1,.17-1.81,8.46,8.46,0,0,1,1.13-1.43,8.23,8.23,0,0,1-1.81-.17,8.53,8.53,0,0,1-1.43-1.12,8.15,8.15,0,0,1-.17,1.8,8.53,8.53,0,0,1-1.12,1.43,8.83,8.83,0,0,1,1.8.17A8.06,8.06,0,0,1,481.05,247.7Z"/><path class="cls-44" d="M482,287.1a.82.82,0,1,1-1.51.65.83.83,0,0,1,.43-1.08A.81.81,0,0,1,482,287.1Zm.12-16.47a1.65,1.65,0,1,0,2.16.87A1.65,1.65,0,0,0,482.1,270.63Zm10.8,16.87a3.3,3.3,0,1,0,4.33,1.73A3.3,3.3,0,0,0,492.9,287.5Zm-24.72,14.77a1.65,1.65,0,1,0,2.16.87A1.65,1.65,0,0,0,468.18,302.27Z"/><path class="cls-45" d="M415.35,86a8.07,8.07,0,0,1,.21,1.8,8.2,8.2,0,0,1-.78,1.64,3.21,3.21,0,0,1,3.43.57,8.69,8.69,0,0,1-.22-1.81,8.85,8.85,0,0,1,.79-1.63,3.21,3.21,0,0,1-3.43-.57Z"/><path class="cls-46" d="M406,47.67a.82.82,0,0,1,.19-1.15.82.82,0,0,1,1,1.34A.82.82,0,0,1,406,47.67Zm3.42,16.11a1.65,1.65,0,1,0-2.29-.38A1.65,1.65,0,0,0,409.4,63.78ZM395.23,49.62a3.29,3.29,0,1,0-4.6-.76A3.28,3.28,0,0,0,395.23,49.62Zm21-19.73a1.64,1.64,0,1,0-2.29-.38A1.64,1.64,0,0,0,416.2,29.89Z"/><path class="cls-47" d="M214.09,16.84a.67.67,0,0,1,.78-.5.66.66,0,1,1-.78.5Zm-7.62,10.6a1.3,1.3,0,1,0-1-1.55A1.31,1.31,0,0,0,206.47,27.44ZM230,13.36a1.3,1.3,0,1,0-1-1.55A1.31,1.31,0,0,0,230,13.36Z"/><path class="cls-48" d="M64.5,427a19.75,19.75,0,0,0,3.93,1.78,19.79,19.79,0,0,0,4.27-.63,19.86,19.86,0,0,0-1.77,3.93,19.79,19.79,0,0,0,.63,4.27,20,20,0,0,0-3.94-1.77,19.79,19.79,0,0,0-4.27.63,19.9,19.9,0,0,0,1.78-3.94A19.79,19.79,0,0,0,64.5,427Z"/><path class="cls-49" d="M73.5,347a19.75,19.75,0,0,0,3.93,1.78,19.79,19.79,0,0,0,4.27-.63,19.86,19.86,0,0,0-1.77,3.93,19.79,19.79,0,0,0,.63,4.27,20,20,0,0,0-3.94-1.77,19.79,19.79,0,0,0-4.27.63,19.9,19.9,0,0,0,1.78-3.94A19.79,19.79,0,0,0,73.5,347Z"/><path class="cls-50" d="M2.73,420.74a7.35,7.35,0,0,1-.21-1.42,6.57,6.57,0,0,1,.6-1.32,6.64,6.64,0,0,1-1.43.21,6.81,6.81,0,0,1-1.31-.59,6.64,6.64,0,0,1,.21,1.43A6.81,6.81,0,0,1,0,420.36a6.63,6.63,0,0,1,1.42-.21A6.53,6.53,0,0,1,2.73,420.74Z"/><path class="cls-51" d="M68.39,418.17a6.64,6.64,0,0,1-.21-1.43,6.24,6.24,0,0,1,.59-1.31,6.64,6.64,0,0,1-1.43.21,6.81,6.81,0,0,1-1.31-.59,6.63,6.63,0,0,1,.21,1.42,6.53,6.53,0,0,1-.59,1.31,6.63,6.63,0,0,1,1.42-.21A6.57,6.57,0,0,1,68.39,418.17Z"/><path class="cls-52" d="M63,455.65a6.64,6.64,0,0,1-.21-1.43,6.81,6.81,0,0,1,.59-1.31,6.64,6.64,0,0,1-1.43.21,6.81,6.81,0,0,1-1.31-.59,6.63,6.63,0,0,1,.21,1.42,6.53,6.53,0,0,1-.59,1.31,6.64,6.64,0,0,1,1.43-.21A6.71,6.71,0,0,1,63,455.65Z"/><path class="cls-53" d="M37.86,416.57a.66.66,0,0,1,0-.93.65.65,0,1,1,0,.93ZM42,429a1.31,1.31,0,1,0-1.85-.09A1.31,1.31,0,0,0,42,429Zm-12.41-9.9a2.61,2.61,0,1,0-3.69-.2A2.62,2.62,0,0,0,29.56,419.05Zm14.79-17.39a1.3,1.3,0,1,0-1.84-.1A1.3,1.3,0,0,0,44.35,401.66Z"/><path class="cls-54" d="M172.86,115.57a.66.66,0,0,1,0-.93.65.65,0,1,1,0,.93ZM177,128a1.31,1.31,0,1,0-1.85-.09A1.31,1.31,0,0,0,177,128Zm-12.41-9.9a2.61,2.61,0,1,0-3.69-.2A2.62,2.62,0,0,0,164.56,118.05Zm14.79-17.39a1.3,1.3,0,1,0-1.84-.1A1.3,1.3,0,0,0,179.35,100.66Z"/><path class="cls-55" d="M202.86,225.57a.66.66,0,0,1,0-.93.65.65,0,1,1,0,.93ZM207,238a1.31,1.31,0,1,0-1.85-.09A1.31,1.31,0,0,0,207,238Zm-12.41-9.9a2.61,2.61,0,1,0-3.69-.2A2.62,2.62,0,0,0,194.56,228.05Zm14.79-17.39a1.3,1.3,0,1,0-1.84-.1A1.3,1.3,0,0,0,209.35,210.66Z"/><path class="cls-56" d="M410.41,391.1a11.65,11.65,0,0,0,.53,2.54,11.77,11.77,0,0,0,1.81,1.85,11.65,11.65,0,0,0-2.54.53,11.77,11.77,0,0,0-1.85,1.81,11.65,11.65,0,0,0-.53-2.54,11.77,11.77,0,0,0-1.81-1.85,11.65,11.65,0,0,0,2.54-.53A11.77,11.77,0,0,0,410.41,391.1Z"/><path class="cls-57" d="M429.78,355.88a20.23,20.23,0,0,0,.87,4.23,19.71,19.71,0,0,0,3,3.09,19.87,19.87,0,0,0-4.23.88,19.76,19.76,0,0,0-3.09,3,19.7,19.7,0,0,0-.87-4.23,20.18,20.18,0,0,0-3-3.09,19.59,19.59,0,0,0,4.23-.87A20.18,20.18,0,0,0,429.78,355.88Z"/><path class="cls-58" d="M221.22,320.79a6.85,6.85,0,0,1,1-1,6.57,6.57,0,0,1,1.41-.29,2.57,2.57,0,0,1-1.29-2.44,2.55,2.55,0,0,1-2.44,1.3,6.17,6.17,0,0,1,1,1A6.62,6.62,0,0,1,221.22,320.79Z"/><path class="cls-59" d="M405.73,371.49a6.56,6.56,0,0,1,1-1,6.39,6.39,0,0,1,1.4-.29,2.57,2.57,0,0,1-1.29-2.44,2.55,2.55,0,0,1-2.44,1.3,6.56,6.56,0,0,1,1,1A7.26,7.26,0,0,1,405.73,371.49Z"/><path class="cls-60" d="M294.79,84.57a11.64,11.64,0,0,0-1-2.4,11.79,11.79,0,0,0-2.11-1.5,12.06,12.06,0,0,0,2.4-1,11.79,11.79,0,0,0,1.5-2.11,12.06,12.06,0,0,0,1,2.4,12.15,12.15,0,0,0,2.11,1.49,11.64,11.64,0,0,0-2.4,1A12.15,12.15,0,0,0,294.79,84.57Z"/><path class="cls-61" d="M336.3,200.31a11.82,11.82,0,0,0-1-2.4,11.78,11.78,0,0,0-2.12-1.5,11.82,11.82,0,0,0,2.4-1,11.78,11.78,0,0,0,1.5-2.12,11.82,11.82,0,0,0,1,2.4,12.15,12.15,0,0,0,2.12,1.5,12.06,12.06,0,0,0-2.4,1A12.15,12.15,0,0,0,336.3,200.31Z"/><path class="cls-62" d="M370.06,180.62a20,20,0,0,0-1.62-4,20.13,20.13,0,0,0-3.52-2.49,20,20,0,0,0,4-1.62,20.11,20.11,0,0,0,2.49-3.53,20,20,0,0,0,1.62,4,20.11,20.11,0,0,0,3.53,2.49,19.72,19.72,0,0,0-4,1.62A19.76,19.76,0,0,0,370.06,180.62Z"/><path class="cls-63" d="M314.1,56.93a7,7,0,0,1-.83,1.18,6.77,6.77,0,0,1-1.33.54,6.59,6.59,0,0,1,1.17.83,6.19,6.19,0,0,1,.54,1.33,6.59,6.59,0,0,1,.83-1.17,6.43,6.43,0,0,1,1.34-.54,7,7,0,0,1-1.18-.83A7.05,7.05,0,0,1,314.1,56.93Z"/><path class="cls-64" d="M342.15,177a6.59,6.59,0,0,1-.83,1.17,6.19,6.19,0,0,1-1.33.54,6.26,6.26,0,0,1,1.17.84,6.19,6.19,0,0,1,.54,1.33,6.59,6.59,0,0,1,.84-1.18,6.77,6.77,0,0,1,1.33-.54,7,7,0,0,1-1.18-.83A6.77,6.77,0,0,1,342.15,177Z"/><path class="cls-65" d="M357,149.52a.65.65,0,1,1,1.29.15.65.65,0,0,1-1.29-.15Zm-6.57,11.28a1.3,1.3,0,1,0-1.14-1.45A1.31,1.31,0,0,0,350.47,160.8Zm-.79-15.86a2.61,2.61,0,1,0-2.29-2.89A2.61,2.61,0,0,0,349.68,144.94Zm22.83-.42a1.3,1.3,0,1,0-1.15-1.44A1.3,1.3,0,0,0,372.51,144.52Z"/><path class="cls-66" d="M145.74,458.89a6.6,6.6,0,0,1,1-1,6.45,6.45,0,0,1,1.41-.29,2.55,2.55,0,0,1-1.3-2.44,6.56,6.56,0,0,1-1,1,7.26,7.26,0,0,1-1.41.29,6.56,6.56,0,0,1,1,1A6.39,6.39,0,0,1,145.74,458.89Z"/><path class="cls-67" d="M445,229.58a11.65,11.65,0,0,0,.53,2.54A11.77,11.77,0,0,0,447.3,234a11.65,11.65,0,0,0-2.54.53,11.77,11.77,0,0,0-1.85,1.81,11.65,11.65,0,0,0-.53-2.54,11.77,11.77,0,0,0-1.81-1.85,11.65,11.65,0,0,0,2.54-.53A11.77,11.77,0,0,0,445,229.58Z"/><path class="cls-68" d="M464.33,194.36a20.23,20.23,0,0,0,.87,4.23,20.18,20.18,0,0,0,3,3.09,20.35,20.35,0,0,0-4.23.87,20.18,20.18,0,0,0-3.09,3,19.59,19.59,0,0,0-.87-4.23,20.18,20.18,0,0,0-3-3.09,19.59,19.59,0,0,0,4.23-.87A20.18,20.18,0,0,0,464.33,194.36Z"/><path class="cls-69" d="M420.48,298.72a19.87,19.87,0,0,0,.88,4.23,19.72,19.72,0,0,0,3,3.09,19.59,19.59,0,0,0-4.23.87,19.71,19.71,0,0,0-3.09,3,19.75,19.75,0,0,0-.88-4.23,19.32,19.32,0,0,0-3-3.09,19.87,19.87,0,0,0,4.23-.88A19.59,19.59,0,0,0,420.48,298.72Z"/><path class="cls-70" d="M432.25,252.77a2,2,0,1,0-1.3-2.45A2,2,0,0,0,432.25,252.77Z"/><path class="cls-71" d="M405.55,177.24a7.1,7.1,0,0,1,1-1A6.57,6.57,0,0,1,408,176a7.1,7.1,0,0,1-1-1,6.57,6.57,0,0,1-.29-1.41,7.1,7.1,0,0,1-1,1,6.57,6.57,0,0,1-1.41.29,7.1,7.1,0,0,1,1,1A6.57,6.57,0,0,1,405.55,177.24Z"/><path class="cls-72" d="M473.78,192.32a6.56,6.56,0,0,1,1-1,7.06,7.06,0,0,1,1.4-.29,6.6,6.6,0,0,1-1-1,6.39,6.39,0,0,1-.29-1.4,2.57,2.57,0,0,1-2.44,1.29,6.56,6.56,0,0,1,1,1A7.26,7.26,0,0,1,473.78,192.32Z"/><path class="cls-73" d="M440.28,210a6.56,6.56,0,0,1,1-1,6.45,6.45,0,0,1,1.41-.29,2.55,2.55,0,0,1-1.3-2.44,2.55,2.55,0,0,1-2.44,1.3,6.56,6.56,0,0,1,1,1A7.12,7.12,0,0,1,440.28,210Z"/><path class="cls-74" d="M457.16,166.66a.65.65,0,1,1,1.27.27.65.65,0,0,1-.77.51A.66.66,0,0,1,457.16,166.66Zm-7.62,10.6a1.3,1.3,0,1,0-1-1.55A1.31,1.31,0,0,0,449.54,177.26Zm.74-15.86a2.61,2.61,0,1,0-2-3.1A2.62,2.62,0,0,0,450.28,161.4ZM473,163.18a1.31,1.31,0,1,0-1-1.55A1.29,1.29,0,0,0,473,163.18Z"/><path class="cls-75" d="M159.33,240.36a20.23,20.23,0,0,0,.87,4.23,20.18,20.18,0,0,0,3,3.09,20.35,20.35,0,0,0-4.23.87,20.18,20.18,0,0,0-3.09,3,19.59,19.59,0,0,0-.87-4.23,20.18,20.18,0,0,0-3-3.09,19.59,19.59,0,0,0,4.23-.87A20.18,20.18,0,0,0,159.33,240.36Z"/><path class="cls-76" d="M168.78,238.32a6.56,6.56,0,0,1,1-1,7.06,7.06,0,0,1,1.4-.29,6.6,6.6,0,0,1-1-1,6.39,6.39,0,0,1-.29-1.4,6.6,6.6,0,0,1-1,1,6.57,6.57,0,0,1-1.41.29,6.56,6.56,0,0,1,1,1A7.26,7.26,0,0,1,168.78,238.32Z"/><path class="cls-77" d="M135.28,256a6.56,6.56,0,0,1,1-1,6.45,6.45,0,0,1,1.41-.29,2.55,2.55,0,0,1-1.3-2.44,6.56,6.56,0,0,1-1,1,6.57,6.57,0,0,1-1.41.29,6.56,6.56,0,0,1,1,1A7.12,7.12,0,0,1,135.28,256Z"/></g></g></g></svg>