<svg xmlns="http://www.w3.org/2000/svg" viewBox="0 0 309.62 309.39"><defs><style>.cls-1{fill:#1f2075;}</style></defs><g id="Layer_2" data-name="Layer 2"><g id="Capa_1" data-name="Capa 1"><polygon class="cls-1" points="175.28 88.12 176.58 90.51 178.97 91.82 176.58 93.12 175.28 95.51 173.97 93.12 171.58 91.82 173.97 90.51 175.28 88.12"/><polygon class="cls-1" points="122.96 40.63 124.27 43.02 126.66 44.33 124.27 45.63 122.96 48.02 121.66 45.63 119.27 44.33 121.66 43.02 122.96 40.63"/><polygon class="cls-1" points="93.05 76.24 94.35 78.63 96.74 79.93 94.35 81.24 93.05 83.63 91.74 81.24 89.36 79.93 91.74 78.63 93.05 76.24"/><polygon class="cls-1" points="25.95 15.3 27.26 17.69 29.65 19 27.26 20.3 25.95 22.69 24.65 20.3 22.26 19 24.65 17.69 25.95 15.3"/><polygon class="cls-1" points="188.95 78.08 189.6 79.28 190.8 79.93 189.6 80.58 188.95 81.78 188.3 80.58 187.1 79.93 188.3 79.28 188.95 78.08"/><polygon class="cls-1" points="271.08 55.31 271.73 56.51 272.93 57.16 271.73 57.81 271.08 59.01 270.43 57.81 269.23 57.16 270.43 56.51 271.08 55.31"/><polygon class="cls-1" points="307.78 122.83 308.43 124.03 309.62 124.68 308.43 125.33 307.78 126.53 307.12 125.33 305.93 124.68 307.12 124.03 307.78 122.83"/><polygon class="cls-1" points="235.96 154.88 236.61 156.07 237.81 156.72 236.61 157.38 235.96 158.57 235.31 157.38 234.11 156.72 235.31 156.07 235.96 154.88"/><polygon class="cls-1" points="202 147.87 202.66 149.06 203.85 149.71 202.66 150.37 202 151.56 201.35 150.37 200.16 149.71 201.35 149.06 202 147.87"/><polygon class="cls-1" points="278.94 151.94 279.59 153.14 280.79 153.79 279.59 154.44 278.94 155.64 278.29 154.44 277.09 153.79 278.29 153.14 278.94 151.94"/><polygon class="cls-1" points="42.83 149.71 43.48 150.91 44.67 151.56 43.48 152.21 42.83 153.41 42.17 152.21 40.98 151.56 42.17 150.91 42.83 149.71"/><polygon class="cls-1" points="227.63 115.77 228.28 116.41 229.48 116.77 228.28 117.11 227.63 117.75 226.98 117.11 225.79 116.77 226.98 116.41 227.63 115.77"/><polygon class="cls-1" points="162.62 51.46 163.06 52.27 163.87 52.71 163.06 53.15 162.62 53.96 162.18 53.15 161.37 52.71 162.18 52.27 162.62 51.46"/><polygon class="cls-1" points="179.94 38.69 180.19 39.14 180.64 39.38 180.19 39.63 179.94 40.08 179.7 39.63 179.25 39.38 179.7 39.14 179.94 38.69"/><polygon class="cls-1" points="150.52 54.51 150.77 54.96 151.22 55.21 150.77 55.46 150.52 55.91 150.28 55.46 149.83 55.21 150.28 54.96 150.52 54.51"/><polygon class="cls-1" points="142.06 39.94 142.31 40.39 142.76 40.63 142.31 40.88 142.06 41.33 141.81 40.88 141.36 40.63 141.81 40.39 142.06 39.94"/><polygon class="cls-1" points="129.15 55.76 129.39 56.21 129.84 56.46 129.39 56.71 129.15 57.16 128.9 56.71 128.45 56.46 128.9 56.21 129.15 55.76"/><polygon class="cls-1" points="157.13 82.93 157.37 83.38 157.82 83.63 157.37 83.87 157.13 84.32 156.88 83.87 156.43 83.63 156.88 83.38 157.13 82.93"/><polygon class="cls-1" points="127.28 104.57 127.53 105.02 127.98 105.27 127.53 105.51 127.28 105.97 127.04 105.51 126.59 105.27 127.04 105.02 127.28 104.57"/><polygon class="cls-1" points="140.58 113.83 140.83 114.28 141.28 114.52 140.83 114.77 140.58 115.22 140.34 114.77 139.88 114.52 140.34 114.28 140.58 113.83"/><polygon class="cls-1" points="106.96 129.46 107.21 129.91 107.66 130.16 107.21 130.41 106.96 130.86 106.71 130.41 106.26 130.16 106.71 129.91 106.96 129.46"/><polygon class="cls-1" points="34.84 130.16 35.09 130.61 35.54 130.86 35.09 131.1 34.84 131.55 34.59 131.1 34.14 130.86 34.59 130.61 34.84 130.16"/><polygon class="cls-1" points="0.7 135.18 0.94 135.63 1.4 135.88 0.94 136.12 0.7 136.57 0.45 136.12 0 135.88 0.45 135.63 0.7 135.18"/><polygon class="cls-1" points="25.95 145.41 26.2 145.86 26.65 146.1 26.2 146.35 25.95 146.8 25.71 146.35 25.25 146.1 25.71 145.86 25.95 145.41"/><polygon class="cls-1" points="79.59 135.88 79.83 136.33 80.29 136.57 79.83 136.82 79.59 137.27 79.34 136.82 78.89 136.57 79.34 136.33 79.59 135.88"/><polygon class="cls-1" points="90.05 144.71 90.3 145.16 90.75 145.41 90.3 145.65 90.05 146.1 89.81 145.65 89.36 145.41 89.81 145.16 90.05 144.71"/><polygon class="cls-1" points="257.31 136.57 257.56 137.03 258.01 137.27 257.56 137.52 257.31 137.97 257.07 137.52 256.62 137.27 257.07 137.03 257.31 136.57"/><polygon class="cls-1" points="171.13 130.16 171.38 130.61 171.83 130.86 171.38 131.1 171.13 131.55 170.88 131.1 170.43 130.86 170.88 130.61 171.13 130.16"/><polygon class="cls-1" points="250.21 105.27 250.45 105.72 250.9 105.97 250.45 106.21 250.21 106.66 249.96 106.21 249.51 105.97 249.96 105.72 250.21 105.27"/><polygon class="cls-1" points="302.44 144.71 302.69 145.16 303.14 145.41 302.69 145.65 302.44 146.1 302.19 145.65 301.74 145.41 302.19 145.16 302.44 144.71"/><polygon class="cls-1" points="287.24 160.72 287.49 161.17 287.94 161.41 287.49 161.66 287.24 162.11 286.99 161.66 286.54 161.41 286.99 161.17 287.24 160.72"/><polygon class="cls-1" points="250.9 137.27 251.15 137.72 251.6 137.97 251.15 138.22 250.9 138.67 250.66 138.22 250.21 137.97 250.66 137.72 250.9 137.27"/><polygon class="cls-1" points="225.79 137.97 226.03 138.42 226.49 138.67 226.03 138.91 225.79 139.37 225.54 138.91 225.09 138.67 225.54 138.42 225.79 137.97"/><polygon class="cls-1" points="230.15 88.12 230.39 88.58 230.84 88.82 230.39 89.07 230.15 89.52 229.9 89.07 229.45 88.82 229.9 88.58 230.15 88.12"/><polygon class="cls-1" points="22.53 87.43 22.77 87.88 23.23 88.12 22.77 88.37 22.53 88.82 22.28 88.37 21.83 88.12 22.28 87.88 22.53 87.43"/><polygon class="cls-1" points="68.18 63.49 68.43 63.94 68.88 64.19 68.43 64.43 68.18 64.88 67.94 64.43 67.48 64.19 67.94 63.94 68.18 63.49"/><polygon class="cls-1" points="89.35 54.51 89.6 54.96 90.05 55.21 89.6 55.46 89.35 55.91 89.11 55.46 88.66 55.21 89.11 54.96 89.35 54.51"/><polygon class="cls-1" points="48.75 37.99 49 38.44 49.45 38.69 49 38.93 48.75 39.38 48.5 38.93 48.05 38.69 48.5 38.44 48.75 37.99"/><polygon class="cls-1" points="111.61 94.81 111.86 95.27 112.31 95.51 111.86 95.76 111.61 96.21 111.36 95.76 110.91 95.51 111.36 95.27 111.61 94.81"/><polygon class="cls-1" points="38 90.42 38.25 90.87 38.7 91.12 38.25 91.37 38 91.82 37.76 91.37 37.3 91.12 37.76 90.87 38 90.42"/><polygon class="cls-1" points="211.5 14.6 211.75 15.06 212.2 15.3 211.75 15.55 211.5 16 211.25 15.55 210.8 15.3 211.25 15.06 211.5 14.6"/><polygon class="cls-1" points="303.14 18.3 303.39 18.75 303.84 19 303.39 19.24 303.14 19.7 302.89 19.24 302.44 19 302.89 18.75 303.14 18.3"/><polygon class="cls-1" points="278.94 72.7 279.19 73.15 279.64 73.39 279.19 73.64 278.94 74.09 278.69 73.64 278.24 73.39 278.69 73.15 278.94 72.7"/><polygon class="cls-1" points="244.06 0 244.31 0.45 244.76 0.7 244.31 0.94 244.06 1.4 243.81 0.94 243.37 0.7 243.81 0.45 244.06 0"/><polygon class="cls-1" points="297.16 53.81 297.41 54.27 297.86 54.51 297.41 54.76 297.16 55.21 296.92 54.76 296.46 54.51 296.92 54.27 297.16 53.81"/><polygon class="cls-1" points="38.7 47.32 38.95 47.78 39.4 48.02 38.95 48.27 38.7 48.72 38.45 48.27 38 48.02 38.45 47.78 38.7 47.32"/><polygon class="cls-1" points="106.26 111.28 106.51 111.73 106.96 111.98 106.51 112.23 106.26 112.68 106.02 112.23 105.56 111.98 106.02 111.73 106.26 111.28"/><polygon class="cls-1" points="187.1 117.06 187.35 117.51 187.8 117.75 187.35 118 187.1 118.45 186.86 118 186.4 117.75 186.86 117.51 187.1 117.06"/><polygon class="cls-1" points="203.62 91.12 203.87 91.57 204.32 91.82 203.87 92.06 203.62 92.52 203.38 92.06 202.92 91.82 203.38 91.57 203.62 91.12"/><polygon class="cls-1" points="209.82 123.28 210.07 123.74 210.52 123.98 210.07 124.23 209.82 124.68 209.58 124.23 209.13 123.98 209.58 123.74 209.82 123.28"/><polygon class="cls-1" points="292.68 145.41 292.93 145.86 293.38 146.1 292.93 146.35 292.68 146.8 292.44 146.35 291.98 146.1 292.44 145.86 292.68 145.41"/><polygon class="cls-1" points="163.16 16.5 163.6 17.3 164.41 17.75 163.6 18.19 163.16 19 162.71 18.19 161.91 17.75 162.71 17.3 163.16 16.5"/><polygon class="cls-1" points="188.95 53.96 189.39 54.77 190.2 55.21 189.39 55.65 188.95 56.46 188.51 55.65 187.7 55.21 188.51 54.77 188.95 53.96"/><polygon class="cls-1" points="244.06 18.45 244.5 19.25 245.31 19.7 244.5 20.14 244.06 20.95 243.62 20.14 242.81 19.7 243.62 19.25 244.06 18.45"/><polygon class="cls-1" points="297.86 40.08 298.3 40.89 299.11 41.33 298.3 41.77 297.86 42.58 297.42 41.77 296.61 41.33 297.42 40.89 297.86 40.08"/><polygon class="cls-1" points="259.26 86.18 259.7 86.98 260.51 87.43 259.7 87.87 259.26 88.68 258.82 87.87 258.01 87.43 258.82 86.98 259.26 86.18"/><polygon class="cls-1" points="146.64 103.03 147.08 103.83 147.89 104.28 147.08 104.72 146.64 105.53 146.2 104.72 145.39 104.28 146.2 103.83 146.64 103.03"/><polygon class="cls-1" points="73.32 27.08 73.76 27.89 74.57 28.33 73.76 28.77 73.32 29.58 72.88 28.77 72.07 28.33 72.88 27.89 73.32 27.08"/><polygon class="cls-1" points="110.36 58.18 110.8 58.99 111.61 59.43 110.8 59.88 110.36 60.68 109.92 59.88 109.11 59.43 109.92 58.99 110.36 58.18"/><polygon class="cls-1" points="126.03 94.26 126.48 95.07 127.28 95.51 126.48 95.95 126.03 96.76 125.59 95.95 124.78 95.51 125.59 95.07 126.03 94.26"/><polygon class="cls-1" points="135.94 83.07 136.38 83.88 137.19 84.32 136.38 84.77 135.94 85.57 135.5 84.77 134.69 84.32 135.5 83.88 135.94 83.07"/><polygon class="cls-1" points="63.64 114.52 64.08 115.33 64.89 115.77 64.08 116.22 63.64 117.02 63.2 116.22 62.39 115.77 63.2 115.33 63.64 114.52"/><polygon class="cls-1" points="215.72 52.71 216.16 53.52 216.96 53.96 216.16 54.4 215.72 55.21 215.27 54.4 214.46 53.96 215.27 53.52 215.72 52.71"/><polygon class="cls-1" points="168.53 76.83 168.97 77.64 169.78 78.08 168.97 78.53 168.53 79.33 168.09 78.53 167.28 78.08 168.09 77.64 168.53 76.83"/><polygon class="cls-1" points="128.48 243.73 127.32 245.84 125.2 247 127.32 248.16 128.48 250.28 129.64 248.16 131.76 247 129.64 245.84 128.48 243.73"/><polygon class="cls-1" points="174.91 201.58 173.75 203.7 171.63 204.86 173.75 206.02 174.91 208.14 176.06 206.02 178.18 204.86 176.06 203.7 174.91 201.58"/><polygon class="cls-1" points="201.45 233.18 200.3 235.3 198.18 236.46 200.3 237.62 201.45 239.73 202.61 237.62 204.73 236.46 202.61 235.3 201.45 233.18"/><polygon class="cls-1" points="261 179.1 259.84 181.22 257.72 182.38 259.84 183.54 261 185.66 262.16 183.54 264.28 182.38 262.16 181.22 261 179.1"/><polygon class="cls-1" points="116.34 234.82 115.77 235.88 114.71 236.46 115.77 237.03 116.34 238.09 116.92 237.03 117.98 236.46 116.92 235.88 116.34 234.82"/><polygon class="cls-1" points="43.46 214.6 42.88 215.66 41.82 216.24 42.88 216.82 43.46 217.88 44.03 216.82 45.1 216.24 44.03 215.66 43.46 214.6"/><polygon class="cls-1" points="10.89 274.53 10.31 275.59 9.25 276.17 10.31 276.75 10.89 277.81 11.47 276.75 12.53 276.17 11.47 275.59 10.89 274.53"/><polygon class="cls-1" points="74.63 302.96 74.05 304.02 72.99 304.61 74.05 305.18 74.63 306.24 75.2 305.18 76.26 304.61 75.2 304.02 74.63 302.96"/><polygon class="cls-1" points="104.76 296.75 104.18 297.81 103.12 298.38 104.18 298.96 104.76 300.02 105.34 298.96 106.4 298.38 105.34 297.81 104.76 296.75"/><polygon class="cls-1" points="36.48 300.36 35.9 301.42 34.84 302 35.9 302.58 36.48 303.64 37.06 302.58 38.12 302 37.06 301.42 36.48 300.36"/><polygon class="cls-1" points="246.02 298.38 245.44 299.44 244.38 300.02 245.44 300.6 246.02 301.66 246.6 300.6 247.66 300.02 246.6 299.44 246.02 298.38"/><polygon class="cls-1" points="82.01 268.26 81.44 268.83 80.38 269.14 81.44 269.45 82.01 270.02 82.59 269.45 83.65 269.14 82.59 268.83 82.01 268.26"/><polygon class="cls-1" points="139.71 211.19 139.32 211.91 138.6 212.3 139.32 212.69 139.71 213.41 140.1 212.69 140.82 212.3 140.1 211.91 139.71 211.19"/><polygon class="cls-1" points="124.34 199.85 124.12 200.25 123.72 200.47 124.12 200.69 124.34 201.09 124.56 200.69 124.95 200.47 124.56 200.25 124.34 199.85"/><polygon class="cls-1" points="150.45 213.9 150.23 214.3 149.82 214.52 150.23 214.73 150.45 215.13 150.66 214.73 151.06 214.52 150.66 214.3 150.45 213.9"/><polygon class="cls-1" points="157.96 200.96 157.74 201.36 157.34 201.58 157.74 201.8 157.96 202.2 158.18 201.8 158.58 201.58 158.18 201.36 157.96 200.96"/><polygon class="cls-1" points="169.42 215 169.2 215.41 168.8 215.63 169.2 215.84 169.42 216.24 169.64 215.84 170.04 215.63 169.64 215.41 169.42 215"/><polygon class="cls-1" points="144.59 239.11 144.37 239.51 143.97 239.73 144.37 239.95 144.59 240.35 144.81 239.95 145.21 239.73 144.81 239.51 144.59 239.11"/><polygon class="cls-1" points="171.07 258.32 170.85 258.72 170.45 258.94 170.85 259.16 171.07 259.56 171.29 259.16 171.69 258.94 171.29 258.72 171.07 258.32"/><polygon class="cls-1" points="159.27 266.54 159.05 266.94 158.65 267.15 159.05 267.37 159.27 267.77 159.49 267.37 159.89 267.15 159.49 266.94 159.27 266.54"/><polygon class="cls-1" points="189.11 280.41 188.89 280.81 188.49 281.03 188.89 281.25 189.11 281.65 189.33 281.25 189.73 281.03 189.33 280.81 189.11 280.41"/><polygon class="cls-1" points="253.11 281.03 252.89 281.43 252.49 281.65 252.89 281.87 253.11 282.27 253.33 281.87 253.73 281.65 253.33 281.43 253.11 281.03"/><polygon class="cls-1" points="283.41 285.48 283.19 285.88 282.79 286.1 283.19 286.32 283.41 286.72 283.63 286.32 284.03 286.1 283.63 285.88 283.41 285.48"/><polygon class="cls-1" points="261 294.56 260.78 294.96 260.38 295.18 260.78 295.4 261 295.8 261.22 295.4 261.62 295.18 261.22 294.96 261 294.56"/><polygon class="cls-1" points="213.4 286.1 213.18 286.5 212.78 286.72 213.18 286.94 213.4 287.34 213.62 286.94 214.02 286.72 213.62 286.5 213.4 286.1"/><polygon class="cls-1" points="204.11 293.94 203.89 294.34 203.49 294.56 203.89 294.78 204.11 295.18 204.33 294.78 204.73 294.56 204.33 294.34 204.11 293.94"/><polygon class="cls-1" points="55.67 286.72 55.45 287.13 55.05 287.34 55.45 287.56 55.67 287.96 55.89 287.56 56.29 287.34 55.89 287.13 55.67 286.72"/><polygon class="cls-1" points="132.16 281.03 131.94 281.43 131.54 281.65 131.94 281.87 132.16 282.27 132.38 281.87 132.78 281.65 132.38 281.43 132.16 281.03"/><polygon class="cls-1" points="61.98 258.94 61.76 259.34 61.36 259.56 61.76 259.78 61.98 260.18 62.2 259.78 62.6 259.56 62.2 259.34 61.98 258.94"/><polygon class="cls-1" points="15.63 293.94 15.4 294.34 15 294.56 15.4 294.78 15.63 295.18 15.85 294.78 16.24 294.56 15.85 294.34 15.63 293.94"/><polygon class="cls-1" points="29.12 308.15 28.9 308.55 28.5 308.77 28.9 308.99 29.12 309.39 29.34 308.99 29.74 308.77 29.34 308.55 29.12 308.15"/><polygon class="cls-1" points="61.36 287.34 61.14 287.74 60.74 287.96 61.14 288.18 61.36 288.58 61.58 288.18 61.98 287.96 61.58 287.74 61.36 287.34"/><polygon class="cls-1" points="83.65 287.96 83.43 288.36 83.03 288.58 83.43 288.8 83.65 289.2 83.87 288.8 84.27 288.58 83.87 288.36 83.65 287.96"/><polygon class="cls-1" points="79.78 243.73 79.56 244.13 79.16 244.35 79.56 244.56 79.78 244.97 80 244.56 80.4 244.35 80 244.13 79.78 243.73"/><polygon class="cls-1" points="264.04 243.11 263.82 243.51 263.42 243.73 263.82 243.94 264.04 244.35 264.26 243.94 264.66 243.73 264.26 243.51 264.04 243.11"/><polygon class="cls-1" points="223.52 221.86 223.3 222.26 222.9 222.48 223.3 222.7 223.52 223.1 223.74 222.7 224.14 222.48 223.74 222.26 223.52 221.86"/><polygon class="cls-1" points="204.73 213.9 204.51 214.3 204.11 214.52 204.51 214.73 204.73 215.13 204.95 214.73 205.35 214.52 204.95 214.3 204.73 213.9"/><polygon class="cls-1" points="240.77 199.23 240.55 199.63 240.15 199.85 240.55 200.07 240.77 200.47 240.99 200.07 241.39 199.85 240.99 199.63 240.77 199.23"/><polygon class="cls-1" points="184.98 249.66 184.76 250.06 184.36 250.28 184.76 250.5 184.98 250.9 185.2 250.5 185.6 250.28 185.2 250.06 184.98 249.66"/><polygon class="cls-1" points="250.31 245.76 250.09 246.17 249.69 246.38 250.09 246.6 250.31 247 250.53 246.6 250.93 246.38 250.53 246.17 250.31 245.76"/><polygon class="cls-1" points="96.33 178.48 96.11 178.88 95.71 179.1 96.11 179.32 96.33 179.72 96.55 179.32 96.95 179.1 96.55 178.88 96.33 178.48"/><polygon class="cls-1" points="15 181.76 14.79 182.16 14.38 182.38 14.79 182.6 15 183 15.22 182.6 15.62 182.38 15.22 182.16 15 181.76"/><polygon class="cls-1" points="36.48 230.03 36.26 230.44 35.86 230.65 36.26 230.87 36.48 231.27 36.7 230.87 37.1 230.65 36.7 230.44 36.48 230.03"/><polygon class="cls-1" points="67.43 165.52 67.21 165.92 66.81 166.14 67.21 166.36 67.43 166.76 67.65 166.36 68.05 166.14 67.65 165.92 67.43 165.52"/><polygon class="cls-1" points="20.31 213.28 20.09 213.68 19.69 213.9 20.09 214.11 20.31 214.52 20.53 214.11 20.93 213.9 20.53 213.68 20.31 213.28"/><polygon class="cls-1" points="249.69 207.52 249.47 207.92 249.07 208.14 249.47 208.36 249.69 208.76 249.91 208.36 250.31 208.14 249.91 207.92 249.69 207.52"/><polygon class="cls-1" points="189.73 264.28 189.51 264.68 189.11 264.9 189.51 265.12 189.73 265.52 189.95 265.12 190.35 264.9 189.95 264.68 189.73 264.28"/><polygon class="cls-1" points="117.98 269.4 117.76 269.8 117.36 270.02 117.76 270.24 117.98 270.64 118.2 270.24 118.6 270.02 118.2 269.8 117.98 269.4"/><polygon class="cls-1" points="103.32 246.38 103.1 246.79 102.7 247 103.1 247.22 103.32 247.62 103.54 247.22 103.94 247 103.54 246.79 103.32 246.38"/><polygon class="cls-1" points="97.82 274.93 97.6 275.33 97.2 275.55 97.6 275.77 97.82 276.17 98.04 275.77 98.44 275.55 98.04 275.33 97.82 274.93"/><polygon class="cls-1" points="24.29 294.56 24.07 294.96 23.66 295.18 24.07 295.4 24.29 295.8 24.5 295.4 24.9 295.18 24.5 294.96 24.29 294.56"/><polygon class="cls-1" points="139.24 180.16 138.84 180.88 138.13 181.27 138.84 181.66 139.24 182.38 139.63 181.66 140.34 181.27 139.63 180.88 139.24 180.16"/><polygon class="cls-1" points="116.34 213.41 115.95 214.12 115.24 214.52 115.95 214.91 116.34 215.62 116.74 214.91 117.45 214.52 116.74 214.12 116.34 213.41"/><polygon class="cls-1" points="103.89 121.13 102.73 123.25 100.61 124.41 102.73 125.57 103.89 127.69 105.04 125.57 107.16 124.41 105.04 123.25 103.89 121.13"/><polygon class="cls-1" points="68.69 130.74 68.3 131.46 67.58 131.85 68.3 132.24 68.69 132.96 69.08 132.24 69.8 131.85 69.08 131.46 68.69 130.74"/><polygon class="cls-1" points="53.32 119.4 53.1 119.81 52.7 120.02 53.1 120.24 53.32 120.64 53.54 120.24 53.94 120.02 53.54 119.81 53.32 119.4"/><polygon class="cls-1" points="79.43 133.45 79.21 133.85 78.81 134.07 79.21 134.29 79.43 134.69 79.64 134.29 80.05 134.07 79.64 133.85 79.43 133.45"/><polygon class="cls-1" points="86.94 120.51 86.72 120.92 86.32 121.13 86.72 121.35 86.94 121.75 87.16 121.35 87.56 121.13 87.16 120.92 86.94 120.51"/><polygon class="cls-1" points="98.4 134.56 98.18 134.96 97.78 135.18 98.18 135.4 98.4 135.8 98.62 135.4 99.02 135.18 98.62 134.96 98.4 134.56"/><polygon class="cls-1" points="68.22 99.71 67.83 100.43 67.11 100.82 67.83 101.21 68.22 101.93 68.61 101.21 69.33 100.82 68.61 100.43 68.22 99.71"/><polygon class="cls-1" points="45.33 132.96 44.93 133.68 44.22 134.07 44.93 134.46 45.33 135.18 45.72 134.46 46.43 134.07 45.72 133.68 45.33 132.96"/><polygon class="cls-1" points="146.29 152.66 145.9 153.38 145.18 153.77 145.9 154.16 146.29 154.88 146.68 154.16 147.4 153.77 146.68 153.38 146.29 152.66"/><polygon class="cls-1" points="130.91 141.33 130.69 141.73 130.29 141.95 130.69 142.16 130.91 142.57 131.13 142.16 131.53 141.95 131.13 141.73 130.91 141.33"/><polygon class="cls-1" points="157.02 155.37 156.8 155.77 156.4 155.99 156.8 156.21 157.02 156.61 157.24 156.21 157.64 155.99 157.24 155.77 157.02 155.37"/><polygon class="cls-1" points="145.81 121.63 145.42 122.35 144.7 122.74 145.42 123.14 145.81 123.85 146.2 123.14 146.92 122.74 146.2 122.35 145.81 121.63"/><polygon class="cls-1" points="122.92 154.88 122.53 155.6 121.81 155.99 122.53 156.38 122.92 157.1 123.31 156.38 124.03 155.99 123.31 155.6 122.92 154.88"/><polygon class="cls-1" points="190.93 174.01 190.53 174.73 189.82 175.12 190.53 175.52 190.93 176.23 191.32 175.52 192.03 175.12 191.32 174.73 190.93 174.01"/><polygon class="cls-1" points="175.55 162.68 175.33 163.08 174.93 163.3 175.33 163.52 175.55 163.92 175.77 163.52 176.17 163.3 175.77 163.08 175.55 162.68"/><polygon class="cls-1" points="201.66 176.72 201.44 177.12 201.04 177.34 201.44 177.56 201.66 177.96 201.88 177.56 202.28 177.34 201.88 177.12 201.66 176.72"/><polygon class="cls-1" points="190.45 142.99 190.06 143.7 189.34 144.09 190.06 144.49 190.45 145.2 190.84 144.49 191.56 144.09 190.84 143.7 190.45 142.99"/><polygon class="cls-1" points="167.56 176.23 167.16 176.95 166.45 177.34 167.16 177.73 167.56 178.45 167.95 177.73 168.67 177.34 167.95 176.95 167.56 176.23"/><polygon class="cls-1" points="67.43 181.89 67.04 182.6 66.32 183 67.04 183.39 67.43 184.11 67.83 183.39 68.54 183 67.83 182.6 67.43 181.89"/><polygon class="cls-1" points="19.69 201.09 19.3 201.81 18.58 202.2 19.3 202.59 19.69 203.31 20.08 202.59 20.8 202.2 20.08 201.81 19.69 201.09"/><polygon class="cls-1" points="53.94 242 53.55 242.71 52.84 243.11 53.55 243.5 53.94 244.22 54.34 243.5 55.05 243.11 54.34 242.71 53.94 242"/><polygon class="cls-1" points="153.89 256.95 153.5 257.67 152.78 258.06 153.5 258.45 153.89 259.17 154.28 258.45 155 258.06 154.28 257.67 153.89 256.95"/><polygon class="cls-1" points="218.97 189.55 218.57 190.27 217.86 190.66 218.57 191.05 218.97 191.77 219.36 191.05 220.07 190.66 219.36 190.27 218.97 189.55"/><polygon class="cls-1" points="186.09 217.16 185.7 217.87 184.98 218.26 185.7 218.66 186.09 219.37 186.48 218.66 187.2 218.26 186.48 217.87 186.09 217.16"/><polygon class="cls-1" points="172.18 249.17 171.79 249.89 171.07 250.28 171.79 250.68 172.18 251.39 172.57 250.68 173.29 250.28 172.57 249.89 172.18 249.17"/><polygon class="cls-1" points="163.39 239.24 162.99 239.96 162.28 240.35 162.99 240.75 163.39 241.46 163.78 240.75 164.5 240.35 163.78 239.96 163.39 239.24"/><polygon class="cls-1" points="227.55 267.15 227.16 267.87 226.44 268.26 227.16 268.66 227.55 269.37 227.94 268.66 228.66 268.26 227.94 267.87 227.55 267.15"/><polygon class="cls-1" points="92.59 212.3 92.2 213.01 91.48 213.41 92.2 213.8 92.59 214.52 92.98 213.8 93.7 213.41 92.98 213.01 92.59 212.3"/><polygon class="cls-1" points="134.46 233.71 134.07 234.43 133.35 234.82 134.07 235.21 134.46 235.93 134.86 235.21 135.57 234.82 134.86 234.43 134.46 233.71"/></g></g></svg>