<svg xmlns="http://www.w3.org/2000/svg" xmlns:xlink="http://www.w3.org/1999/xlink" viewBox="0 0 118.73 118.73"><defs><style>.cls-1{isolation:isolate;}.cls-2{fill:url(#radial-gradient);}.cls-3,.cls-4,.cls-6,.cls-7{fill:#e0a326;}.cls-4,.cls-7{mix-blend-mode:screen;}.cls-5{opacity:0.7;}.cls-6,.cls-7{opacity:0.5;}.cls-6{mix-blend-mode:multiply;}</style><radialGradient id="radial-gradient" cx="59.36" cy="59.36" r="59.36" gradientTransform="translate(109.93 -7.65) rotate(82.04)" gradientUnits="userSpaceOnUse"><stop offset="0" stop-color="#e0a326"/><stop offset="0.38" stop-color="#e0a326" stop-opacity="0.99"/><stop offset="0.52" stop-color="#e0a326" stop-opacity="0.96"/><stop offset="0.62" stop-color="#e0a326" stop-opacity="0.91"/><stop offset="0.7" stop-color="#e0a326" stop-opacity="0.83"/><stop offset="0.77" stop-color="#e0a326" stop-opacity="0.73"/><stop offset="0.83" stop-color="#e0a326" stop-opacity="0.61"/><stop offset="0.88" stop-color="#e0a326" stop-opacity="0.47"/><stop offset="0.93" stop-color="#e0a326" stop-opacity="0.3"/><stop offset="0.98" stop-color="#e0a326" stop-opacity="0.12"/><stop offset="1" stop-color="#e0a326" stop-opacity="0"/></radialGradient></defs><g class="cls-1"><g id="Layer_2" data-name="Layer 2"><g id="Capa_1" data-name="Capa 1"><circle class="cls-2" cx="59.36" cy="59.36" r="59.36" transform="translate(-7.65 109.93) rotate(-82.04)"/><circle class="cls-3" cx="59.36" cy="59.36" r="53.15" transform="translate(-17.35 93.46) rotate(-68.96)"/><path class="cls-4" d="M22.47,78.46c-4.64-2.22-8-7.91-9.45-12.32-3.12-9.34-.71-19.53,3.2-28.25C28.45,10.65,62.18,8,71,15.7s3.22,19.45-11.5,25.83-13.8,27.3-22.41,33.78c-3.28,2.48-7.08,4.45-11.36,4.06A9.33,9.33,0,0,1,22.47,78.46Z"/><g class="cls-5"><path class="cls-4" d="M18.76,58.25a105,105,0,0,1-9.21-7.2,50.26,50.26,0,0,0,28,53.46A50.31,50.31,0,0,1,18.76,58.25Z"/><path class="cls-4" d="M55.83,9A50.27,50.27,0,0,0,10.25,47.55a99.61,99.61,0,0,0,9.07,7.34A50.27,50.27,0,0,1,62,15.1,53.45,53.45,0,0,0,55.83,9Z"/><path class="cls-4" d="M78.07,15.6a53,53,0,0,0-3.6-4.33,50.83,50.83,0,0,0-15.33-2.4,60.59,60.59,0,0,1,5.57,6A50.67,50.67,0,0,1,78.07,15.6Z"/><path class="cls-4" d="M81.38,16.35a50.39,50.39,0,0,1,8.75,3.19,50.15,50.15,0,0,0-11.31-6.66C79.71,14,80.57,15.16,81.38,16.35Z"/></g><path class="cls-6" d="M65.45,7.62A42.56,42.56,0,1,1,8.18,68.76L8,68.54A52.21,52.21,0,1,0,65.45,7.62Z"/><path class="cls-6" d="M94.5,23.47l.14.18c17.15,23,12.94,55.18-9.4,71.83-20.69,15.41-49.65,12.12-67.45-6.71,17.19,22.86,49.09,28,71.37,11.36s26.55-48.81,9.4-71.83A54.54,54.54,0,0,0,94.5,23.47Z"/><path class="cls-6" d="M45.08,14.5c2,2.63-.94,8.1-6.47,12.22S27,32.05,25,29.42s.94-8.1,6.48-12.22S43.12,11.87,45.08,14.5Z"/><path class="cls-6" d="M27.4,30.72c2.8.48,7.15-1,11.21-4,4.5-3.35,7.26-7.6,7.07-10.48-2.8-.48-7.15,1-11.21,4C30,23.59,27.21,27.84,27.4,30.72Z"/><path class="cls-6" d="M106.2,51.56c-3,1.4-7.76-2.5-10.72-8.74s-3-12.42,0-13.83,7.76,2.5,10.73,8.73S109.16,50.15,106.2,51.56Z"/><path class="cls-6" d="M93.74,31.05c-1,2.65-.44,7.2,1.74,11.77,2.41,5.07,6,8.6,8.9,9,1-2.66.43-7.21-1.74-11.78C100.23,35,96.6,31.43,93.74,31.05Z"/><path class="cls-6" d="M74.15,94.54c-2.11-2.5.44-8.14,5.7-12.6s11.26-6,13.37-3.54-.43,8.14-5.7,12.6S76.27,97,74.15,94.54Z"/><path class="cls-6" d="M90.8,77.25c-2.83-.3-7.08,1.42-11,4.69-4.28,3.63-6.77,8-6.41,10.9,2.83.3,7.08-1.42,11-4.69C88.67,84.53,91.16,80.12,90.8,77.25Z"/><path class="cls-6" d="M40.39,80.89C40,74,46.45,68,54.71,67.56S70,72.43,70.31,79.37,64.26,92.28,56,92.7,40.75,87.83,40.39,80.89Z"/><path class="cls-6" d="M54.71,67.56c-7.45.38-13.39,5.28-14.23,11.33,1.46,5.92,7.86,10.17,15.31,9.79S69.18,83.41,70,77.36C68.56,71.44,62.16,67.18,54.71,67.56Z"/><path class="cls-6" d="M55.32,33.76c1.76,4.11-.78,9.15-5.67,11.24s-10.29.47-12.06-3.64.78-9.14,5.67-11.24S53.55,29.65,55.32,33.76Z"/><path class="cls-6" d="M49.65,45c4.41-1.89,6.91-6.17,6.06-10-2.2-3.25-7-4.38-11.42-2.49s-6.91,6.17-6.07,10C40.42,45.76,45.24,46.9,49.65,45Z"/><path class="cls-6" d="M81.49,68.86C76.05,67.49,73,61.12,74.6,54.64S82,44,87.41,45.4s8.53,7.74,6.89,14.22S86.93,70.24,81.49,68.86Z"/><path class="cls-6" d="M74.6,54.64c-1.48,5.85.89,11.6,5.36,13.68,4.92.28,9.72-3.66,11.19-9.49s-.89-11.6-5.36-13.68C80.87,44.87,76.07,48.81,74.6,54.64Z"/><path class="cls-6" d="M19.49,47.54c2.58,0,4.71,4.37,4.76,9.81s-2,9.87-4.6,9.89-4.72-4.37-4.76-9.81S16.9,47.56,19.49,47.54Z"/><path class="cls-6" d="M21.57,66.35c1.61-1.56,2.71-5,2.68-9,0-4.42-1.46-8.15-3.37-9.38-1.61,1.56-2.72,5-2.68,9C18.23,61.39,19.65,65.12,21.57,66.35Z"/><path class="cls-6" d="M30.13,97c1.27-3,7.46-3.31,13.82-.63s10.48,7.29,9.21,10.31-7.45,3.31-13.81.63S28.86,100,30.13,97Z"/><path class="cls-6" d="M53.09,104c-1-2.66-4.47-5.67-9.14-7.63-5.17-2.18-10.23-2.4-12.62-.78,1,2.66,4.47,5.67,9.14,7.63C45.64,105.37,50.7,105.59,53.09,104Z"/><path class="cls-6" d="M62.23,12c.22,1.84-2.75,3.71-6.63,4.17s-7.19-.67-7.41-2.51S50.94,10,54.82,9.49,62,10.15,62.23,12Z"/><path class="cls-6" d="M49,15c1.24,1,3.79,1.54,6.63,1.21,3.16-.38,5.71-1.68,6.44-3.15-1.24-1-3.79-1.54-6.63-1.2C52.25,12.19,49.7,13.49,49,15Z"/><path class="cls-6" d="M94,92.54c-1.43-1.17-.6-4.58,1.87-7.6s5.64-4.53,7.08-3.35.6,4.57-1.87,7.6S95.44,93.71,94,92.54Z"/><path class="cls-6" d="M101.48,81.2c-1.61.12-3.79,1.52-5.61,3.74-2,2.46-2.93,5.17-2.44,6.73,1.61-.13,3.79-1.52,5.61-3.74C101.05,85.47,102,82.76,101.48,81.2Z"/><path class="cls-6" d="M18.77,84.08c1.43-1.18,4.6.31,7.09,3.32S29.2,93.81,27.77,95s-4.61-.3-7.09-3.32S17.34,85.26,18.77,84.08Z"/><path class="cls-6" d="M28.44,93.63c.19-1.6-.76-4-2.58-6.23-2-2.45-4.5-3.89-6.12-3.71-.2,1.6.75,4,2.57,6.23C24.33,92.37,26.81,93.81,28.44,93.63Z"/><path class="cls-6" d="M73,105.71c-.74-1.7,1.56-4.34,5.15-5.9s7.08-1.45,7.82.25-1.56,4.35-5.14,5.91S73.7,107.42,73,105.71Z"/><path class="cls-6" d="M84.79,99.05c-1.48-.63-4.07-.39-6.69.76-2.92,1.27-5,3.25-5.25,4.87,1.48.62,4.06.38,6.69-.77C82.45,102.64,84.52,100.66,84.79,99.05Z"/><path class="cls-6" d="M96.78,26c-.76,1.2-3.43.87-6-.73s-4-3.89-3.2-5.09,3.43-.87,6,.73S97.54,24.82,96.78,26Z"/><path class="cls-6" d="M87.45,21.36c.24,1.21,1.51,2.75,3.37,3.93,2.05,1.3,4.2,1.77,5.34,1.24-.23-1.21-1.5-2.75-3.36-3.93C90.75,21.3,88.6,20.84,87.45,21.36Z"/><path class="cls-6" d="M107.15,64.58c-1.42-.07-2.45-2.56-2.3-5.55s1.43-5.36,2.85-5.29,2.45,2.56,2.3,5.55S108.57,64.65,107.15,64.58Z"/><path class="cls-6" d="M106.61,54.17c-.93.8-1.65,2.66-1.76,4.86-.12,2.43.53,4.53,1.55,5.27.94-.81,1.65-2.67,1.76-4.86C108.29,57,107.63,54.9,106.61,54.17Z"/><path class="cls-6" d="M30.46,87.55c.56-.79,2.37-.48,4,.7s2.56,2.78,2,3.57-2.36.48-4-.7S29.9,88.34,30.46,87.55Z"/><path class="cls-6" d="M36.65,91a4.94,4.94,0,0,0-2.15-2.79c-1.36-1-2.81-1.34-3.6-1A4.91,4.91,0,0,0,33.05,90C34.41,91,35.86,91.36,36.65,91Z"/><path class="cls-6" d="M38.66,46.29c1.58.58,2.29,2.61,1.58,4.53s-2.57,3-4.15,2.4-2.28-2.61-1.57-4.53S37.08,45.7,38.66,46.29Z"/><path class="cls-6" d="M37.39,53.35a3.79,3.79,0,0,0,2.85-2.53,3.67,3.67,0,0,0-.79-4.06,3.79,3.79,0,0,0-2.85,2.53A3.67,3.67,0,0,0,37.39,53.35Z"/><path class="cls-6" d="M53.9,20.79c.25.94-1.15,2.13-3.12,2.66s-3.78.19-4-.74,1.15-2.13,3.12-2.66S53.64,19.85,53.9,20.79Z"/><path class="cls-6" d="M47.26,23.32a4.89,4.89,0,0,0,3.52.13c1.6-.43,2.83-1.3,3.09-2.11a4.89,4.89,0,0,0-3.52-.13C48.74,21.64,47.52,22.51,47.26,23.32Z"/><path class="cls-6" d="M90.87,43.13c-1.19.43-2.6-.45-3.16-2s0-3.12,1.15-3.55,2.6.45,3.16,2S92.06,42.7,90.87,43.13Z"/><path class="cls-6" d="M88.06,38.17a3.06,3.06,0,0,0-.35,3,3,3,0,0,0,2.48,2.09,3.06,3.06,0,0,0,.35-3A3,3,0,0,0,88.06,38.17Z"/><path class="cls-6" d="M14.36,39.39c1.79.47,2.44,3.91,1.45,7.69s-3.26,6.45-5.06,6-2.44-3.92-1.44-7.69S12.57,38.91,14.36,39.39Z"/><path class="cls-6" d="M12.25,52.81c1.41-.78,2.82-3,3.56-5.73.81-3.07.53-5.92-.57-7.14-1.41.78-2.82,3-3.55,5.73C10.88,48.74,11.15,51.59,12.25,52.81Z"/><path class="cls-6" d="M99.43,71c.76.33.9,1.69.31,3s-1.67,2.16-2.43,1.83-.9-1.69-.31-3S98.67,70.63,99.43,71Z"/><path class="cls-6" d="M99,66.09c.46.2.55,1,.19,1.84s-1,1.31-1.48,1.11-.54-1-.19-1.84S98.52,65.89,99,66.09Z"/><path class="cls-6" d="M48.05,95.3c-.41.83-1.92.91-3.38.18s-2.3-2-1.89-2.82,1.93-.9,3.38-.17S48.47,94.48,48.05,95.3Z"/><path class="cls-6" d="M52.28,96.28c-.25.49-1.16.54-2,.1s-1.4-1.2-1.15-1.7,1.17-.55,2-.1S52.53,95.78,52.28,96.28Z"/><path class="cls-6" d="M28.37,87.66c-.33.31-1.05.1-1.6-.48s-.73-1.31-.4-1.62,1-.1,1.59.48S28.7,87.35,28.37,87.66Z"/><path class="cls-6" d="M88.27,26.36c-.48.46-1.52.14-2.33-.71s-1.06-1.9-.58-2.35,1.51-.14,2.32.71S88.74,25.91,88.27,26.36Z"/><path class="cls-6" d="M90.07,30.05c-.32.3-1,.09-1.52-.46s-.7-1.24-.39-1.54,1-.09,1.52.46S90.38,29.75,90.07,30.05Z"/><path class="cls-6" d="M65.87,106c0,.82-1.23,1.46-2.69,1.41s-2.62-.76-2.59-1.58,1.23-1.46,2.69-1.41S65.9,105.17,65.87,106Z"/><path class="cls-6" d="M70.23,103.77c0,.51-.75.89-1.64.86s-1.59-.46-1.57-1,.75-.89,1.63-.86S70.25,103.27,70.23,103.77Z"/><path class="cls-6" d="M59.29,103.52c0,.51-.74.89-1.63.86s-1.6-.46-1.58-1,.75-.89,1.64-.86S59.31,103,59.29,103.52Z"/><path class="cls-7" d="M18.69,39c-.69-.46-.59-1.81.22-3s2-1.84,2.7-1.38.6,1.82-.21,3S19.38,39.43,18.69,39Zm1.25,4c.49-.74.55-1.57.13-1.84s-1.15.09-1.64.83-.55,1.57-.13,1.85S19.45,43.75,19.94,43Zm6-9.18c.49-.74.55-1.56.13-1.84s-1.16.1-1.65.84-.54,1.56-.13,1.84S25.41,34.57,25.9,33.83Zm34.31-14.2c-.28-.78.6-1.81,2-2.32s2.71-.28,3,.5-.6,1.81-2,2.31S60.5,20.41,60.21,19.63Zm8.85.13c.84-.31,1.37-.94,1.2-1.41s-1-.61-1.83-.3-1.36.94-1.19,1.41S68.23,20.07,69.06,19.76Z"/></g></g></g></svg>