<svg xmlns="http://www.w3.org/2000/svg" xmlns:xlink="http://www.w3.org/1999/xlink" viewBox="0 0 316.38 291.64"><defs><style>.cls-1{isolation:isolate;}.cls-2{mix-blend-mode:overlay;}.cls-3{opacity:0.5;}.cls-11,.cls-12,.cls-14,.cls-15,.cls-4,.cls-5,.cls-7,.cls-8{opacity:0.7;}.cls-4{fill:url(#linear-gradient);}.cls-5{fill:url(#linear-gradient-2);}.cls-13,.cls-16,.cls-6,.cls-9{stroke:#c600e5;stroke-linecap:round;stroke-linejoin:round;mix-blend-mode:screen;}.cls-6,.cls-9{stroke-width:0.5px;}.cls-6{fill:url(#linear-gradient-3);}.cls-7{fill:url(#linear-gradient-4);}.cls-8{fill:url(#linear-gradient-5);}.cls-9{fill:url(#linear-gradient-6);}.cls-10{mix-blend-mode:luminosity;}.cls-11{fill:url(#linear-gradient-7);}.cls-12{fill:url(#linear-gradient-8);}.cls-13,.cls-16{stroke-width:0.36px;}.cls-13{fill:url(#linear-gradient-9);}.cls-14{fill:url(#linear-gradient-10);}.cls-15{fill:url(#linear-gradient-11);}.cls-16{fill:url(#linear-gradient-12);}</style><linearGradient id="linear-gradient" x1="-406.31" y1="211.2" x2="-347.68" y2="244.63" gradientTransform="matrix(-0.99, 0.12, 0.12, 0.99, -308.67, -76.56)" gradientUnits="userSpaceOnUse"><stop offset="0" stop-color="#fff" stop-opacity="0"/><stop offset="1" stop-color="#fff" stop-opacity="0.8"/></linearGradient><linearGradient id="linear-gradient-2" x1="-442.12" y1="184.82" x2="-362.65" y2="238.25" xlink:href="#linear-gradient"/><linearGradient id="linear-gradient-3" x1="71.71" y1="120.19" x2="73.65" y2="120.19" gradientTransform="matrix(1, 0, 0, 1, 0, 0)" xlink:href="#linear-gradient"/><linearGradient id="linear-gradient-4" x1="-565.02" y1="179.69" x2="-506.39" y2="213.12" xlink:href="#linear-gradient"/><linearGradient id="linear-gradient-5" x1="-600.83" y1="153.31" x2="-521.36" y2="206.74" xlink:href="#linear-gradient"/><linearGradient id="linear-gradient-6" x1="225.38" y1="69.55" x2="227.32" y2="69.55" gradientTransform="matrix(1, 0, 0, 1, 0, 0)" xlink:href="#linear-gradient"/><linearGradient id="linear-gradient-7" x1="-555.7" y1="422.67" x2="-532.08" y2="436.14" xlink:href="#linear-gradient"/><linearGradient id="linear-gradient-8" x1="-562.68" y1="416.18" x2="-537.53" y2="433.09" xlink:href="#linear-gradient"/><linearGradient id="linear-gradient-9" x1="275.86" y1="289.52" x2="278.29" y2="289.52" gradientTransform="matrix(1, 0, 0, 1, 0, 0)" xlink:href="#linear-gradient"/><linearGradient id="linear-gradient-10" x1="-328.58" y1="324.07" x2="-262.56" y2="361.72" xlink:href="#linear-gradient"/><linearGradient id="linear-gradient-11" x1="-367.55" y1="294.43" x2="-279" y2="353.96" xlink:href="#linear-gradient"/><linearGradient id="linear-gradient-12" x1="2.34" y1="246.26" x2="4.77" y2="246.26" gradientTransform="matrix(1, 0, 0, 1, 0, 0)" xlink:href="#linear-gradient"/></defs><g class="cls-1"><g id="Layer_2" data-name="Layer 2"><g id="Capa_1" data-name="Capa 1"><g class="cls-2"><g class="cls-3"><path class="cls-4" d="M70.67,116.68a11,11,0,0,1,1.61-1l1.93-1.18,3.87-2.38L81.45,110c3.68-2.26,80.26-58.78,81.25-59.39-1.56,1.5-78,61.2-81.08,64.14l-4,3.83a35.52,35.52,0,0,1-2.73,2.62,3.15,3.15,0,0,1-4.71-4A2.22,2.22,0,0,1,70.67,116.68Z"/><path class="cls-5" d="M71.28,117.66c.67-.63,83-60.39,83.62-60.79-1,1-80.19,63.28-80.83,63.77a2.06,2.06,0,0,1-3-2.75A1.07,1.07,0,0,1,71.28,117.66Z"/><path class="cls-6" d="M73.65,120.57s-1.87.64-1.94-.9"/></g><g class="cls-3"><path class="cls-7" d="M224.35,66a9.62,9.62,0,0,1,1.6-1l1.94-1.19,3.87-2.38,3.36-2.06C238.8,57.13,315.39.61,316.38,0c-1.56,1.51-78,61.2-81.08,64.15l-4,3.82a35.65,35.65,0,0,1-2.74,2.62,3.15,3.15,0,0,1-4.71-4A2.26,2.26,0,0,1,224.35,66Z"/><path class="cls-8" d="M225,67c.68-.63,83-60.39,83.62-60.79-1,1-80.19,63.28-80.83,63.77a2.07,2.07,0,0,1-3.31-1.36,2,2,0,0,1,.32-1.39A2.2,2.2,0,0,1,225,67Z"/><path class="cls-9" d="M227.32,69.93s-1.87.64-1.94-.9"/></g><g class="cls-10"><path class="cls-11" d="M274.57,285.13a14.11,14.11,0,0,1,2-1.28l2.43-1.48,4.84-3,4.21-2.58c4.6-2.82,21.87-14.6,23.11-15.36-2,1.89-19.08,17.63-22.89,21.31l-5,4.79a42.22,42.22,0,0,1-3.42,3.27,3.94,3.94,0,0,1-5.89-5A2.78,2.78,0,0,1,274.57,285.13Z"/><path class="cls-12" d="M275.32,286.36c.85-.79,25.27-16.61,26.08-17.11-1.28,1.23-21.79,20.22-22.59,20.84a2.59,2.59,0,0,1-4.14-1.7,2.55,2.55,0,0,1,.4-1.74A2.26,2.26,0,0,1,275.32,286.36Z"/><path class="cls-13" d="M278.29,290s-2.34.8-2.43-1.12"/></g><g class="cls-10"><path class="cls-14" d="M1.05,241.87a12.19,12.19,0,0,1,2-1.28l2.42-1.49,4.84-3,4.21-2.58c4.6-2.83,88.22-65.71,89.46-66.47-2,1.88-85.43,68.74-89.24,72.42l-5,4.78a43.94,43.94,0,0,1-3.41,3.28,3.94,3.94,0,0,1-5.9-5A2.58,2.58,0,0,1,1.05,241.87Z"/><path class="cls-15" d="M1.8,243.1c.85-.79,91.61-67.73,92.42-68.22-1.28,1.23-88.13,71.33-88.93,72a2.6,2.6,0,0,1-4.14-1.71,2.55,2.55,0,0,1,.4-1.74A2.18,2.18,0,0,1,1.8,243.1Z"/><path class="cls-16" d="M4.77,246.74s-2.34.8-2.43-1.13"/></g></g></g></g></g></svg>