<svg xmlns="http://www.w3.org/2000/svg" xmlns:xlink="http://www.w3.org/1999/xlink" viewBox="0 0 404.35 404.35"><defs><style>.cls-1{isolation:isolate;}.cls-2{fill:url(#radial-gradient);}.cls-3{fill:url(#radial-gradient-2);}.cls-4,.cls-6,.cls-60,.cls-7,.cls-8,.cls-9{mix-blend-mode:screen;}.cls-4{fill:url(#radial-gradient-3);}.cls-5{opacity:0.7;}.cls-6{fill:url(#radial-gradient-4);}.cls-7{fill:url(#radial-gradient-5);}.cls-8{fill:url(#radial-gradient-6);}.cls-9{fill:url(#radial-gradient-7);}.cls-10,.cls-11,.cls-12,.cls-13,.cls-14,.cls-15,.cls-16,.cls-17,.cls-18,.cls-19,.cls-20,.cls-21,.cls-22,.cls-23,.cls-24,.cls-25,.cls-26,.cls-27,.cls-28,.cls-29,.cls-30,.cls-31,.cls-32,.cls-33,.cls-34,.cls-35,.cls-36,.cls-37,.cls-38,.cls-39,.cls-40,.cls-41,.cls-42,.cls-43,.cls-44,.cls-45,.cls-46,.cls-47,.cls-48,.cls-49,.cls-50,.cls-51,.cls-52,.cls-53,.cls-54,.cls-55,.cls-56,.cls-57,.cls-58,.cls-59,.cls-60{opacity:0.5;}.cls-10,.cls-11,.cls-12,.cls-13,.cls-14,.cls-15,.cls-16,.cls-17,.cls-18,.cls-19,.cls-20,.cls-21,.cls-22,.cls-23,.cls-24,.cls-25,.cls-26,.cls-27,.cls-28,.cls-29,.cls-30,.cls-31,.cls-32,.cls-33,.cls-34,.cls-35,.cls-36,.cls-37,.cls-38,.cls-39,.cls-40,.cls-41,.cls-42,.cls-43,.cls-44,.cls-45,.cls-46,.cls-47,.cls-48,.cls-49,.cls-50,.cls-51,.cls-52,.cls-53,.cls-54,.cls-55,.cls-56,.cls-57,.cls-58,.cls-59{mix-blend-mode:multiply;}.cls-10{fill:url(#radial-gradient-8);}.cls-11{fill:url(#radial-gradient-9);}.cls-12{fill:url(#radial-gradient-10);}.cls-13{fill:url(#radial-gradient-11);}.cls-14{fill:url(#radial-gradient-12);}.cls-15{fill:url(#radial-gradient-13);}.cls-16{fill:url(#radial-gradient-14);}.cls-17{fill:url(#radial-gradient-15);}.cls-18{fill:url(#radial-gradient-16);}.cls-19{fill:url(#radial-gradient-17);}.cls-20{fill:url(#radial-gradient-18);}.cls-21{fill:url(#radial-gradient-19);}.cls-22{fill:url(#radial-gradient-20);}.cls-23{fill:url(#radial-gradient-21);}.cls-24{fill:url(#radial-gradient-22);}.cls-25{fill:url(#radial-gradient-23);}.cls-26{fill:url(#radial-gradient-24);}.cls-27{fill:url(#radial-gradient-25);}.cls-28{fill:url(#radial-gradient-26);}.cls-29{fill:url(#radial-gradient-27);}.cls-30{fill:url(#radial-gradient-28);}.cls-31{fill:url(#radial-gradient-29);}.cls-32{fill:url(#radial-gradient-30);}.cls-33{fill:url(#radial-gradient-31);}.cls-34{fill:url(#radial-gradient-32);}.cls-35{fill:url(#radial-gradient-33);}.cls-36{fill:url(#radial-gradient-34);}.cls-37{fill:url(#radial-gradient-35);}.cls-38{fill:url(#radial-gradient-36);}.cls-39{fill:url(#radial-gradient-37);}.cls-40{fill:url(#radial-gradient-38);}.cls-41{fill:url(#radial-gradient-39);}.cls-42{fill:url(#radial-gradient-40);}.cls-43{fill:url(#radial-gradient-41);}.cls-44{fill:url(#radial-gradient-42);}.cls-45{fill:url(#radial-gradient-43);}.cls-46{fill:url(#radial-gradient-44);}.cls-47{fill:url(#radial-gradient-45);}.cls-48{fill:url(#radial-gradient-46);}.cls-49{fill:url(#radial-gradient-47);}.cls-50{fill:url(#radial-gradient-48);}.cls-51{fill:url(#radial-gradient-49);}.cls-52{fill:url(#radial-gradient-50);}.cls-53{fill:url(#radial-gradient-51);}.cls-54{fill:url(#radial-gradient-52);}.cls-55{fill:url(#radial-gradient-53);}.cls-56{fill:url(#radial-gradient-54);}.cls-57{fill:url(#radial-gradient-55);}.cls-58{fill:url(#radial-gradient-56);}.cls-59{fill:url(#radial-gradient-57);}.cls-60{fill:url(#radial-gradient-58);}</style><radialGradient id="radial-gradient" cx="219.46" cy="202.92" r="204.39" gradientTransform="translate(232.7 -97.18) rotate(53.18)" gradientUnits="userSpaceOnUse"><stop offset="0" stop-color="#f20074"/><stop offset="0.38" stop-color="#f10174" stop-opacity="0.99"/><stop offset="0.51" stop-color="#ed0376" stop-opacity="0.96"/><stop offset="0.61" stop-color="#e70679" stop-opacity="0.92"/><stop offset="0.69" stop-color="#df0b7d" stop-opacity="0.85"/><stop offset="0.75" stop-color="#d31182" stop-opacity="0.75"/><stop offset="0.81" stop-color="#c51988" stop-opacity="0.64"/><stop offset="0.87" stop-color="#b42290" stop-opacity="0.51"/><stop offset="0.92" stop-color="#a02d98" stop-opacity="0.35"/><stop offset="0.96" stop-color="#8b39a2" stop-opacity="0.18"/><stop offset="1" stop-color="#7446ac" stop-opacity="0"/></radialGradient><radialGradient id="radial-gradient-2" cx="238.61" cy="45.41" r="356.35" gradientTransform="translate(232.7 -97.18) rotate(53.18)" gradientUnits="userSpaceOnUse"><stop offset="0" stop-color="#f20074"/><stop offset="0.14" stop-color="#ed0376"/><stop offset="0.31" stop-color="#df0b7d"/><stop offset="0.49" stop-color="#c71887"/><stop offset="0.67" stop-color="#a62a96"/><stop offset="0.87" stop-color="#7b42a9"/><stop offset="0.9" stop-color="#7446ac"/></radialGradient><radialGradient id="radial-gradient-3" cx="125.69" cy="40.2" r="338.84" gradientTransform="matrix(1.24, 0.54, -0.47, 1.09, 23.45, -289.17)" gradientUnits="userSpaceOnUse"><stop offset="0.05" stop-color="#e0a326"/><stop offset="0.41" stop-color="#e0a227" stop-opacity="0.99"/><stop offset="0.55" stop-color="#df9e2b" stop-opacity="0.96"/><stop offset="0.64" stop-color="#de9833" stop-opacity="0.91"/><stop offset="0.71" stop-color="#dd8f3e" stop-opacity="0.83"/><stop offset="0.78" stop-color="#db844c" stop-opacity="0.73"/><stop offset="0.84" stop-color="#d8755d" stop-opacity="0.61"/><stop offset="0.89" stop-color="#d56471" stop-opacity="0.47"/><stop offset="0.93" stop-color="#d25089" stop-opacity="0.3"/><stop offset="0.98" stop-color="#ce3ba3" stop-opacity="0.12"/><stop offset="1" stop-color="#cc2db4" stop-opacity="0"/></radialGradient><radialGradient id="radial-gradient-4" cx="234.3" cy="47.26" r="265.14" gradientTransform="matrix(0.99, 0.14, -0.14, 0.99, 12.09, -31.09)" xlink:href="#radial-gradient-3"/><radialGradient id="radial-gradient-5" cx="234.3" cy="47.26" r="265.14" gradientTransform="matrix(0.99, 0.14, -0.14, 0.99, 12.09, -31.09)" xlink:href="#radial-gradient-3"/><radialGradient id="radial-gradient-6" cx="234.31" cy="47.26" r="265.14" gradientTransform="matrix(0.99, 0.14, -0.14, 0.99, 12.09, -31.09)" xlink:href="#radial-gradient-3"/><radialGradient id="radial-gradient-7" cx="234.3" cy="47.26" r="265.14" gradientTransform="matrix(0.99, 0.14, -0.14, 0.99, 12.09, -31.09)" xlink:href="#radial-gradient-3"/><radialGradient id="radial-gradient-8" cx="238.31" cy="94.05" r="311.91" gradientTransform="matrix(0.99, 0.14, -0.14, 0.99, 12.09, -31.09)" xlink:href="#radial-gradient-2"/><radialGradient id="radial-gradient-9" cx="236.18" cy="189.66" r="229.29" gradientTransform="matrix(0.99, 0.14, -0.14, 0.99, 12.09, -31.09)" xlink:href="#radial-gradient-2"/><radialGradient id="radial-gradient-10" cx="206.75" cy="13.22" r="79.42" gradientTransform="matrix(0, 1, -1, 0, 285.63, -177.57)" xlink:href="#radial-gradient-2"/><radialGradient id="radial-gradient-11" cx="206.75" cy="13.22" r="79.42" gradientTransform="matrix(0.99, 0.14, -0.14, 0.99, 12.09, -31.09)" xlink:href="#radial-gradient-2"/><radialGradient id="radial-gradient-12" cx="189.45" cy="-249.6" r="79.41" gradientTransform="matrix(-0.33, 0.94, -0.94, -0.33, 220.65, -15.92)" xlink:href="#radial-gradient-2"/><radialGradient id="radial-gradient-13" cx="189.45" cy="-249.6" r="79.41" gradientTransform="matrix(-0.33, 0.94, -0.94, -0.33, 220.65, -15.92)" xlink:href="#radial-gradient-2"/><radialGradient id="radial-gradient-14" cx="-16.09" cy="-138.22" r="79.41" gradientTransform="matrix(0, -1, 1, 0, 294.96, 334.28)" xlink:href="#radial-gradient-2"/><radialGradient id="radial-gradient-15" cx="-16.09" cy="-138.22" r="79.41" gradientTransform="matrix(-1, -0.08, 0.08, -1, 211.98, 227.82)" xlink:href="#radial-gradient-2"/><radialGradient id="radial-gradient-16" cx="-42.12" cy="45.41" r="95.23" gradientTransform="matrix(0, -1, 1.77, 0, -20.4, 229.73)" xlink:href="#radial-gradient-2"/><radialGradient id="radial-gradient-17" cx="146.29" cy="169.79" r="121.21" gradientTransform="matrix(0.99, 0.14, -0.14, 0.99, 12.09, -31.09)" xlink:href="#radial-gradient-2"/><radialGradient id="radial-gradient-18" cx="275.78" cy="181.3" r="61.29" gradientTransform="matrix(0.93, 0.37, -0.65, 1.64, 87.56, -337.52)" xlink:href="#radial-gradient-2"/><radialGradient id="radial-gradient-19" cx="15.41" cy="-146.46" r="78.02" gradientTransform="translate(232.64 21.14) rotate(167.89)" xlink:href="#radial-gradient-2"/><radialGradient id="radial-gradient-20" cx="92.25" cy="40.84" r="76.92" gradientTransform="matrix(-1, 0, 0, -1.77, 383.91, 396.07)" xlink:href="#radial-gradient-2"/><radialGradient id="radial-gradient-21" cx="31.46" cy="133.63" r="97.91" gradientTransform="matrix(0.43, -0.9, 0.9, 0.43, 65.95, 215.93)" xlink:href="#radial-gradient-2"/><radialGradient id="radial-gradient-22" cx="149.14" cy="250.54" r="62.61" gradientTransform="translate(-207.9 25.26) rotate(-45.6)" xlink:href="#radial-gradient-2"/><radialGradient id="radial-gradient-23" cx="149.14" cy="250.54" r="62.61" gradientTransform="translate(-207.9 25.26) rotate(-45.6)" xlink:href="#radial-gradient-2"/><radialGradient id="radial-gradient-24" cx="0.16" cy="75.16" r="79.42" gradientTransform="matrix(-0.38, -0.93, 0.93, -0.38, -38.89, 328.07)" xlink:href="#radial-gradient-2"/><radialGradient id="radial-gradient-25" cx="0.16" cy="75.16" r="79.42" gradientTransform="matrix(-0.38, -0.93, 0.93, -0.38, -38.89, 328.07)" xlink:href="#radial-gradient-2"/><radialGradient id="radial-gradient-26" cx="272.7" cy="-69.95" r="44.95" gradientTransform="matrix(0, 1, -1, 0, 256.07, -206.59)" xlink:href="#radial-gradient-2"/><radialGradient id="radial-gradient-27" cx="272.7" cy="-69.95" r="44.95" gradientTransform="translate(49.03 -59.32) rotate(38.12)" xlink:href="#radial-gradient-2"/><radialGradient id="radial-gradient-28" cx="16.73" cy="-144.7" r="44.95" gradientTransform="translate(247.78 237.89) rotate(174.11)" xlink:href="#radial-gradient-2"/><radialGradient id="radial-gradient-29" cx="16.73" cy="-144.7" r="44.95" gradientTransform="translate(247.78 237.89) rotate(174.11)" xlink:href="#radial-gradient-2"/><radialGradient id="radial-gradient-30" cx="-139.27" cy="164.75" r="44.95" gradientTransform="translate(-131.79 45.93) rotate(-84.66)" xlink:href="#radial-gradient-2"/><radialGradient id="radial-gradient-31" cx="-139.27" cy="164.75" r="44.95" gradientTransform="translate(-131.79 45.93) rotate(-84.66)" xlink:href="#radial-gradient-2"/><radialGradient id="radial-gradient-32" cx="-267.99" cy="-23.56" r="44.96" gradientTransform="matrix(-0.93, -0.36, 0.36, -0.93, -90.21, 261.65)" xlink:href="#radial-gradient-2"/><radialGradient id="radial-gradient-33" cx="-267.99" cy="-23.56" r="44.96" gradientTransform="matrix(-0.93, -0.36, 0.36, -0.93, -90.21, 261.65)" xlink:href="#radial-gradient-2"/><radialGradient id="radial-gradient-34" cx="321.34" cy="-180.49" r="34.5" gradientTransform="translate(135.97 -94.25) rotate(77.29)" xlink:href="#radial-gradient-2"/><radialGradient id="radial-gradient-35" cx="321.34" cy="-180.49" r="34.5" gradientTransform="translate(135.97 -94.25) rotate(77.29)" xlink:href="#radial-gradient-2"/><radialGradient id="radial-gradient-36" cx="174.84" cy="-227.88" r="34.5" gradientTransform="matrix(-0.74, 0.67, -0.67, -0.74, 314.2, 36.33)" xlink:href="#radial-gradient-2"/><radialGradient id="radial-gradient-37" cx="174.84" cy="-227.88" r="34.5" gradientTransform="matrix(-0.74, 0.67, -0.67, -0.74, 314.2, 36.33)" xlink:href="#radial-gradient-2"/><radialGradient id="radial-gradient-38" cx="178.34" cy="217.31" r="23.51" gradientTransform="translate(-126.81 435.2) rotate(-99.87)" xlink:href="#radial-gradient-2"/><radialGradient id="radial-gradient-39" cx="178.34" cy="217.31" r="23.51" gradientTransform="translate(-126.81 435.2) rotate(-99.87)" xlink:href="#radial-gradient-2"/><radialGradient id="radial-gradient-40" cx="452.3" cy="302.92" r="23.51" gradientTransform="matrix(0.91, -0.42, 0.73, 1.58, -473.97, -177.07)" xlink:href="#radial-gradient-2"/><radialGradient id="radial-gradient-41" cx="452.3" cy="302.92" r="23.51" gradientTransform="matrix(0.91, -0.42, 0.73, 1.58, -473.97, -177.07)" xlink:href="#radial-gradient-2"/><radialGradient id="radial-gradient-42" cx="584.15" cy="238.3" r="23.51" gradientTransform="translate(-117.76 -421.47) rotate(29.86)" xlink:href="#radial-gradient-2"/><radialGradient id="radial-gradient-43" cx="584.15" cy="238.3" r="23.51" gradientTransform="translate(-117.76 -421.47) rotate(29.86)" xlink:href="#radial-gradient-2"/><radialGradient id="radial-gradient-44" cx="505.08" cy="131.4" r="18.71" gradientTransform="matrix(-0.42, 0.91, -1.49, -0.69, 744.96, -137.31)" xlink:href="#radial-gradient-2"/><radialGradient id="radial-gradient-45" cx="505.08" cy="131.4" r="18.71" gradientTransform="matrix(-0.42, 0.91, -1.49, -0.69, 744.96, -137.31)" xlink:href="#radial-gradient-2"/><radialGradient id="radial-gradient-46" cx="53.51" cy="156.49" r="44.95" gradientTransform="matrix(0.86, -0.51, 0.51, 0.86, -27.55, -62.09)" xlink:href="#radial-gradient-2"/><radialGradient id="radial-gradient-47" cx="53.51" cy="156.49" r="44.95" gradientTransform="matrix(0.86, -0.51, 0.51, 0.86, -27.55, -62.09)" xlink:href="#radial-gradient-2"/><radialGradient id="radial-gradient-48" cx="177.98" cy="368.54" r="104.18" gradientTransform="matrix(0.93, -0.37, 0.3, 0.77, -44.17, 47.68)" xlink:href="#radial-gradient-2"/><radialGradient id="radial-gradient-49" cx="177.98" cy="368.54" r="104.17" gradientTransform="matrix(0.93, -0.37, 0.3, 0.77, -44.17, 47.68)" xlink:href="#radial-gradient-2"/><radialGradient id="radial-gradient-50" cx="166.89" cy="-56.57" r="116.2" gradientTransform="matrix(0.32, 0.95, -0.79, 0.26, 58.76, 80.28)" xlink:href="#radial-gradient-2"/><radialGradient id="radial-gradient-51" cx="187.03" cy="-24.35" r="70.24" gradientTransform="matrix(0.32, 0.95, -0.79, 0.26, 58.76, 80.28)" xlink:href="#radial-gradient-2"/><radialGradient id="radial-gradient-52" cx="80.25" cy="-68.56" r="57.19" gradientTransform="matrix(-0.02, 1, -0.83, -0.02, 42.1, 108.13)" xlink:href="#radial-gradient-2"/><radialGradient id="radial-gradient-53" cx="66.15" cy="-440.15" r="83.23" gradientTransform="matrix(-0.02, 1, -0.83, -0.02, 42.1, 108.13)" xlink:href="#radial-gradient-2"/><radialGradient id="radial-gradient-54" cx="83.1" cy="-412.33" r="54.51" gradientTransform="matrix(-0.02, 1, -0.83, -0.02, 42.1, 108.13)" xlink:href="#radial-gradient-2"/><radialGradient id="radial-gradient-55" cx="229.08" cy="101.3" r="104.17" gradientTransform="matrix(0.69, 0.73, -0.6, 0.57, 50.95, 49.34)" xlink:href="#radial-gradient-2"/><radialGradient id="radial-gradient-56" cx="229.08" cy="101.3" r="104.17" gradientTransform="matrix(0.69, 0.73, -0.6, 0.57, 50.95, 49.34)" xlink:href="#radial-gradient-2"/><radialGradient id="radial-gradient-57" cx="191.83" cy="101.71" r="104.17" gradientTransform="matrix(0.69, 0.73, -0.6, 0.57, 50.95, 49.34)" xlink:href="#radial-gradient-2"/><radialGradient id="radial-gradient-58" cx="201.32" cy="-19.9" r="302.71" gradientTransform="matrix(0.99, 0.14, -0.14, 0.99, 12.09, -31.09)" xlink:href="#radial-gradient-3"/></defs><g class="cls-1"><g id="Layer_2" data-name="Layer 2"><g id="Capa_1" data-name="Capa 1"><circle class="cls-2" cx="202.17" cy="202.17" r="202.15" transform="translate(-83.74 202.17) rotate(-45)"/><circle class="cls-3" cx="202.17" cy="202.17" r="180.99" transform="translate(-83.74 202.17) rotate(-45)"/><path class="cls-4" d="M67.25,159.61C61.39,143.1,67,121.37,74,107.18,89,77.13,119.27,58.34,149.64,46.71c94.94-36.38,182.8,38.19,185.47,78s-39,54.69-89.82,34.71-98.87,32.75-135.23,27.71c-13.87-1.92-27.78-6.28-37.17-17.49A32.1,32.1,0,0,1,67.25,159.61Z"/><g class="cls-5"><path class="cls-6" d="M106.84,101.93a362,362,0,0,1-4.9-39.5,171.19,171.19,0,0,0-60.8,196.38,171.26,171.26,0,0,1,65.7-156.88Z"/><path class="cls-7" d="M314.69,72.06A171.11,171.11,0,0,0,112,55.67a342.08,342.08,0,0,0,4.27,39.5,171.15,171.15,0,0,1,198.62,6.55A179,179,0,0,0,314.69,72.06Z"/><path class="cls-8" d="M352.47,141.49a181.6,181.6,0,0,0,1.69-19.1,172.2,172.2,0,0,0-31.23-42.62,203.51,203.51,0,0,1-.85,27.77A172.37,172.37,0,0,1,352.47,141.49Z"/><path class="cls-9" d="M358.64,151.24A171.16,171.16,0,0,1,372.1,180a169.87,169.87,0,0,0-11.3-43.22C360.26,141.59,359.53,146.43,358.64,151.24Z"/></g><path class="cls-10" d="M341.18,91.9a144.92,144.92,0,1,1-285.1,10c0-.31.1-.6.15-.91a177.78,177.78,0,1,0,285-9.08Z"/><path class="cls-11" d="M373.21,199.94c0,.25-.06.51-.1.76C359.19,297.48,271.78,365,177.86,351.48c-86.94-12.49-149-90-146.68-178.23-13.44,96.47,51.31,185.42,145,198.88,93.92,13.51,181.34-54,195.26-150.78A186,186,0,0,0,373.21,199.94Z"/><ellipse class="cls-12" cx="233.38" cy="53.51" rx="20.22" ry="42.54" transform="translate(147.2 276.9) rotate(-81.82)"/><path class="cls-13" d="M193.83,56.24c5.61,7.89,19.61,14.83,36.68,17.28,18.91,2.72,35.76-.9,42.25-8.3-5.61-7.89-19.6-14.83-36.67-17.28C217.17,45.22,200.32,48.85,193.83,56.24Z"/><path class="cls-14" d="M334,295.85c-10.53-3.71-12.73-24.68-4.92-46.84s22.69-37.11,33.22-33.4,12.73,24.69,4.91,46.85S344.51,299.57,334,295.85Z"/><path class="cls-15" d="M353.17,216.41c-8.83,4-18.37,16.34-24.11,32.6-6.35,18-6.08,35.26-.1,43.06,8.84-4,18.37-16.33,24.11-32.6C359.43,241.45,359.16,224.21,353.17,216.41Z"/><ellipse class="cls-16" cx="195.76" cy="326.03" rx="20.22" ry="42.54" transform="translate(-144.98 494.89) rotate(-85.38)"/><path class="cls-17" d="M235.07,320.85c-6.1-7.52-20.49-13.58-37.68-15-19-1.54-35.65,3.13-41.66,10.91,6.09,7.53,20.49,13.58,37.68,15C212.46,333.3,229.05,328.64,235.07,320.85Z"/><ellipse class="cls-18" cx="142.61" cy="242.66" rx="42.85" ry="51.01" transform="translate(-133.2 186.52) rotate(-48.05)"/><path class="cls-19" d="M171.25,210.79c-18.9-17-45-19.46-61.55-6.86-10.71,17.79-5.47,43.43,13.41,60.4s45,19.45,61.55,6.86C195.37,253.4,190.13,227.75,171.25,210.79Z"/><path class="cls-20" d="M253.91,130.65c-5.62,14.16-23.84,20.21-40.69,13.52s-26-23.59-20.34-37.75,23.84-20.21,40.69-13.52S259.53,116.5,253.91,130.65Z"/><path class="cls-21" d="M213.22,144.17c15.2,6,31.51,1.7,38.69-9.6,2.49-13.13-6.4-27.44-21.58-33.47s-31.51-1.7-38.69,9.6C189.15,123.83,198,138.14,213.22,144.17Z"/><ellipse class="cls-22" cx="268.08" cy="257.05" rx="41.21" ry="34.61" transform="translate(-94.05 174.56) rotate(-30.96)"/><path class="cls-23" d="M250.28,227.37c-17.61,10.56-25.71,30.13-19.91,45.89,11.19,12.49,32.24,14.53,49.82,4s25.7-30.13,19.9-45.9C288.9,218.86,267.85,216.82,250.28,227.37Z"/><path class="cls-24" d="M134.33,77.84c6.29,6.15.88,21.87-12.08,35.11s-28.56,19-34.85,12.81-.88-21.88,12.08-35.11S128,71.68,134.33,77.84Z"/><path class="cls-25" d="M94.18,128.22c7.63.11,18.56-5.56,28.07-15.27,10.54-10.77,16.08-23.18,14.4-30.75-7.63-.1-18.56,5.57-28.07,15.28C98,108.25,92.5,120.65,94.18,128.22Z"/><path class="cls-26" d="M41.29,222.69c10.33-4.24,25.93,9.95,34.86,31.68s7.78,42.8-2.55,47-25.93-10-34.86-31.68S31,226.93,41.29,222.69Z"/><path class="cls-27" d="M79.87,294.75c3.95-8.84,2.82-24.42-3.72-40.38-7.26-17.68-18.94-30.36-28.6-32.19-3.95,8.84-2.83,24.42,3.72,40.37C58.53,280.23,70.2,292.91,79.87,294.75Z"/><ellipse class="cls-28" cx="303.95" cy="79.88" rx="11.44" ry="24.08" transform="translate(53.46 269.67) rotate(-51.87)"/><path class="cls-29" d="M283.78,70c.52,5.45,5.42,12.81,13.1,18.84,8.51,6.68,17.8,9.66,23.07,7.87-.52-5.46-5.42-12.82-13.1-18.84C298.34,71.23,289.05,68.24,283.78,70Z"/><path class="cls-30" d="M206.07,365.46c-.65-6.29,9.55-12.49,22.78-13.86s24.48,2.63,25.13,8.91S244.43,373,231.2,374.37,206.72,371.74,206.07,365.46Z"/><path class="cls-31" d="M251.37,356c-4.17-3.55-12.81-5.44-22.52-4.44-10.76,1.11-19.51,5.42-22.06,10.38,4.17,3.55,12.81,5.44,22.52,4.44C240.07,365.31,248.82,361,251.37,356Z"/><path class="cls-32" d="M44.81,164.3c6.29.58,10.39,11.8,9.15,25s-7.34,23.5-13.64,22.91-10.39-11.8-9.15-25S38.52,163.71,44.81,164.3Z"/><path class="cls-33" d="M45.22,210.56c4.3-3.4,7.83-11.5,8.74-21.22,1-10.77-1.51-20.2-5.88-23.66-4.3,3.39-7.83,11.5-8.74,21.22C38.33,197.67,40.85,207.1,45.22,210.56Z"/><path class="cls-34" d="M123.62,346.69c2.3-5.89,14.21-6.74,26.6-1.91s20.57,13.53,18.27,19.42-14.21,6.74-26.6,1.9S121.32,352.57,123.62,346.69Z"/><path class="cls-35" d="M168.21,359c-2.08-5.07-8.9-10.7-18-14.25-10.08-3.93-19.84-4.1-24.37-.86,2.08,5.07,8.9,10.7,18,14.25C153.92,362.1,163.68,362.27,168.21,359Z"/><path class="cls-36" d="M372.58,211.58c-4.73,1.07-10.39-6.14-12.63-16.1s-.23-18.89,4.5-19.95,10.39,6.14,12.63,16.09S377.31,210.51,372.58,211.58Z"/><path class="cls-37" d="M361.28,177.92c-2.33,3.5-3,10.26-1.33,17.56,1.82,8.1,5.91,14.38,9.91,15.87,2.33-3.5,3-10.26,1.34-17.56C369.37,185.69,365.29,179.41,361.28,177.92Z"/><path class="cls-38" d="M305,329.56c-3.26-3.6.22-12.07,7.78-18.93s16.33-9.51,19.58-5.91-.22,12.06-7.78,18.92S308.24,333.15,305,329.56Z"/><path class="cls-39" d="M328.7,303.14c-4.2-.3-10.39,2.46-15.94,7.49-6.15,5.58-9.6,12.23-8.92,16.45,4.19.3,10.39-2.46,15.94-7.5C325.93,314,329.38,307.36,328.7,303.14Z"/><path class="cls-40" d="M64.7,200.77c3.26-.57,6.87,4.53,8.06,11.38S72.28,225,69,225.58s-6.86-4.53-8-11.38S61.45,201.33,64.7,200.77Z"/><path class="cls-41" d="M71.26,224.06c1.7-2.31,2.37-6.88,1.5-11.91-1-5.58-3.54-10-6.22-11.13-1.7,2.3-2.37,6.87-1.5,11.9C66,218.5,68.58,222.91,71.26,224.06Z"/><path class="cls-42" d="M183.63,120.88c2.41,5.21-.76,11.8-7.08,14.72s-13.38,1.05-15.79-4.16.76-11.8,7.08-14.72S181.22,115.66,183.63,120.88Z"/><path class="cls-43" d="M163.57,134.86c3.31,2.44,8.35,2.88,13,.74,5.14-2.38,8.19-7.18,7.86-11.69-3.31-2.45-8.35-2.88-13-.74C166.29,125.54,163.24,130.34,163.57,134.86Z"/><path class="cls-44" d="M281.64,95.94c-1.64,2.87-7.87,2.38-13.9-1.08s-9.59-8.6-7.94-11.46,7.87-2.39,13.9,1.08S283.29,93.07,281.64,95.94Z"/><path class="cls-45" d="M259.54,86.09c.68,2.79,3.77,6.23,8.2,8.77,4.91,2.82,9.94,3.66,12.53,2.34-.68-2.79-3.77-6.23-8.2-8.77C267.17,85.61,262.13,84.77,259.54,86.09Z"/><path class="cls-46" d="M317.22,238.69c-3.91-1.81-5.19-7.35-2.87-12.38s7.38-7.62,11.29-5.81,5.2,7.34,2.87,12.37S321.13,240.5,317.22,238.69Z"/><path class="cls-47" d="M322.35,220c-3.12.3-6.29,2.68-8,6.36-1.89,4.09-1.39,8.52,1,11,3.11-.29,6.29-2.67,8-6.36C325.2,226.86,324.71,222.44,322.35,220Z"/><path class="cls-48" d="M141.55,45.83c3.19,5.46-3.52,15.33-15,22s-23.37,7.75-26.57,2.3,3.52-15.33,15-22.05S138.36,40.38,141.55,45.83Z"/><path class="cls-49" d="M104.22,73.16c5.27,1.51,13.91-.35,22.34-5.28,9.33-5.47,15.51-13,15.78-18.58-5.27-1.51-13.91.35-22.34,5.28C110.67,60.05,104.49,67.6,104.22,73.16Z"/><path class="cls-50" d="M271,326.42c1,2.62-1.88,6.22-6.51,8s-9.21,1.18-10.24-1.44,1.88-6.23,6.5-8S270,323.8,271,326.42Z"/><path class="cls-51" d="M281.64,313.59c.63,1.59-1.15,3.78-4,4.89s-5.6.71-6.23-.88,1.14-3.79,4-4.89S281,312,281.64,313.59Z"/><path class="cls-52" d="M88.54,261.73c-3,1-6.83-2.45-8.59-7.71s-.78-10.32,2.2-11.32,6.82,2.45,8.59,7.71S91.52,260.73,88.54,261.73Z"/><path class="cls-53" d="M96.4,274.24c-1.8.6-4.12-1.48-5.19-4.66s-.47-6.24,1.33-6.85,4.13,1.48,5.19,4.66S98.2,273.64,96.4,274.24Z"/><path class="cls-54" d="M59.38,196c-1.54,0-2.75-2.28-2.68-5s1.37-4.91,2.91-4.87,2.75,2.28,2.69,5S60.93,196,59.38,196Z"/><path class="cls-55" d="M351.22,192c-2.25,0-4-3.31-3.91-7.29s2-7.14,4.24-7.09,4,3.31,3.91,7.28S353.47,192,351.22,192Z"/><path class="cls-56" d="M346.69,205.19c-1.47,0-2.62-2.17-2.56-4.77s1.31-4.69,2.78-4.65,2.62,2.17,2.56,4.77S348.16,205.22,346.69,205.19Z"/><path class="cls-57" d="M105.85,330.35c-2,1.94-6.48.57-9.89-3.05s-4.51-8.12-2.46-10.05,6.48-.56,9.89,3.05S107.9,328.42,105.85,330.35Z"/><path class="cls-58" d="M121.71,335.46c-1.25,1.17-3.94.34-6-1.86s-2.74-4.94-1.5-6.11,3.94-.34,6,1.86S123,334.28,121.71,335.46Z"/><path class="cls-59" d="M95.92,308.58c-1.25,1.17-3.94.34-6-1.86s-2.74-4.94-1.49-6.11,3.94-.35,6,1.86S97.16,307.4,95.92,308.58Z"/><path class="cls-60" d="M153,55.24c-.56-2.76,2.93-5.81,7.79-6.81s9.28.43,9.85,3.19-2.92,5.8-7.79,6.8S153.58,58,153,55.24ZM146.33,68c3-.6,5.08-2.46,4.73-4.14s-3-2.54-6-1.93-5.09,2.46-4.74,4.14S143.36,68.6,146.33,68Zm36.42-7.83c3-.61,5.08-2.46,4.74-4.14s-3-2.54-6-1.94-5.08,2.47-4.74,4.14S179.79,60.77,182.75,60.16Zm116.93,48.15c1.18-2.56,5.79-3,10.31-.87s7.22,5.84,6.05,8.39-5.8,3-10.31.88S298.5,110.87,299.68,108.31Zm21.05,21.58c2.74,1.26,5.55,1,6.27-.53s-.93-3.85-3.68-5.11-5.56-1-6.27.53S318,128.62,320.73,129.89Z"/></g></g></g></svg>