<svg xmlns="http://www.w3.org/2000/svg" xmlns:xlink="http://www.w3.org/1999/xlink" viewBox="0 0 139.6 81.93"><defs><style>.cls-1{isolation:isolate;}.cls-2{opacity:0.58;mix-blend-mode:multiply;fill:url(#linear-gradient);}</style><linearGradient id="linear-gradient" x1="77.27" y1="-36.25" x2="66.33" y2="90.44" gradientUnits="userSpaceOnUse"><stop offset="0.19" stop-color="#772a1a"/><stop offset="0.9" stop-color="#22002b" stop-opacity="0"/></linearGradient></defs><g class="cls-1"><g id="Layer_2" data-name="Layer 2"><g id="Capa_1" data-name="Capa 1"><path class="cls-2" d="M60.47,2.19c.59.31,1.17.63,1.73,1h0c.54.31,1,.62,1.56.94l.29.2c.41.26.8.52,1.19.79l.38.27,1,.74.41.31.9.72.4.34.83.72.38.34.76.73.36.34.72.75.31.33.7.78c.09.09.17.19.26.29.24.28.47.57.7.85l.18.22c.27.34.52.68.77,1l0,.06a33.65,33.65,0,0,1,2.09,3.22,1.62,1.62,0,0,1,.1.18c.16.28.32.56.46.84l.13.25c.13.25.26.5.38.75a2.39,2.39,0,0,1,.13.28c.12.23.22.46.32.69l.12.25a6,6,0,0,1,.68.37,2.27,2.27,0,0,1,.28.21,2,2,0,0,1,.38.41l.1.19a.72.72,0,0,1,0,.34.48.48,0,0,1-.58.44l-.14-.05h0l.21.57a2.25,2.25,0,0,0,.08.24c.07.21.13.41.19.6a1.72,1.72,0,0,1,.07.21q.09.31.18.6c0,.06,0,.11,0,.16.06.22.12.44.17.65l0,.06c.11.46.21.88.28,1.26a.43.43,0,0,1,0,.11c0,.14.06.28.08.41l0,.19c0,.09,0,.18,0,.26l0,.21a1,1,0,0,0,0,.17l0,.21v.08c0,.09,0,.16,0,.22h0c0,.18,0,.29,0,.29a34.69,34.69,0,0,0,11.7-4.26l1.08.47.41.18.37-.2c.27-.15.59-.31.93-.48s.71-.34,1.09-.51a17,17,0,0,1,1.73-.63L86.49.92l2,.46L99.59,22.94a5.09,5.09,0,0,1,.55,0,5.48,5.48,0,0,1,.61.06l.22,0,.26.06.51.16h0a2.44,2.44,0,0,1,1.58,1.67s0,0,0,0a2,2,0,0,1,0,.84h0a1.68,1.68,0,0,1-.09.32.43.43,0,0,0,0,.07,1.34,1.34,0,0,1-.12.24l-.09.11a1.83,1.83,0,0,1-.13.16,1.09,1.09,0,0,1-.17.13l-.1.09a2.1,2.1,0,0,1-.26.13l-.07,0a2,2,0,0,1-.37.09h0l-.28,0,3.76,7.8a55.27,55.27,0,0,1,15,.37c9.29,1.29,13.1-4.07,13.1-4.07,2.76,2.18,3.82,6.34,5.62,10.1.16.35.33.69.51,1a7.84,7.84,0,0,1-.71.4c-.15.08-.33.17-.54.26l-.68.32-.82.34c-.29.12-.61.24-.95.36a30.39,30.39,0,0,1-9.9,1.69,32.19,32.19,0,0,1-3.72-.22,54.31,54.31,0,0,0-6.49-.4c-.43,0-.85,0-1.24,0a22.27,22.27,0,0,0-3.62.4,7.47,7.47,0,0,0-2.14.67h0l-5.4-10.91.11,0L100,28.09a73.21,73.21,0,0,1-17.63,8.37q-2,.65-4,1.2c.43.14.14.33-.4.49l.27.16a1.65,1.65,0,0,1,.68.72.13.13,0,0,1,0,.06h0a1,1,0,0,1,0,.3v0a.8.8,0,0,1-.06.3,1.09,1.09,0,0,1-.08.15.93.93,0,0,1,0,.1h0a1.72,1.72,0,0,1-.32.35c11,4.28,18.14,10.86,18.14,18.25,0,12.9-21.62,23.36-48.29,23.36S0,71.47,0,58.57c0-7.39,7.09-14,18.15-18.25a1.79,1.79,0,0,1-.33-.35h0a.3.3,0,0,1,0-.08.81.81,0,0,1-.1-.18,1,1,0,0,1-.05-.24s0,0,0-.08,0-.09,0-.13a.58.58,0,0,1,0-.19h0a2.42,2.42,0,0,1,1.65-1.22,6.89,6.89,0,0,1,2.07-.3h.85c.21,0,.43-.08.64-.14h0l.15,0a26.62,26.62,0,0,1-8.41-4.66c-4.71-4-5-8.21-3.83-11.58a17.61,17.61,0,0,1,4.67-6.89h0L17,14.4a1.34,1.34,0,0,1,.11-.14A5.44,5.44,0,0,1,18.59,13a5.83,5.83,0,0,1,2.93-.76h.27l.38,0h0a9.11,9.11,0,0,1,1.94.26h0l.22.07A47,47,0,0,1,41,2.19h0l.66-1L38.82.23,49.66,0l-.22,2.43h0l.33,9.3L52,2.43h0L51.87,0,62.26.24h.36l-2.81.93.66,1m38.76,29,.75.37-.21-.5Z"/></g></g></g></svg>