<svg xmlns="http://www.w3.org/2000/svg" xmlns:xlink="http://www.w3.org/1999/xlink" viewBox="0 0 139.6 171.82"><defs><style>.cls-1{isolation:isolate;}.cls-2{fill:url(#Degradado_sin_nombre_4);}.cls-12,.cls-15,.cls-21,.cls-26,.cls-3,.cls-31,.cls-35,.cls-38,.cls-45,.cls-46,.cls-47,.cls-9{opacity:0.5;}.cls-12,.cls-15,.cls-21,.cls-26,.cls-3,.cls-31,.cls-35,.cls-38,.cls-41,.cls-42,.cls-45,.cls-46,.cls-47,.cls-9{mix-blend-mode:multiply;}.cls-3{fill:url(#Degradado_sin_nombre_4-2);}.cls-4{fill:url(#Degradado_sin_nombre_4-3);}.cls-5{fill:#959dba;}.cls-6{fill:#fff;}.cls-7{fill:url(#Degradado_sin_nombre_6);}.cls-8{fill:url(#Degradado_sin_nombre_4-4);}.cls-41,.cls-42,.cls-9{fill:#767575;}.cls-10{fill:url(#Degradado_sin_nombre_4-5);}.cls-11{fill:url(#Degradado_sin_nombre_6-2);}.cls-12{fill:url(#Degradado_sin_nombre_5);}.cls-13{fill:#f7f7f7;}.cls-14{fill:url(#Degradado_sin_nombre_2);}.cls-15{fill:#231715;}.cls-16{fill:url(#Degradado_sin_nombre_6-3);}.cls-17{opacity:0.54;}.cls-18{opacity:0.19;}.cls-19{fill:url(#Degradado_sin_nombre_4-6);}.cls-20,.cls-23,.cls-24,.cls-28,.cls-29,.cls-34,.cls-44{mix-blend-mode:screen;}.cls-20{fill:url(#Degradado_sin_nombre_4-7);}.cls-21{fill:url(#Degradado_sin_nombre_4-8);}.cls-22{fill:url(#Degradado_sin_nombre_4-9);}.cls-23,.cls-24{opacity:0.79;}.cls-23{fill:url(#linear-gradient);}.cls-24{fill:url(#linear-gradient-2);}.cls-25{fill:url(#Degradado_sin_nombre_4-10);}.cls-26,.cls-32{fill:#2d2244;}.cls-27{fill:url(#Degradado_sin_nombre_4-11);}.cls-28{fill:url(#Degradado_sin_nombre_4-12);}.cls-29{fill:url(#Degradado_sin_nombre_4-13);}.cls-30{fill:#555050;}.cls-33{fill:url(#Degradado_sin_nombre_4-14);}.cls-34{fill:url(#Degradado_sin_nombre_4-15);}.cls-35{fill:url(#Degradado_sin_nombre_4-16);}.cls-36{fill:url(#Degradado_sin_nombre_4-17);}.cls-37{fill:url(#Degradado_sin_nombre_4-18);}.cls-38{fill:url(#Degradado_sin_nombre_4-19);}.cls-39{fill:url(#Degradado_sin_nombre_4-20);}.cls-40{fill:url(#Degradado_sin_nombre_6-4);}.cls-41{opacity:0.2;}.cls-42{opacity:0.4;}.cls-43{fill:url(#Degradado_sin_nombre_6-5);}.cls-44{fill:#636262;opacity:0.3;}.cls-45{fill:url(#Degradado_sin_nombre_5-2);}.cls-46{fill:url(#Degradado_sin_nombre_5-3);}.cls-47{fill:url(#Degradado_sin_nombre_5-4);}</style><linearGradient id="Degradado_sin_nombre_4" x1="16.32" y1="140.36" x2="25.69" y2="140.36" gradientUnits="userSpaceOnUse"><stop offset="0" stop-color="#34254c"/><stop offset="1" stop-color="#51397f"/></linearGradient><linearGradient id="Degradado_sin_nombre_4-2" x1="20.73" y1="140.06" x2="25.69" y2="140.06" xlink:href="#Degradado_sin_nombre_4"/><linearGradient id="Degradado_sin_nombre_4-3" x1="16.32" y1="140.61" x2="22.17" y2="140.61" xlink:href="#Degradado_sin_nombre_4"/><linearGradient id="Degradado_sin_nombre_6" x1="103.39" y1="92.29" x2="139.6" y2="92.29" gradientUnits="userSpaceOnUse"><stop offset="0" stop-color="#e1dae5"/><stop offset="1" stop-color="#f7f4f9"/></linearGradient><linearGradient id="Degradado_sin_nombre_4-4" x1="92.85" y1="116.46" x2="103.38" y2="116.46" xlink:href="#Degradado_sin_nombre_4"/><linearGradient id="Degradado_sin_nombre_4-5" x1="92.85" y1="114.43" x2="103.39" y2="114.43" xlink:href="#Degradado_sin_nombre_4"/><linearGradient id="Degradado_sin_nombre_6-2" x1="10.23" y1="124.65" x2="100.15" y2="124.65" xlink:href="#Degradado_sin_nombre_6"/><linearGradient id="Degradado_sin_nombre_5" x1="47.43" y1="153.15" x2="53.71" y2="153.15" gradientUnits="userSpaceOnUse"><stop offset="0" stop-color="#c8b8d3" stop-opacity="0.9"/><stop offset="1" stop-color="#c8b8d3" stop-opacity="0.3"/></linearGradient><linearGradient id="Degradado_sin_nombre_2" x1="8.59" y1="49.43" x2="87.99" y2="49.43" gradientUnits="userSpaceOnUse"><stop offset="0" stop-color="#2a246d"/><stop offset="1" stop-color="#04074a"/></linearGradient><linearGradient id="Degradado_sin_nombre_6-3" x1="8.59" y1="37.97" x2="87.99" y2="37.97" xlink:href="#Degradado_sin_nombre_6"/><linearGradient id="Degradado_sin_nombre_4-6" x1="17.61" y1="87.91" x2="78.97" y2="87.91" xlink:href="#Degradado_sin_nombre_4"/><linearGradient id="Degradado_sin_nombre_4-7" x1="17.62" y1="86.34" x2="78.97" y2="86.34" xlink:href="#Degradado_sin_nombre_4"/><linearGradient id="Degradado_sin_nombre_4-8" x1="17.62" y1="89.2" x2="78.97" y2="89.2" xlink:href="#Degradado_sin_nombre_4"/><linearGradient id="Degradado_sin_nombre_4-9" x1="38.82" y1="166.59" x2="49.62" y2="166.59" xlink:href="#Degradado_sin_nombre_4"/><linearGradient id="linear-gradient" x1="55.1" y1="6.62" x2="96.54" y2="48.4" gradientUnits="userSpaceOnUse"><stop offset="0" stop-color="#fff"/><stop offset="1" stop-color="#fff" stop-opacity="0"/></linearGradient><linearGradient id="linear-gradient-2" x1="9.05" y1="35.21" x2="37.39" y2="80.97" xlink:href="#linear-gradient"/><linearGradient id="Degradado_sin_nombre_4-10" x1="68.56" y1="122.18" x2="79.59" y2="122.18" xlink:href="#Degradado_sin_nombre_4"/><linearGradient id="Degradado_sin_nombre_4-11" x1="69.49" y1="96.82" x2="78.56" y2="96.82" xlink:href="#Degradado_sin_nombre_4"/><linearGradient id="Degradado_sin_nombre_4-12" x1="73.98" y1="90.82" x2="78.56" y2="90.82" xlink:href="#Degradado_sin_nombre_4"/><linearGradient id="Degradado_sin_nombre_4-13" x1="76.53" y1="125.8" x2="79.59" y2="125.8" xlink:href="#Degradado_sin_nombre_4"/><linearGradient id="Degradado_sin_nombre_4-14" x1="21.63" y1="96.82" x2="30.7" y2="96.82" xlink:href="#Degradado_sin_nombre_4"/><linearGradient id="Degradado_sin_nombre_4-15" x1="21.63" y1="90.82" x2="26.21" y2="90.82" xlink:href="#Degradado_sin_nombre_4"/><linearGradient id="Degradado_sin_nombre_4-16" x1="45.46" y1="166.48" x2="49.62" y2="166.48" xlink:href="#Degradado_sin_nombre_4"/><linearGradient id="Degradado_sin_nombre_4-17" x1="38.82" y1="166.81" x2="43.22" y2="166.81" xlink:href="#Degradado_sin_nombre_4"/><linearGradient id="Degradado_sin_nombre_4-18" x1="51.82" y1="166.59" x2="62.62" y2="166.59" xlink:href="#Degradado_sin_nombre_4"/><linearGradient id="Degradado_sin_nombre_4-19" x1="51.82" y1="166.47" x2="55.3" y2="166.47" xlink:href="#Degradado_sin_nombre_4"/><linearGradient id="Degradado_sin_nombre_4-20" x1="58.07" y1="166.81" x2="62.62" y2="166.81" xlink:href="#Degradado_sin_nombre_4"/><linearGradient id="Degradado_sin_nombre_6-4" x1="25.69" y1="109.29" x2="71.67" y2="109.29" xlink:href="#Degradado_sin_nombre_6"/><linearGradient id="Degradado_sin_nombre_6-5" x1="25.69" y1="90.66" x2="71.67" y2="90.66" xlink:href="#Degradado_sin_nombre_6"/><linearGradient id="Degradado_sin_nombre_5-2" x1="31.18" y1="116.48" x2="64.81" y2="116.48" xlink:href="#Degradado_sin_nombre_5"/><linearGradient id="Degradado_sin_nombre_5-3" x1="18.92" y1="124.48" x2="22.25" y2="124.48" xlink:href="#Degradado_sin_nombre_5"/><linearGradient id="Degradado_sin_nombre_5-4" x1="80.41" y1="114.21" x2="93.19" y2="114.21" xlink:href="#Degradado_sin_nombre_5"/></defs><g class="cls-1"><g id="Layer_2" data-name="Layer 2"><g id="Capa_1" data-name="Capa 1"><path class="cls-2" d="M16.32,137.27c.5,2.34,2,6.74,5.2,6.82a4.2,4.2,0,0,0,4.17-2.22L23,136.63Z"/><path class="cls-3" d="M24.11,143.5a3.87,3.87,0,0,0,1.58-1.63L23,136.63l-2.26.22A21.43,21.43,0,0,0,24.11,143.5Z"/><path class="cls-4" d="M17.77,137.13l-1.45.14c.5,2.34,2,6.74,5.2,6.82a4.54,4.54,0,0,0,.65,0C19.24,142,18.45,139,17.77,137.13Z"/><rect class="cls-5" x="50.1" y="123.53" width="96.64" height="2" transform="translate(-45.24 192.03) rotate(-76.85)"/><polygon class="cls-6" points="87.24 171.55 86.45 171.36 108.44 77.25 109.28 77.45 87.24 171.55"/><path class="cls-7" d="M139.6,84.76s-6.95-9-17.32-6.51-13.49-1.44-13.49-1.44l-5.4,22.55s5.5,3.31,17,0c9.29-2.67,13.1,8.42,13.1,8.42C136.48,102.84,137.47,93,139.6,84.76Z"/><path class="cls-6" d="M124.2,79.55A16.12,16.12,0,0,1,139,87.12c.18-.79.37-1.58.57-2.36,0,0-6.95-9-17.32-6.51s-13.49-1.44-13.49-1.44S109.45,81.33,124.2,79.55Z"/><path class="cls-8" d="M92.85,116.48s4.45,5.73,7.29,5.47c4.15-.39,3.82-8.14,1.76-8.64A33.24,33.24,0,0,1,96.34,111Z"/><path class="cls-9" d="M93.64,115.23l-.79,1.25s4.45,5.73,7.29,5.47a2.9,2.9,0,0,0,1.61-.67C100.79,117.62,97,116.54,93.64,115.23Z"/><path class="cls-10" d="M103.34,117.89c-.16-1.41-.69-2.56-1.44-2.74a33,33,0,0,1-5.55-2.35l-2.84,4.48c-.41-.48-.66-.8-.66-.8l3.5-5.52a33,33,0,0,0,5.55,2.35C103,113.57,103.58,115.77,103.34,117.89Z"/><path class="cls-11" d="M100.15,111.45l-7,6.3-1.08,1c-3.82-4.26-7.75-7.76-11.7-8.81,0,0-.93,34.28-19.94,54.9l-8.47-.5-2.22-19.23-.33,19.23-8.48.5S29.4,156.9,22.25,138.54l-6.77,1.33S4.27,120,14.63,101.69c5.42-9.61,14.87-15.84,31.51-17C67.47,83.1,85.84,91.93,100.15,111.45Z"/><path class="cls-12" d="M49.45,141.85c-1.59.44-2.19,19.4-2,22.59l2-.12.33-19.23L52,164.32l1.6.1C54.41,158.44,50.32,141.61,49.45,141.85Z"/><path class="cls-13" d="M43,164.7l-2.07.12s-11-7.53-18.16-24.9C34.36,157.59,41.4,162.62,43,164.7Zm16.14.05,1.29.07c17.56-19,19.69-49.74,19.91-54.3C79.19,121.35,71.67,150.41,59.18,164.75ZM16.32,102.59c7.16-16.54,40.68-13.47,48-12.66,15.94,1.76,30.57,16,34.93,22.3l.85-.78c-14.31-19.52-32.67-28.35-54-26.8-16.64,1.21-26.09,7.44-31.51,17-10.36,18.35.84,38.18.84,38.18l1.19-.23C13.9,132.33,7.79,122.28,16.32,102.59Z"/><path class="cls-14" d="M48.29,15.08c-8.64,0-15.19-3.17-15.56-5.05a.43.43,0,0,0-.63-.26c-2.46,1.15-1.74,4.63-.45,6.34a7.36,7.36,0,0,0,1.83,1.69c-1,.39-7-3.31-6-8.88a.47.47,0,0,0-.86-.36c-1.85,2.41-3.07,4.95-1.94,8a8.23,8.23,0,0,0,3.27,3.9l-.3.17a25.18,25.18,0,0,1-3.11-1.24c-1.39-.68-4-1.87-3.79-3.71,0-.38-.47-.43-.65-.18-1.39,1.94.11,4,1.6,5.29.88.78,1.1,3.14.26,3.85A36.86,36.86,0,0,0,8.59,52.8c0,20.83,17.78,37.72,39.7,37.72S88,73.63,88,52.8,70.22,15.13,48.29,15.08Z"/><path class="cls-15" d="M88,52.8c0,20.83-17.77,37.72-39.7,37.72S8.6,73.63,8.6,52.8a36,36,0,0,1,.29-4.55C14,63.53,29,74.6,46.76,74.6c20.3,0,37-14.47,39.4-33.16A36,36,0,0,1,88,52.8Z"/><path class="cls-16" d="M10.33,47C16,24.53,48.91,11.62,68.5,24.16c14.44,9.25,20.59,27.57,16.32,43.42A35.93,35.93,0,0,0,88,52.8C88,32,70.22,15.13,48.29,15.08c-8.64,0-15.19-3.17-15.56-5.05a.43.43,0,0,0-.63-.26c-2.46,1.15-1.74,4.63-.45,6.34a7.36,7.36,0,0,0,1.83,1.69c-1,.39-7-3.31-6-8.88a.47.47,0,0,0-.86-.36c-1.85,2.41-3.07,4.95-1.94,8a8.23,8.23,0,0,0,3.27,3.9l-.3.17a25.18,25.18,0,0,1-3.11-1.24c-1.39-.68-4-1.87-3.79-3.71,0-.38-.47-.43-.65-.18-1.39,1.94.11,4,1.6,5.29.88.78,1.1,3.14.26,3.85A36.86,36.86,0,0,0,8.59,52.8a35.89,35.89,0,0,0,.67,6.84A39.13,39.13,0,0,1,10.33,47Z"/><g class="cls-17"><path class="cls-6" d="M48.29,3A45.29,45.29,0,1,1,3,48.29,45.34,45.34,0,0,1,48.29,3m0-3A48.29,48.29,0,1,0,96.58,48.29,48.29,48.29,0,0,0,48.29,0Z"/></g><g class="cls-18"><circle class="cls-6" cx="48.29" cy="48.29" r="48.29" transform="translate(-6.71 88.78) rotate(-81.36)"/></g><path class="cls-19" d="M75.19,91.69H21.4a3.79,3.79,0,0,1-3.79-3.78h0a3.79,3.79,0,0,1,3.79-3.78H75.19A3.78,3.78,0,0,1,79,87.91h0A3.78,3.78,0,0,1,75.19,91.69Z"/><path class="cls-20" d="M79,87.91a3.49,3.49,0,0,1-.06.65,3.76,3.76,0,0,0-3.72-3.14H21.4a3.72,3.72,0,0,0-2.67,1.11,3.66,3.66,0,0,0-1.05,2,3.49,3.49,0,0,1-.06-.65,3.76,3.76,0,0,1,1.11-2.68,3.72,3.72,0,0,1,2.67-1.11H75.19A3.79,3.79,0,0,1,79,87.91Z"/><path class="cls-21" d="M79,87.91a3.74,3.74,0,0,1-1.11,2.67,3.78,3.78,0,0,1-2.67,1.11H21.4a3.78,3.78,0,0,1-3.78-3.78,3.68,3.68,0,0,1,.2-1.2,3.76,3.76,0,0,0,3.58,2.58H75.19a3.74,3.74,0,0,0,2.67-1.11,3.68,3.68,0,0,0,.91-1.47A3.68,3.68,0,0,1,79,87.91Z"/><polygon class="cls-22" points="40.97 164.82 41.63 166.94 38.82 168.86 49.62 168.5 49.45 164.32 40.97 164.82"/><path class="cls-23" d="M50.88,9.58c2.41-5.09,20.19-3.18,31,11.54C91.21,33.74,92.89,52.8,88,52.8c-1.33,0-4.94-18.27-17.38-26.5C57.29,17.5,46.91,18,50.88,9.58Z"/><path class="cls-24" d="M48.92,81.64c-2.19,5.2-20,4-31.51-10.19C7.58,59.25,5.09,40.28,10,40.07c1.33-.06,5.72,18,18.51,25.72C42.18,74,52.53,73.1,48.92,81.64Z"/><path class="cls-25" d="M71.21,115.68c.46,7.76,4.57,10.65,7.65,7.67.76-.74,1.62,2.29-1.42,4.48s-9.31,1.57-8.86-12C68.58,115.82,71.2,115.47,71.21,115.68Z"/><path class="cls-26" d="M73.49,128.6a6.6,6.6,0,0,0,1-.8,4.78,4.78,0,0,0,1.16-3.41c-2.16-.56-4.09-3.55-4.39-8.71,0-.21-2.63.14-2.63.14C68.29,124.57,70.85,127.9,73.49,128.6Z"/><path class="cls-27" d="M75.59,89.66c-2.83.27-7.31,7.13-5.8,13.8.22,1,1.73.43,1.79-.48.3-5.19,3.58-10.39,6.37-11.29C80,91,76.36,89.59,75.59,89.66Z"/><path class="cls-26" d="M71.58,93.21a14.38,14.38,0,0,0-1.79,10.25c.22,1,1.73.43,1.79-.48a16.64,16.64,0,0,1,2.11-7A12.16,12.16,0,0,0,71.58,93.21Z"/><path class="cls-28" d="M75.07,90.79A10.81,10.81,0,0,1,77.3,92a3.4,3.4,0,0,1,.65-.29c2-.66-1.59-2.1-2.36-2a3.37,3.37,0,0,0-1.61.73C74.34,90.51,74.71,90.65,75.07,90.79Z"/><path class="cls-29" d="M78.86,123.35a4.3,4.3,0,0,1-1.27.87,7,7,0,0,1-1.06,4.13,4.49,4.49,0,0,0,.91-.52C80.48,125.64,79.62,122.61,78.86,123.35Z"/><path class="cls-30" d="M31.61,115.82c.45,13.58-6,14.11-8.86,12a9.87,9.87,0,0,1-1.54-1.2c-.13-1.16-.12-2.15-.19-3.45,3.07,3,7.5.26,8-7.5C29,115.47,31.61,115.82,31.61,115.82Z"/><g class="cls-31"><path class="cls-32" d="M31.61,115.82c.45,13.58-6,14.11-8.86,12a9.87,9.87,0,0,1-1.54-1.2c-.13-1.16-.12-2.15-.19-3.45,3.07,3,7.5.26,8-7.5C29,115.47,31.61,115.82,31.61,115.82Z"/></g><path class="cls-33" d="M22.24,91.69c2.79.9,6.07,6.1,6.37,11.29.06.91,1.57,1.45,1.79.48,1.51-6.67-3-13.53-5.8-13.8C23.83,89.59,20.21,91,22.24,91.69Z"/><path class="cls-26" d="M28.61,93.21a14.38,14.38,0,0,1,1.79,10.25c-.22,1-1.73.43-1.79-.48a16.64,16.64,0,0,0-2.11-7A12.16,12.16,0,0,1,28.61,93.21Z"/><path class="cls-34" d="M25.12,90.79A10.56,10.56,0,0,0,22.89,92a3.71,3.71,0,0,0-.65-.29c-2-.66,1.59-2.1,2.36-2a3.37,3.37,0,0,1,1.61.73C25.85,90.51,25.48,90.65,25.12,90.79Z"/><path class="cls-35" d="M45.46,168.64l4.16-.14-.18-4.18-2.35.14A6.44,6.44,0,0,1,45.46,168.64Z"/><path class="cls-36" d="M40.68,168.8c.55-.37,1.08-.76,1.62-1.14s1.21-.68.75-1.5c-.28-.49-.72-.9-1-1.37l0,0-1,.06.66,2.12-2.81,1.92Z"/><polygon class="cls-37" points="60.47 164.82 59.81 166.94 62.63 168.86 51.82 168.5 52 164.32 60.47 164.82"/><path class="cls-38" d="M54.27,164.46,52,164.32l-.18,4.18,3.48.11A9.85,9.85,0,0,1,54.27,164.46Z"/><path class="cls-39" d="M59.4,164.76c-.42.7-.87,1.37-1.33,2a19.77,19.77,0,0,1,2.44,2l2.11.07-2.81-1.92.66-2.12Z"/><path class="cls-40" d="M28.23,82.66c2.59-3.73,36.71-3.36,40.41,0s4,50.74,1.06,53.91-40.09,2.24-41.93-.31C24.32,131.51,25.63,86.4,28.23,82.66Z"/><path class="cls-41" d="M69.71,136.57c-2.9,3.16-40.1,2.23-41.94-.31-1.6-2.21-2.17-13.16-2.07-24.6.07,9.62.69,18,2.07,19.91,1.84,2.54,39,3.48,41.94.31,1.22-1.33,1.88-10.5,2-20.92C71.77,123.18,71.11,135,69.71,136.57Z"/><path class="cls-42" d="M69.71,102.77c-2.9,1.29-40.1.91-41.94-.12s-2.28-6.3-2-11.45c.19,3.26.81,6,2,6.62,1.84,1,39,1.41,41.94.12,1.07-.48,1.71-3.42,1.9-7C71.88,96.37,71.24,102.09,69.71,102.77Z"/><path class="cls-43" d="M28.23,79.81c2.59-1.53,36.71-1.38,40.41,0s4,20.67,1.06,22-40.09.92-41.93-.12C24.32,99.71,25.63,81.33,28.23,79.81Z"/><path class="cls-44" d="M71.65,93.64c-.14-5.25-1.14-10.59-3-11.28C65,81,30.82,80.84,28.23,82.36c-1.36.8-2.37,6.25-2.52,11.53-.17-5.92.94-13.15,2.52-14.09,2.59-1.52,36.72-1.37,40.41,0C70.82,80.61,71.81,87.71,71.65,93.64Z"/><path class="cls-41" d="M69.71,101.77c-2.9,1.29-40.1.91-41.94-.12s-2.28-6.3-2-11.45c.19,3.26.81,6,2,6.62,1.84,1,39,1.41,41.94.12,1.07-.48,1.71-3.42,1.9-7C71.88,95.37,71.24,101.09,69.71,101.77Z"/><path class="cls-45" d="M33.15,106.56c-2.39,2.73-2.86,19,0,20.51s29.45,1.72,30.43,0,2.19-18.22,0-20.51S35.53,103.83,33.15,106.56Z"/><path class="cls-46" d="M20.62,110.55c0-.07-.18-1.22-.66.89-2.23,9.91-.4,23.18,1,27.35a10.63,10.63,0,0,1,1.25-.25C21.35,132.67,20.53,115.24,20.62,110.55Z"/><path class="cls-47" d="M93.19,117.75l-1.08,1c-3.82-4.26-7.75-7.76-11.7-8.81,0,0,2.25-1.4,8.11,2.69A19.28,19.28,0,0,1,93.19,117.75Z"/></g></g></g></svg>