<svg xmlns="http://www.w3.org/2000/svg" xmlns:xlink="http://www.w3.org/1999/xlink" viewBox="0 0 57.72 57.72"><defs><style>.cls-1{isolation:isolate;}.cls-2{fill:url(#radial-gradient);}.cls-3{fill:url(#radial-gradient-2);}.cls-4,.cls-59,.cls-6,.cls-7,.cls-8,.cls-9{mix-blend-mode:screen;}.cls-4{fill:url(#radial-gradient-3);}.cls-5{opacity:0.7;}.cls-6{fill:url(#radial-gradient-4);}.cls-7{fill:url(#radial-gradient-5);}.cls-8{fill:url(#radial-gradient-6);}.cls-9{fill:url(#radial-gradient-7);}.cls-10,.cls-11,.cls-12,.cls-13,.cls-14,.cls-15,.cls-16,.cls-17,.cls-18,.cls-19,.cls-20,.cls-21,.cls-22,.cls-23,.cls-24,.cls-25,.cls-26,.cls-27,.cls-28,.cls-29,.cls-30,.cls-31,.cls-32,.cls-33,.cls-34,.cls-35,.cls-36,.cls-37,.cls-38,.cls-39,.cls-40,.cls-41,.cls-42,.cls-43,.cls-44,.cls-45,.cls-46,.cls-47,.cls-48,.cls-49,.cls-50,.cls-51,.cls-52,.cls-53,.cls-54,.cls-55,.cls-56,.cls-57,.cls-58,.cls-59{opacity:0.5;}.cls-10,.cls-11,.cls-12,.cls-13,.cls-14,.cls-15,.cls-16,.cls-17,.cls-18,.cls-19,.cls-20,.cls-21,.cls-22,.cls-23,.cls-24,.cls-25,.cls-26,.cls-27,.cls-28,.cls-29,.cls-30,.cls-31,.cls-32,.cls-33,.cls-34,.cls-35,.cls-36,.cls-37,.cls-38,.cls-39,.cls-40,.cls-41,.cls-42,.cls-43,.cls-44,.cls-45,.cls-46,.cls-47,.cls-48,.cls-49,.cls-50,.cls-51,.cls-52,.cls-53,.cls-54,.cls-55,.cls-56,.cls-57,.cls-58{mix-blend-mode:multiply;}.cls-10{fill:url(#radial-gradient-8);}.cls-11{fill:url(#radial-gradient-9);}.cls-12{fill:url(#radial-gradient-10);}.cls-13{fill:url(#radial-gradient-11);}.cls-14{fill:url(#radial-gradient-12);}.cls-15{fill:url(#radial-gradient-13);}.cls-16{fill:url(#radial-gradient-14);}.cls-17{fill:url(#radial-gradient-15);}.cls-18{fill:url(#radial-gradient-16);}.cls-19{fill:url(#radial-gradient-17);}.cls-20{fill:url(#radial-gradient-18);}.cls-21{fill:url(#radial-gradient-19);}.cls-22{fill:url(#radial-gradient-20);}.cls-23{fill:url(#radial-gradient-21);}.cls-24{fill:url(#radial-gradient-22);}.cls-25{fill:url(#radial-gradient-23);}.cls-26{fill:url(#radial-gradient-24);}.cls-27{fill:url(#radial-gradient-25);}.cls-28{fill:url(#radial-gradient-26);}.cls-29{fill:url(#radial-gradient-27);}.cls-30{fill:url(#radial-gradient-28);}.cls-31{fill:url(#radial-gradient-29);}.cls-32{fill:url(#radial-gradient-30);}.cls-33{fill:url(#radial-gradient-31);}.cls-34{fill:url(#radial-gradient-32);}.cls-35{fill:url(#radial-gradient-34);}.cls-36{fill:url(#radial-gradient-35);}.cls-37{fill:url(#radial-gradient-36);}.cls-38{fill:url(#radial-gradient-37);}.cls-39{fill:url(#radial-gradient-38);}.cls-40{fill:url(#radial-gradient-39);}.cls-41{fill:url(#radial-gradient-40);}.cls-42{fill:url(#radial-gradient-41);}.cls-43{fill:url(#radial-gradient-42);}.cls-44{fill:url(#radial-gradient-43);}.cls-45{fill:url(#radial-gradient-44);}.cls-46{fill:url(#radial-gradient-45);}.cls-47{fill:url(#radial-gradient-46);}.cls-48{fill:url(#radial-gradient-47);}.cls-49{fill:url(#radial-gradient-48);}.cls-50{fill:url(#radial-gradient-49);}.cls-51{fill:url(#radial-gradient-50);}.cls-52{fill:url(#radial-gradient-51);}.cls-53{fill:url(#radial-gradient-52);}.cls-54{fill:url(#radial-gradient-53);}.cls-55{fill:url(#radial-gradient-54);}.cls-56{fill:url(#radial-gradient-55);}.cls-57{fill:url(#radial-gradient-56);}.cls-58{fill:url(#radial-gradient-57);}.cls-59{fill:url(#radial-gradient-58);}</style><radialGradient id="radial-gradient" cx="-35.87" cy="82.31" r="29.18" gradientTransform="translate(8.16 -58.52) rotate(-36.69)" gradientUnits="userSpaceOnUse"><stop offset="0" stop-color="#8ee1ee"/><stop offset="0.62" stop-color="#5e8dec"/><stop offset="0.7" stop-color="#5e8ceb" stop-opacity="0.99"/><stop offset="0.75" stop-color="#5f8ae9" stop-opacity="0.95"/><stop offset="0.8" stop-color="#6085e5" stop-opacity="0.89"/><stop offset="0.84" stop-color="#627fdf" stop-opacity="0.8"/><stop offset="0.87" stop-color="#6576d8" stop-opacity="0.68"/><stop offset="0.91" stop-color="#686cce" stop-opacity="0.54"/><stop offset="0.94" stop-color="#6c60c4" stop-opacity="0.37"/><stop offset="0.97" stop-color="#7053b7" stop-opacity="0.18"/><stop offset="1" stop-color="#7446ac" stop-opacity="0"/></radialGradient><radialGradient id="radial-gradient-2" cx="-33.14" cy="59.83" r="50.87" gradientTransform="matrix(0.71, 0.71, -0.71, 0.71, 112.3, -4.33)" gradientUnits="userSpaceOnUse"><stop offset="0" stop-color="#8ee1ee"/><stop offset="0.62" stop-color="#5e8dec"/><stop offset="0.63" stop-color="#5f89e8"/><stop offset="0.74" stop-color="#6b64c7"/><stop offset="0.84" stop-color="#714eb3"/><stop offset="0.9" stop-color="#7446ac"/></radialGradient><radialGradient id="radial-gradient-3" cx="-53.78" cy="174.89" r="48.37" gradientTransform="matrix(1.26, -0.5, 0.44, 1.1, -22.25, -225.23)" xlink:href="#radial-gradient-2"/><radialGradient id="radial-gradient-4" cx="-33.76" cy="60.09" r="37.85" gradientTransform="translate(8.16 -58.52) rotate(-36.69)" xlink:href="#radial-gradient-2"/><radialGradient id="radial-gradient-5" cx="-33.76" cy="60.09" r="37.85" gradientTransform="translate(8.16 -58.52) rotate(-36.69)" xlink:href="#radial-gradient-2"/><radialGradient id="radial-gradient-6" cx="-33.76" cy="60.09" r="37.85" gradientTransform="translate(8.16 -58.52) rotate(-36.69)" xlink:href="#radial-gradient-2"/><radialGradient id="radial-gradient-7" cx="-33.76" cy="60.09" r="37.85" gradientTransform="translate(8.16 -58.52) rotate(-36.69)" xlink:href="#radial-gradient-2"/><radialGradient id="radial-gradient-8" cx="-33.18" cy="66.77" r="44.53" gradientTransform="translate(8.16 -58.52) rotate(-36.69)" xlink:href="#radial-gradient-2"/><radialGradient id="radial-gradient-9" cx="-33.49" cy="80.42" r="32.73" gradientTransform="translate(8.16 -58.52) rotate(-36.69)" xlink:href="#radial-gradient-2"/><radialGradient id="radial-gradient-10" cx="-37.69" cy="55.23" r="11.34" gradientTransform="translate(8.16 -58.52) rotate(-36.69)" xlink:href="#radial-gradient-2"/><radialGradient id="radial-gradient-11" cx="-37.69" cy="55.23" r="11.34" gradientTransform="translate(8.16 -58.52) rotate(-36.69)" xlink:href="#radial-gradient-2"/><radialGradient id="radial-gradient-12" cx="-246.44" cy="-80.16" r="11.34" gradientTransform="translate(86.05 271.02) rotate(64.56)" xlink:href="#radial-gradient-2"/><radialGradient id="radial-gradient-13" cx="-246.44" cy="-80.16" r="11.34" gradientTransform="translate(86.05 271.02) rotate(64.56)" xlink:href="#radial-gradient-2"/><radialGradient id="radial-gradient-14" cx="-354.96" cy="163.36" r="11.34" gradientTransform="translate(-118.46 398.08) rotate(139.75)" xlink:href="#radial-gradient-2"/><radialGradient id="radial-gradient-15" cx="-354.96" cy="163.36" r="11.34" gradientTransform="translate(-118.46 398.08) rotate(139.75)" xlink:href="#radial-gradient-2"/><radialGradient id="radial-gradient-16" cx="-298.65" cy="224.11" r="13.59" gradientTransform="matrix(-1, 0.05, -0.09, -1.77, -246.4, 461.41)" xlink:href="#radial-gradient-2"/><radialGradient id="radial-gradient-17" cx="-46.32" cy="77.58" r="17.3" gradientTransform="translate(8.16 -58.52) rotate(-36.69)" xlink:href="#radial-gradient-2"/><radialGradient id="radial-gradient-18" cx="9.2" cy="185.02" r="8.75" gradientTransform="matrix(0.92, -0.39, 0.7, 1.62, -120.23, -284.65)" xlink:href="#radial-gradient-2"/><radialGradient id="radial-gradient-19" cx="-339.7" cy="-28.81" r="11.14" gradientTransform="translate(-179.25 289.82) rotate(123.03)" xlink:href="#radial-gradient-2"/><radialGradient id="radial-gradient-20" cx="-297.1" cy="179.82" r="10.98" gradientTransform="matrix(-0.24, 0.97, -1.71, -0.43, 286.62, 392.73)" xlink:href="#radial-gradient-2"/><radialGradient id="radial-gradient-21" cx="-90.85" cy="144.93" r="13.98" gradientTransform="translate(-134.09 -3.64) rotate(-109.6)" xlink:href="#radial-gradient-2"/><radialGradient id="radial-gradient-22" cx="-2.98" cy="368.55" r="8.94" gradientTransform="translate(-363.43 30.72) rotate(-90.47)" xlink:href="#radial-gradient-2"/><radialGradient id="radial-gradient-23" cx="-2.98" cy="368.55" r="8.94" gradientTransform="translate(-363.43 30.72) rotate(-90.47)" xlink:href="#radial-gradient-2"/><radialGradient id="radial-gradient-24" cx="-186.52" cy="379.53" r="11.34" gradientTransform="translate(-297.79 333.52) rotate(-157.19)" xlink:href="#radial-gradient-2"/><radialGradient id="radial-gradient-25" cx="-186.52" cy="379.53" r="11.34" gradientTransform="translate(-297.79 333.52) rotate(-157.19)" xlink:href="#radial-gradient-2"/><radialGradient id="radial-gradient-26" cx="-54" cy="-42.16" r="6.42" gradientTransform="translate(83.09 38.86) rotate(-6.74)" xlink:href="#radial-gradient-2"/><radialGradient id="radial-gradient-27" cx="-54" cy="-42.16" r="6.42" gradientTransform="translate(83.09 38.86) rotate(-6.74)" xlink:href="#radial-gradient-2"/><radialGradient id="radial-gradient-28" cx="-348.82" cy="161.75" r="6.42" gradientTransform="translate(-43.83 415.28) rotate(129.24)" xlink:href="#radial-gradient-2"/><radialGradient id="radial-gradient-29" cx="-348.82" cy="161.75" r="6.42" gradientTransform="translate(-43.83 415.28) rotate(129.24)" xlink:href="#radial-gradient-2"/><radialGradient id="radial-gradient-30" cx="-291.07" cy="397.73" r="6.42" gradientTransform="translate(-481.92 75.64) rotate(-129.52)" xlink:href="#radial-gradient-2"/><radialGradient id="radial-gradient-31" cx="-291.07" cy="397.73" r="6.42" gradientTransform="translate(-481.92 75.64) rotate(-129.52)" xlink:href="#radial-gradient-2"/><radialGradient id="radial-gradient-32" cx="-573.92" cy="307.49" r="6.42" gradientTransform="translate(-361.59 563.28) rotate(156.45)" xlink:href="#radial-gradient-2"/><radialGradient id="radial-gradient-34" cx="-115.55" cy="-100.01" r="4.92" gradientTransform="translate(88.75 154.76) rotate(32.43)" xlink:href="#radial-gradient-2"/><radialGradient id="radial-gradient-35" cx="-115.55" cy="-100.01" r="4.92" gradientTransform="translate(88.75 154.76) rotate(32.43)" xlink:href="#radial-gradient-2"/><radialGradient id="radial-gradient-36" cx="-254.43" cy="2.47" r="4.92" gradientTransform="translate(44.28 281.6) rotate(92.91)" xlink:href="#radial-gradient-2"/><radialGradient id="radial-gradient-37" cx="-254.43" cy="2.47" r="4.92" gradientTransform="translate(44.28 281.6) rotate(92.91)" xlink:href="#radial-gradient-2"/><radialGradient id="radial-gradient-38" cx="-10.59" cy="455.52" r="3.36" gradientTransform="matrix(-0.82, -0.58, 0.58, -0.82, -255.46, 411.36)" xlink:href="#radial-gradient-2"/><radialGradient id="radial-gradient-39" cx="-10.59" cy="455.52" r="3.36" gradientTransform="matrix(-0.82, -0.58, 0.58, -0.82, -255.46, 411.36)" xlink:href="#radial-gradient-2"/><radialGradient id="radial-gradient-40" cx="267.36" cy="321.02" r="3.36" gradientTransform="matrix(0.35, -0.94, 1.63, 0.6, -600.62, 81)" xlink:href="#radial-gradient-2"/><radialGradient id="radial-gradient-41" cx="267.36" cy="321.02" r="3.36" gradientTransform="matrix(0.35, -0.94, 1.63, 0.6, -600.62, 81)" xlink:href="#radial-gradient-2"/><radialGradient id="radial-gradient-42" cx="273.92" cy="232.63" r="3.36" gradientTransform="translate(-301.79 -144.51) rotate(-15.01)" xlink:href="#radial-gradient-2"/><radialGradient id="radial-gradient-43" cx="273.92" cy="232.63" r="3.36" gradientTransform="translate(-301.79 -144.51) rotate(-15.01)" xlink:href="#radial-gradient-2"/><radialGradient id="radial-gradient-44" cx="74.76" cy="220.11" r="2.67" gradientTransform="matrix(0.34, 0.94, -1.54, 0.56, 358.57, -175.69)" xlink:href="#radial-gradient-2"/><radialGradient id="radial-gradient-45" cx="74.76" cy="220.11" r="2.67" gradientTransform="matrix(0.34, 0.94, -1.54, 0.56, 358.57, -175.69)" xlink:href="#radial-gradient-2"/><radialGradient id="radial-gradient-46" cx="-115.21" cy="257.84" r="6.42" gradientTransform="translate(-217.38 -153.58) rotate(-75.23)" xlink:href="#radial-gradient-2"/><radialGradient id="radial-gradient-47" cx="-115.21" cy="257.84" r="6.42" gradientTransform="translate(-217.38 -153.58) rotate(-75.23)" xlink:href="#radial-gradient-2"/><radialGradient id="radial-gradient-48" cx="-18.79" cy="195.51" r="14.87" gradientTransform="matrix(0.4, -0.92, 0.76, 0.33, -102.69, -50.07)" xlink:href="#radial-gradient-2"/><radialGradient id="radial-gradient-49" cx="-18.79" cy="195.51" r="14.87" gradientTransform="matrix(0.4, -0.92, 0.76, 0.33, -102.69, -50.07)" xlink:href="#radial-gradient-2"/><radialGradient id="radial-gradient-50" cx="-249.24" cy="-216.22" r="16.59" gradientTransform="matrix(0.89, 0.45, -0.37, 0.74, 168.84, 307.86)" xlink:href="#radial-gradient-2"/><radialGradient id="radial-gradient-51" cx="-246.36" cy="-211.62" r="10.03" gradientTransform="matrix(0.89, 0.45, -0.37, 0.74, 168.84, 307.86)" xlink:href="#radial-gradient-2"/><radialGradient id="radial-gradient-52" cx="-352.17" cy="-233.89" r="8.16" gradientTransform="matrix(0.69, 0.72, -0.6, 0.57, 118.64, 427.38)" xlink:href="#radial-gradient-2"/><radialGradient id="radial-gradient-53" cx="-354.19" cy="-286.94" r="11.88" gradientTransform="matrix(0.69, 0.72, -0.6, 0.57, 118.64, 427.38)" xlink:href="#radial-gradient-2"/><radialGradient id="radial-gradient-54" cx="-351.77" cy="-282.96" r="7.78" gradientTransform="matrix(0.69, 0.72, -0.6, 0.57, 118.64, 427.38)" xlink:href="#radial-gradient-2"/><radialGradient id="radial-gradient-55" cx="-140.47" cy="-139.59" r="14.87" gradientTransform="matrix(1, 0.03, -0.03, 0.83, 167.15, 162.12)" xlink:href="#radial-gradient-2"/><radialGradient id="radial-gradient-56" cx="-140.47" cy="-139.59" r="14.87" gradientTransform="matrix(1, 0.03, -0.03, 0.83, 167.15, 162.12)" xlink:href="#radial-gradient-2"/><radialGradient id="radial-gradient-57" cx="-145.79" cy="-139.53" r="14.87" gradientTransform="matrix(1, 0.03, -0.03, 0.83, 167.15, 162.12)" xlink:href="#radial-gradient-2"/><radialGradient id="radial-gradient-58" cx="-148.37" cy="188.99" r="89.91" gradientTransform="translate(-194.53 -154.02) rotate(-84)" xlink:href="#radial-gradient-2"/></defs><g class="cls-1"><g id="Layer_2" data-name="Layer 2"><g id="Capa_1" data-name="Capa 1"><path class="cls-2" d="M52,11.62a28.86,28.86,0,1,1-40.38-5.9A28.86,28.86,0,0,1,52,11.62Z"/><circle class="cls-3" cx="28.86" cy="28.86" r="25.84" transform="translate(-3.89 53.22) rotate(-81.64)"/><path class="cls-4" d="M10.92,38.14c-2.25-1.08-3.87-3.84-4.59-6C4.81,27.61,6,22.66,7.89,18.42,13.83,5.18,30.23,3.87,34.51,7.63s1.56,9.46-5.59,12.56S22.21,33.46,18,36.61a8,8,0,0,1-5.52,2A4.62,4.62,0,0,1,10.92,38.14Z"/><g class="cls-5"><path class="cls-6" d="M9.12,28.32a50.65,50.65,0,0,1-4.47-3.5,24.43,24.43,0,0,0,13.62,26A24.48,24.48,0,0,1,9.12,28.32Z"/><path class="cls-7" d="M27.14,4.36A24.44,24.44,0,0,0,5,23.12a50.09,50.09,0,0,0,4.41,3.56A24.46,24.46,0,0,1,30.15,7.34,25.66,25.66,0,0,0,27.14,4.36Z"/><path class="cls-8" d="M38,7.58a23.18,23.18,0,0,0-1.75-2.1,24.78,24.78,0,0,0-7.45-1.17,29.88,29.88,0,0,1,2.71,2.9A24.32,24.32,0,0,1,38,7.58Z"/><path class="cls-9" d="M39.56,8A24,24,0,0,1,43.81,9.5a24.62,24.62,0,0,0-5.49-3.24C38.75,6.81,39.17,7.37,39.56,8Z"/></g><path class="cls-10" d="M31.82,3.7A20.69,20.69,0,1,1,4,33.43l-.08-.11A25.38,25.38,0,1,0,31.82,3.7Z"/><path class="cls-11" d="M45.94,11.41l.07.09c8.34,11.19,6.29,26.82-4.57,34.92C31.38,53.91,17.3,52.31,8.65,43.15,17,54.27,32.51,56.75,43.34,48.68S56.25,25,47.91,13.76A25.24,25.24,0,0,0,45.94,11.41Z"/><path class="cls-12" d="M21.92,7.05c.95,1.28-.46,3.94-3.15,5.94s-5.64,2.59-6.59,1.31.45-3.93,3.14-5.94S21,5.77,21.92,7.05Z"/><path class="cls-13" d="M13.32,14.94c1.36.23,3.48-.48,5.45-1.95C21,11.36,22.3,9.3,22.21,7.89c-1.36-.23-3.48.48-5.45,2C14.57,11.47,13.23,13.53,13.32,14.94Z"/><path class="cls-14" d="M51.63,25.06c-1.44.69-3.77-1.21-5.21-4.24s-1.45-6,0-6.73,3.78,1.22,5.22,4.25S53.07,24.38,51.63,25.06Z"/><path class="cls-15" d="M45.57,15.09c-.49,1.29-.21,3.51.85,5.73,1.17,2.46,2.93,4.18,4.32,4.37.5-1.29.21-3.51-.84-5.73C48.73,17,47,15.28,45.57,15.09Z"/><path class="cls-16" d="M36.05,46c-1-1.22.21-4,2.77-6.13s5.47-2.93,6.5-1.72-.21,4-2.77,6.13S37.08,47.18,36.05,46Z"/><path class="cls-17" d="M44.14,37.55c-1.37-.14-3.44.69-5.32,2.28-2.08,1.77-3.29,3.91-3.12,5.3,1.38.15,3.45-.69,5.32-2.28C43.11,41.09,44.32,39,44.14,37.55Z"/><path class="cls-18" d="M19.64,39.33c-.17-3.38,2.94-6.28,7-6.48s7.41,2.36,7.58,5.73-2.94,6.28-7,6.48S19.81,42.7,19.64,39.33Z"/><path class="cls-19" d="M26.6,32.85c-3.62.18-6.51,2.56-6.92,5.5.71,2.88,3.82,4.95,7.44,4.76s6.51-2.56,6.92-5.5C33.33,34.73,30.22,32.66,26.6,32.85Z"/><path class="cls-20" d="M26.89,16.41c.86,2-.38,4.45-2.75,5.47s-5,.23-5.86-1.77.37-4.45,2.75-5.47S26,14.41,26.89,16.41Z"/><path class="cls-21" d="M24.14,21.88A4.51,4.51,0,0,0,27.08,17a4.51,4.51,0,0,0-5.55-1.21,4.52,4.52,0,0,0-3,4.87A4.54,4.54,0,0,0,24.14,21.88Z"/><path class="cls-22" d="M39.62,33.48c-2.65-.67-4.15-3.77-3.36-6.92s3.59-5.16,6.23-4.49,4.15,3.76,3.36,6.91S42.26,34.15,39.62,33.48Z"/><path class="cls-23" d="M36.26,26.56c-.71,2.85.44,5.64,2.61,6.65,2.39.14,4.73-1.77,5.44-4.61S43.88,23,41.71,22C39.32,21.81,37,23.73,36.26,26.56Z"/><path class="cls-24" d="M9.47,23.11c1.26,0,2.3,2.13,2.32,4.77s-1,4.8-2.24,4.81-2.29-2.13-2.31-4.77S8.22,23.12,9.47,23.11Z"/><path class="cls-25" d="M10.49,32.25a6.39,6.39,0,0,0,1.3-4.37c0-2.15-.71-4-1.64-4.56a6.36,6.36,0,0,0-1.3,4.37C8.86,29.84,9.55,31.66,10.49,32.25Z"/><path class="cls-26" d="M14.65,47.14c.62-1.47,3.62-1.61,6.72-.31s5.09,3.55,4.48,5-3.63,1.6-6.72.3S14,48.61,14.65,47.14Z"/><path class="cls-27" d="M25.81,50.54c-.49-1.29-2.17-2.75-4.44-3.71-2.52-1-5-1.16-6.14-.37.49,1.29,2.17,2.75,4.44,3.71C22.19,51.22,24.65,51.33,25.81,50.54Z"/><path class="cls-28" d="M30.25,5.83c.11.9-1.33,1.81-3.22,2s-3.5-.32-3.6-1.22,1.33-1.8,3.22-2S30.15,4.94,30.25,5.83Z"/><path class="cls-29" d="M23.81,7.27A4.58,4.58,0,0,0,27,7.86c1.54-.18,2.78-.82,3.13-1.53a4.58,4.58,0,0,0-3.22-.59C25.4,5.93,24.16,6.56,23.81,7.27Z"/><path class="cls-30" d="M45.7,45c-.7-.57-.29-2.23.91-3.7s2.74-2.2,3.44-1.63.29,2.23-.91,3.7S46.4,45.56,45.7,45Z"/><path class="cls-31" d="M49.33,39.47a4.56,4.56,0,0,0-2.72,1.82c-1,1.2-1.43,2.52-1.19,3.27a4.61,4.61,0,0,0,2.73-1.82A4.13,4.13,0,0,0,49.33,39.47Z"/><path class="cls-32" d="M9.12,40.88c.7-.58,2.24.14,3.45,1.61s1.62,3.12.93,3.69-2.24-.15-3.45-1.61S8.43,41.45,9.12,40.88Z"/><path class="cls-33" d="M13.82,45.52a4.51,4.51,0,0,0-1.25-3c-1-1.19-2.19-1.89-3-1.8a4.58,4.58,0,0,0,1.26,3A4.16,4.16,0,0,0,13.82,45.52Z"/><path class="cls-34" d="M35.47,51.39c-.36-.82.75-2.11,2.5-2.87s3.44-.7,3.8.13-.76,2.11-2.5,2.87S35.83,52.22,35.47,51.39Z"/><path class="cls-34" d="M41.22,48.15a4.56,4.56,0,0,0-3.25.37,4.15,4.15,0,0,0-2.56,2.37,4.64,4.64,0,0,0,3.26-.37C40.08,49.9,41.09,48.93,41.22,48.15Z"/><path class="cls-35" d="M47.05,12.65c-.37.58-1.67.42-2.9-.36s-1.93-1.89-1.56-2.47,1.67-.42,2.9.36S47.42,12.07,47.05,12.65Z"/><path class="cls-36" d="M42.52,10.38a3.47,3.47,0,0,0,1.63,1.91,3.16,3.16,0,0,0,2.6.61A3.51,3.51,0,0,0,45.12,11,3.16,3.16,0,0,0,42.52,10.38Z"/><path class="cls-37" d="M52.09,31.39c-.69,0-1.19-1.24-1.12-2.69s.7-2.61,1.39-2.58,1.19,1.25,1.12,2.7S52.78,31.43,52.09,31.39Z"/><path class="cls-38" d="M51.83,26.33A3.53,3.53,0,0,0,51,28.7a3.14,3.14,0,0,0,.76,2.56,3.53,3.53,0,0,0,.85-2.37A3.18,3.18,0,0,0,51.83,26.33Z"/><path class="cls-39" d="M14.81,42.56c.27-.38,1.15-.23,2,.34s1.25,1.35,1,1.74-1.15.23-2-.34S14.54,43,14.81,42.56Z"/><path class="cls-40" d="M17.82,44.26a2.37,2.37,0,0,0-1.05-1.36A2.19,2.19,0,0,0,15,42.4a2.37,2.37,0,0,0,1.05,1.36A2.19,2.19,0,0,0,17.82,44.26Z"/><path class="cls-41" d="M18.8,22.5a1.66,1.66,0,0,1,.76,2.2,1.65,1.65,0,0,1-2,1.17,1.66,1.66,0,0,1-.77-2.2A1.67,1.67,0,0,1,18.8,22.5Z"/><path class="cls-42" d="M18.17,25.94a1.84,1.84,0,0,0,1.39-1.24,1.79,1.79,0,0,0-.38-2A1.87,1.87,0,0,0,17.79,24,1.82,1.82,0,0,0,18.17,25.94Z"/><path class="cls-43" d="M26.2,10.11c.12.45-.56,1-1.51,1.29s-1.84.09-2-.36.55-1,1.51-1.29S26.08,9.65,26.2,10.11Z"/><path class="cls-44" d="M23,11.34a2.42,2.42,0,0,0,1.72.06,2.14,2.14,0,0,0,1.5-1,2.4,2.4,0,0,0-1.71-.06A2.17,2.17,0,0,0,23,11.34Z"/><path class="cls-45" d="M44.18,21a1.3,1.3,0,0,1-1.54-1,1.15,1.15,0,1,1,2.09-.76A1.31,1.31,0,0,1,44.18,21Z"/><path class="cls-46" d="M42.81,18.56A1.46,1.46,0,0,0,42.64,20a1.43,1.43,0,0,0,1.21,1A1.5,1.5,0,0,0,44,19.57,1.42,1.42,0,0,0,42.81,18.56Z"/><path class="cls-47" d="M7,19.15c.87.23,1.19,1.9.7,3.74S6.1,26,5.23,25.8,4,23.89,4.52,22.05,6.11,18.92,7,19.15Z"/><path class="cls-48" d="M6,25.67a4.56,4.56,0,0,0,1.72-2.78,4.11,4.11,0,0,0-.27-3.47A4.59,4.59,0,0,0,5.68,22.2C5.29,23.7,5.42,25.08,6,25.67Z"/><path class="cls-49" d="M48.34,34.5c.37.16.43.82.15,1.47s-.81,1-1.18.88-.44-.82-.15-1.47S48,34.34,48.34,34.5Z"/><path class="cls-50" d="M48.12,32.13c.22.1.27.5.09.89s-.49.64-.72.54-.26-.5-.09-.89S47.9,32,48.12,32.13Z"/><path class="cls-51" d="M23.36,46.33c-.2.4-.94.44-1.64.09s-1.12-1-.92-1.37.93-.44,1.64-.09S23.56,45.93,23.36,46.33Z"/><path class="cls-52" d="M25.42,46.8c-.13.25-.57.27-1,.05s-.67-.58-.55-.82.56-.27,1-.05S25.54,46.56,25.42,46.8Z"/><path class="cls-53" d="M13.79,42.62c-.16.15-.51,0-.77-.24s-.36-.63-.2-.79.51,0,.77.24S14,42.46,13.79,42.62Z"/><path class="cls-54" d="M42.91,12.82c-.23.22-.74.06-1.13-.35s-.52-.92-.28-1.14.73-.07,1.12.34S43.14,12.59,42.91,12.82Z"/><path class="cls-55" d="M43.79,14.61c-.16.14-.49,0-.74-.23s-.34-.6-.19-.75.48,0,.74.23S43.94,14.46,43.79,14.61Z"/><path class="cls-56" d="M32,51.53c0,.4-.6.71-1.3.69s-1.28-.37-1.27-.77.6-.71,1.31-.69S32,51.13,32,51.53Z"/><path class="cls-57" d="M34.14,50.45c0,.24-.36.43-.79.42s-.78-.23-.77-.47.36-.43.8-.42S34.15,50.2,34.14,50.45Z"/><path class="cls-58" d="M28.83,50.33c0,.24-.37.43-.8.41s-.78-.22-.77-.46.37-.43.8-.42S28.83,50.08,28.83,50.33Z"/><path class="cls-59" d="M9.09,18.94c-.34-.22-.29-.88.1-1.47s1-.89,1.32-.67.29.88-.11,1.48S9.42,19.17,9.09,18.94Zm.61,2c.23-.36.26-.76.06-.9s-.56,0-.8.41-.27.76-.06.9S9.46,21.27,9.7,20.91Zm2.89-4.46c.24-.36.27-.76.06-.9s-.56,0-.8.41-.26.76-.06.89S12.35,16.81,12.59,16.45ZM29.27,9.54c-.14-.37.29-.88,1-1.12s1.32-.14,1.45.24-.28.88-.95,1.12S29.41,9.92,29.27,9.54Zm4.3.07c.41-.15.67-.46.59-.69s-.49-.29-.89-.15-.67.46-.58.69S33.17,9.76,33.57,9.61Z"/></g></g></g></svg>