<svg xmlns="http://www.w3.org/2000/svg" xmlns:xlink="http://www.w3.org/1999/xlink" viewBox="0 0 34.36 34.36"><defs><style>.cls-1{isolation:isolate;}.cls-2{fill:url(#radial-gradient);}.cls-3{fill:url(#radial-gradient-2);}.cls-4,.cls-59,.cls-6,.cls-7,.cls-8,.cls-9{mix-blend-mode:screen;}.cls-4{fill:url(#radial-gradient-3);}.cls-5{opacity:0.7;}.cls-6{fill:url(#radial-gradient-4);}.cls-7{fill:url(#radial-gradient-5);}.cls-8{fill:url(#radial-gradient-6);}.cls-9{fill:url(#radial-gradient-7);}.cls-10,.cls-11,.cls-12,.cls-13,.cls-14,.cls-15,.cls-16,.cls-17,.cls-18,.cls-19,.cls-20,.cls-21,.cls-22,.cls-23,.cls-24,.cls-25,.cls-26,.cls-27,.cls-28,.cls-29,.cls-30,.cls-31,.cls-32,.cls-33,.cls-34,.cls-35,.cls-36,.cls-37,.cls-38,.cls-39,.cls-40,.cls-41,.cls-42,.cls-43,.cls-44,.cls-45,.cls-46,.cls-47,.cls-48,.cls-49,.cls-50,.cls-51,.cls-52,.cls-53,.cls-54,.cls-55,.cls-56,.cls-57,.cls-58,.cls-59{opacity:0.5;}.cls-10,.cls-11,.cls-12,.cls-13,.cls-14,.cls-15,.cls-16,.cls-17,.cls-18,.cls-19,.cls-20,.cls-21,.cls-22,.cls-23,.cls-24,.cls-25,.cls-26,.cls-27,.cls-28,.cls-29,.cls-30,.cls-31,.cls-32,.cls-33,.cls-34,.cls-35,.cls-36,.cls-37,.cls-38,.cls-39,.cls-40,.cls-41,.cls-42,.cls-43,.cls-44,.cls-45,.cls-46,.cls-47,.cls-48,.cls-49,.cls-50,.cls-51,.cls-52,.cls-53,.cls-54,.cls-55,.cls-56,.cls-57,.cls-58{mix-blend-mode:multiply;}.cls-10{fill:url(#radial-gradient-8);}.cls-11{fill:url(#radial-gradient-9);}.cls-12{fill:url(#radial-gradient-10);}.cls-13{fill:url(#radial-gradient-11);}.cls-14{fill:url(#radial-gradient-12);}.cls-15{fill:url(#radial-gradient-13);}.cls-16{fill:url(#radial-gradient-14);}.cls-17{fill:url(#radial-gradient-15);}.cls-18{fill:url(#radial-gradient-16);}.cls-19{fill:url(#radial-gradient-17);}.cls-20{fill:url(#radial-gradient-18);}.cls-21{fill:url(#radial-gradient-19);}.cls-22{fill:url(#radial-gradient-20);}.cls-23{fill:url(#radial-gradient-21);}.cls-24{fill:url(#radial-gradient-22);}.cls-25{fill:url(#radial-gradient-23);}.cls-26{fill:url(#radial-gradient-24);}.cls-27{fill:url(#radial-gradient-25);}.cls-28{fill:url(#radial-gradient-26);}.cls-29{fill:url(#radial-gradient-27);}.cls-30{fill:url(#radial-gradient-28);}.cls-31{fill:url(#radial-gradient-29);}.cls-32{fill:url(#radial-gradient-30);}.cls-33{fill:url(#radial-gradient-31);}.cls-34{fill:url(#radial-gradient-32);}.cls-35{fill:url(#radial-gradient-33);}.cls-36{fill:url(#radial-gradient-34);}.cls-37{fill:url(#radial-gradient-35);}.cls-38{fill:url(#radial-gradient-36);}.cls-39{fill:url(#radial-gradient-37);}.cls-40{fill:url(#radial-gradient-38);}.cls-41{fill:url(#radial-gradient-39);}.cls-42{fill:url(#radial-gradient-40);}.cls-43{fill:url(#radial-gradient-42);}.cls-44{fill:url(#radial-gradient-43);}.cls-45{fill:url(#radial-gradient-44);}.cls-46{fill:url(#radial-gradient-45);}.cls-47{fill:url(#radial-gradient-46);}.cls-48{fill:url(#radial-gradient-47);}.cls-49{fill:url(#radial-gradient-48);}.cls-50{fill:url(#radial-gradient-49);}.cls-51{fill:url(#radial-gradient-50);}.cls-52{fill:url(#radial-gradient-51);}.cls-53{fill:url(#radial-gradient-52);}.cls-54{fill:url(#radial-gradient-53);}.cls-55{fill:url(#radial-gradient-54);}.cls-56{fill:url(#radial-gradient-55);}.cls-57{fill:url(#radial-gradient-56);}.cls-58{fill:url(#radial-gradient-57);}.cls-59{fill:url(#radial-gradient-58);}</style><radialGradient id="radial-gradient" cx="17.02" cy="17.1" r="17.37" gradientTransform="translate(4.37 -3.47) rotate(13.18)" gradientUnits="userSpaceOnUse"><stop offset="0.06" stop-color="#fce085"/><stop offset="0.41" stop-color="#fcdf86" stop-opacity="0.99"/><stop offset="0.54" stop-color="#fbdd89" stop-opacity="0.97"/><stop offset="0.63" stop-color="#fad98f" stop-opacity="0.92"/><stop offset="0.7" stop-color="#f9d397" stop-opacity="0.85"/><stop offset="0.76" stop-color="#f8cba1" stop-opacity="0.76"/><stop offset="0.82" stop-color="#f5c2ae" stop-opacity="0.66"/><stop offset="0.87" stop-color="#f3b6be" stop-opacity="0.53"/><stop offset="0.91" stop-color="#f0a9d0" stop-opacity="0.38"/><stop offset="0.96" stop-color="#ed9ae4" stop-opacity="0.21"/><stop offset="1" stop-color="#e98afa" stop-opacity="0.03"/><stop offset="1" stop-color="#e988fd" stop-opacity="0"/></radialGradient><radialGradient id="radial-gradient-2" cx="18.65" cy="3.72" r="30.28" gradientTransform="translate(5.77 -4.27) rotate(16.99)" gradientUnits="userSpaceOnUse"><stop offset="0.06" stop-color="#fce085"/><stop offset="0.96" stop-color="#e988fd"/></radialGradient><radialGradient id="radial-gradient-3" cx="-45.83" cy="156.62" r="28.8" gradientTransform="matrix(1.31, 0.35, -0.31, 1.15, 117.46, -177.58)" xlink:href="#radial-gradient-2"/><radialGradient id="radial-gradient-4" cx="18.28" cy="3.87" r="22.53" gradientTransform="matrix(1, 0, 0, 1, 0, 0)" xlink:href="#radial-gradient-2"/><radialGradient id="radial-gradient-5" cx="18.28" cy="3.87" r="22.53" gradientTransform="matrix(1, 0, 0, 1, 0, 0)" xlink:href="#radial-gradient-2"/><radialGradient id="radial-gradient-6" cx="18.28" cy="3.87" r="22.53" gradientTransform="matrix(1, 0, 0, 1, 0, 0)" xlink:href="#radial-gradient-2"/><radialGradient id="radial-gradient-7" cx="18.28" cy="3.87" r="22.53" gradientTransform="matrix(1, 0, 0, 1, 0, 0)" xlink:href="#radial-gradient-2"/><radialGradient id="radial-gradient-8" cx="18.62" cy="7.85" r="26.51" gradientTransform="matrix(1, 0, 0, 1, 0, 0)" xlink:href="#radial-gradient-2"/><radialGradient id="radial-gradient-9" cx="18.44" cy="15.97" r="19.49" gradientTransform="matrix(1, 0, 0, 1, 0, 0)" xlink:href="#radial-gradient-2"/><radialGradient id="radial-gradient-10" cx="15.94" cy="0.98" r="6.75" gradientTransform="matrix(1, 0, 0, 1, 0, 0)" xlink:href="#radial-gradient-2"/><radialGradient id="radial-gradient-11" cx="15.94" cy="0.98" r="6.75" gradientTransform="matrix(1, 0, 0, 1, 0, 0)" xlink:href="#radial-gradient-2"/><radialGradient id="radial-gradient-12" cx="-453.27" cy="80.6" r="6.75" gradientTransform="translate(24.43 478.83) rotate(101.24)" xlink:href="#radial-gradient-2"/><radialGradient id="radial-gradient-13" cx="-453.27" cy="80.6" r="6.75" gradientTransform="translate(24.43 478.83) rotate(101.24)" xlink:href="#radial-gradient-2"/><radialGradient id="radial-gradient-14" cx="-398.35" cy="534.1" r="6.75" gradientTransform="translate(-344.02 588.68) rotate(176.44)" xlink:href="#radial-gradient-2"/><radialGradient id="radial-gradient-15" cx="-398.35" cy="534.1" r="6.75" gradientTransform="translate(-344.02 588.68) rotate(176.44)" xlink:href="#radial-gradient-2"/><radialGradient id="radial-gradient-16" cx="-203.13" cy="492.38" r="8.09" gradientTransform="matrix(-0.83, -0.56, 0.98, -1.47, -641.82, 639.24)" xlink:href="#radial-gradient-2"/><radialGradient id="radial-gradient-17" cx="10.8" cy="14.29" r="10.3" gradientTransform="matrix(1, 0, 0, 1, 0, 0)" xlink:href="#radial-gradient-2"/><radialGradient id="radial-gradient-18" cx="12.56" cy="215.85" r="5.21" gradientTransform="matrix(0.97, 0.23, -0.41, 1.72, 94.15, -368.87)" xlink:href="#radial-gradient-2"/><radialGradient id="radial-gradient-19" cx="-440.9" cy="306.76" r="6.63" gradientTransform="translate(-286.49 454.32) rotate(159.71)" xlink:href="#radial-gradient-2"/><radialGradient id="radial-gradient-20" cx="-451.56" cy="413.45" r="6.54" gradientTransform="matrix(-0.78, 0.63, -1.12, -1.37, 139.76, 876.05)" xlink:href="#radial-gradient-2"/><radialGradient id="radial-gradient-21" cx="140.66" cy="271.25" r="8.32" gradientTransform="translate(-283.08 75.49) rotate(-72.91)" xlink:href="#radial-gradient-2"/><radialGradient id="radial-gradient-22" cx="206.83" cy="435.91" r="5.32" gradientTransform="translate(-468.67 -81.05) rotate(-53.79)" xlink:href="#radial-gradient-2"/><radialGradient id="radial-gradient-23" cx="206.83" cy="435.91" r="5.32" gradientTransform="translate(-468.67 -81.05) rotate(-53.79)" xlink:href="#radial-gradient-2"/><radialGradient id="radial-gradient-24" cx="-9.92" cy="686.02" r="6.75" gradientTransform="matrix(-0.51, -0.86, 0.86, -0.51, -592.18, 367.04)" xlink:href="#radial-gradient-2"/><radialGradient id="radial-gradient-25" cx="-9.92" cy="686.02" r="6.75" gradientTransform="matrix(-0.51, -0.86, 0.86, -0.51, -592.18, 367.04)" xlink:href="#radial-gradient-2"/><radialGradient id="radial-gradient-26" cx="-113.02" cy="-88.55" r="3.82" gradientTransform="translate(77.92 136.58) rotate(29.94)" xlink:href="#radial-gradient-2"/><radialGradient id="radial-gradient-27" cx="-113.02" cy="-88.55" r="3.82" gradientTransform="translate(77.92 136.58) rotate(29.94)" xlink:href="#radial-gradient-2"/><radialGradient id="radial-gradient-28" cx="-430.57" cy="520.32" r="3.82" gradientTransform="translate(-268.05 641.33) rotate(165.92)" xlink:href="#radial-gradient-2"/><radialGradient id="radial-gradient-29" cx="-430.57" cy="520.32" r="3.82" gradientTransform="translate(-268.05 641.33) rotate(165.92)" xlink:href="#radial-gradient-2"/><radialGradient id="radial-gradient-30" cx="-67.28" cy="611.15" r="3.82" gradientTransform="translate(-611.98 -17.74) rotate(-92.84)" xlink:href="#radial-gradient-2"/><radialGradient id="radial-gradient-31" cx="-67.28" cy="611.15" r="3.82" gradientTransform="translate(-611.98 -17.74) rotate(-92.84)" xlink:href="#radial-gradient-2"/><radialGradient id="radial-gradient-32" cx="-554.86" cy="686.52" r="3.82" gradientTransform="translate(-681.34 575.26) rotate(-166.86)" xlink:href="#radial-gradient-2"/><radialGradient id="radial-gradient-33" cx="-554.86" cy="686.52" r="3.82" gradientTransform="translate(-681.34 575.26) rotate(-166.86)" xlink:href="#radial-gradient-2"/><radialGradient id="radial-gradient-34" cx="-291.85" cy="-56.18" r="2.93" gradientTransform="translate(83.68 305.8) rotate(69.11)" xlink:href="#radial-gradient-2"/><radialGradient id="radial-gradient-35" cx="-291.85" cy="-56.18" r="2.93" gradientTransform="translate(83.68 305.8) rotate(69.11)" xlink:href="#radial-gradient-2"/><radialGradient id="radial-gradient-36" cx="-435.31" cy="266.74" r="2.93" gradientTransform="matrix(-0.64, 0.77, -0.77, -0.64, -41.82, 531.11)" xlink:href="#radial-gradient-2"/><radialGradient id="radial-gradient-37" cx="-435.31" cy="266.74" r="2.93" gradientTransform="matrix(-0.64, 0.77, -0.77, -0.64, -41.82, 531.11)" xlink:href="#radial-gradient-2"/><radialGradient id="radial-gradient-38" cx="190.19" cy="720.19" r="2" gradientTransform="matrix(-0.31, -0.95, 0.95, -0.31, -620.63, 424.65)" xlink:href="#radial-gradient-2"/><radialGradient id="radial-gradient-39" cx="190.19" cy="720.19" r="2" gradientTransform="matrix(-0.31, -0.95, 0.95, -0.31, -620.63, 424.65)" xlink:href="#radial-gradient-2"/><radialGradient id="radial-gradient-40" cx="430.69" cy="383.41" r="2" gradientTransform="matrix(0.84, -0.54, 0.95, 1.46, -711.44, -314.27)" xlink:href="#radial-gradient-2"/><radialGradient id="radial-gradient-42" cx="245.28" cy="174.93" r="2" gradientTransform="translate(-141.95 -247.42) rotate(21.68)" xlink:href="#radial-gradient-2"/><radialGradient id="radial-gradient-43" cx="245.28" cy="174.93" r="2" gradientTransform="translate(-141.95 -247.42) rotate(21.68)" xlink:href="#radial-gradient-2"/><radialGradient id="radial-gradient-44" cx="-130.39" cy="387.13" r="1.59" gradientTransform="matrix(-0.29, 0.96, -1.57, -0.47, 599.19, 324.55)" xlink:href="#radial-gradient-2"/><radialGradient id="radial-gradient-45" cx="-130.39" cy="387.13" r="1.59" gradientTransform="matrix(-0.29, 0.96, -1.57, -0.47, 599.19, 324.55)" xlink:href="#radial-gradient-2"/><radialGradient id="radial-gradient-46" cx="62.26" cy="276.3" r="3.82" gradientTransform="translate(-214.36 -172.03) rotate(-38.54)" xlink:href="#radial-gradient-2"/><radialGradient id="radial-gradient-47" cx="62.26" cy="276.3" r="3.82" gradientTransform="translate(-214.36 -172.03) rotate(-38.54)" xlink:href="#radial-gradient-2"/><radialGradient id="radial-gradient-48" cx="134.37" cy="140.59" r="8.85" gradientTransform="matrix(0.87, -0.5, 0.41, 0.72, -153.98, -12.69)" xlink:href="#radial-gradient-2"/><radialGradient id="radial-gradient-49" cx="134.37" cy="140.59" r="8.85" gradientTransform="matrix(0.87, -0.5, 0.41, 0.72, -153.98, -12.69)" xlink:href="#radial-gradient-2"/><radialGradient id="radial-gradient-50" cx="-411.72" cy="-231.85" r="9.87" gradientTransform="matrix(0.45, 0.89, -0.74, 0.37, 26.66, 473.92)" xlink:href="#radial-gradient-2"/><radialGradient id="radial-gradient-51" cx="-410.01" cy="-229.11" r="5.97" gradientTransform="matrix(0.45, 0.89, -0.74, 0.37, 26.66, 473.92)" xlink:href="#radial-gradient-2"/><radialGradient id="radial-gradient-52" cx="-549.25" cy="-173.17" r="4.86" gradientTransform="matrix(0.12, 0.99, -0.83, 0.1, -69.21, 579.91)" xlink:href="#radial-gradient-2"/><radialGradient id="radial-gradient-53" cx="-550.45" cy="-204.74" r="7.07" gradientTransform="matrix(0.12, 0.99, -0.83, 0.1, -69.21, 579.91)" xlink:href="#radial-gradient-2"/><radialGradient id="radial-gradient-54" cx="-549.01" cy="-202.38" r="4.63" gradientTransform="matrix(0.12, 0.99, -0.83, 0.1, -69.21, 579.91)" xlink:href="#radial-gradient-2"/><radialGradient id="radial-gradient-55" cx="-230.91" cy="-230.59" r="8.85" gradientTransform="matrix(0.78, 0.62, -0.52, 0.65, 74.69, 317.61)" xlink:href="#radial-gradient-2"/><radialGradient id="radial-gradient-56" cx="-230.91" cy="-230.59" r="8.85" gradientTransform="matrix(0.78, 0.62, -0.52, 0.65, 74.69, 317.61)" xlink:href="#radial-gradient-2"/><radialGradient id="radial-gradient-57" cx="-234.07" cy="-230.56" r="8.85" gradientTransform="matrix(0.78, 0.62, -0.52, 0.65, 74.69, 317.61)" xlink:href="#radial-gradient-2"/><radialGradient id="radial-gradient-58" cx="15.48" cy="-1.83" r="25.73" gradientTransform="matrix(1, 0, 0, 1, 0, 0)" xlink:href="#radial-gradient-2"/></defs><g class="cls-1"><g id="Layer_2" data-name="Layer 2"><g id="Capa_1" data-name="Capa 1"><circle class="cls-2" cx="17.18" cy="17.18" r="17.18" transform="translate(-3.47 4.37) rotate(-13.18)"/><circle class="cls-3" cx="17.18" cy="17.18" r="15.38" transform="translate(-4.27 5.77) rotate(-16.99)"/><path class="cls-4" d="M5.31,15.23a6.27,6.27,0,0,1-.06-4.49c.89-2.71,3.22-4.66,5.63-6,7.55-4.21,15.84,1,16.54,4.31s-2.61,5.08-7.13,4-7.92,4-11,4a4.89,4.89,0,0,1-3.34-1A3,3,0,0,1,5.31,15.23Z"/><g class="cls-5"><path class="cls-6" d="M8,9.9a28.58,28.58,0,0,1-.89-3.26A14.53,14.53,0,0,0,4.32,23.89,14.56,14.56,0,0,1,8,9.9Z"/><path class="cls-7" d="M25.07,4.87A14.54,14.54,0,0,0,7.82,6a31.37,31.37,0,0,0,.84,3.27A14.54,14.54,0,0,1,25.45,7.37,14.79,14.79,0,0,0,25.07,4.87Z"/><path class="cls-8" d="M29.09,10.26A14.7,14.7,0,0,0,29,8.63a14.94,14.94,0,0,0-3.14-3.21,18.36,18.36,0,0,1,.26,2.35A14.18,14.18,0,0,1,29.09,10.26Z"/><path class="cls-9" d="M29.73,11a15.71,15.71,0,0,1,1.48,2.26,14.12,14.12,0,0,0-1.48-3.5C29.74,10.17,29.74,10.59,29.73,11Z"/></g><path class="cls-10" d="M27.54,6.22A12.32,12.32,0,1,1,3.68,10.51v-.08A15.11,15.11,0,1,0,27.54,6.22Z"/><path class="cls-11" d="M31.54,14.92V15a14.82,14.82,0,0,1-14.6,15A14.76,14.76,0,0,1,2.45,16.82a14.81,14.81,0,0,0,14.6,15,14.82,14.82,0,0,0,14.6-15A15.78,15.78,0,0,0,31.54,14.92Z"/><path class="cls-12" d="M21.62,4.3C21.62,5.25,20,6,18,6s-3.62-.76-3.62-1.71S16,2.58,18,2.58,21.62,3.35,21.62,4.3Z"/><path class="cls-13" d="M14.71,5A4.8,4.8,0,0,0,18,6c1.62,0,3-.5,3.45-1.2a4.79,4.79,0,0,0-3.29-1C16.54,3.8,15.17,4.3,14.71,5Z"/><path class="cls-14" d="M29.4,23.47c-.93-.19-1.37-1.93-1-3.89s1.46-3.39,2.39-3.21,1.37,1.93,1,3.88S30.33,23.65,29.4,23.47Z"/><path class="cls-15" d="M30.05,16.55a4.86,4.86,0,0,0-1.63,3c-.32,1.6-.09,3,.51,3.63a4.82,4.82,0,0,0,1.64-3C30.88,18.58,30.65,17.13,30.05,16.55Z"/><path class="cls-16" d="M14.53,27.9C14.47,27,16,26.09,18,26s3.66.54,3.72,1.49-1.51,1.82-3.51,1.94S14.59,28.85,14.53,27.9Z"/><path class="cls-17" d="M21.38,26.77A4.81,4.81,0,0,0,18,26c-1.62.1-3,.7-3.37,1.42a4.81,4.81,0,0,0,3.35.81C19.63,28.09,21,27.49,21.38,26.77Z"/><path class="cls-18" d="M9.05,18.9c1.12-1.68,3.64-1.95,5.63-.62s2.7,3.76,1.58,5.44-3.64,1.94-5.63.61S7.94,20.57,9.05,18.9Z"/><path class="cls-19" d="M14.68,18.28a4.18,4.18,0,0,0-5.26.17,4.18,4.18,0,0,0,1.86,4.91,4.18,4.18,0,0,0,5.26-.16A4.17,4.17,0,0,0,14.68,18.28Z"/><path class="cls-20" d="M20.67,10.54a2.6,2.6,0,0,1-3.26,1.63,2.6,2.6,0,0,1-2.17-2.93A2.59,2.59,0,0,1,18.5,7.61,2.6,2.6,0,0,1,20.67,10.54Z"/><path class="cls-21" d="M17.41,12.17a2.7,2.7,0,0,0,3.14-1.28,2.69,2.69,0,0,0-2.22-2.55,2.67,2.67,0,0,0-3.14,1.27A2.7,2.7,0,0,0,17.41,12.17Z"/><path class="cls-22" d="M20.67,23.21a3.26,3.26,0,0,1,.86-4.49,3.26,3.26,0,0,1,4.57.07,3.25,3.25,0,0,1-.86,4.49A3.26,3.26,0,0,1,20.67,23.21Z"/><path class="cls-23" d="M21.53,18.72a3.37,3.37,0,0,0-1.12,4.1,3.39,3.39,0,0,0,4.24-.27,3.37,3.37,0,0,0,1.12-4.1A3.37,3.37,0,0,0,21.53,18.72Z"/><path class="cls-24" d="M10,7.54c.6.44.34,1.83-.59,3.1S7.2,12.58,6.6,12.14s-.34-1.83.59-3.1S9.37,7.1,10,7.54Z"/><path class="cls-25" d="M7.2,12.27a3.88,3.88,0,0,0,2.18-1.63,3.45,3.45,0,0,0,.84-2.76A3.75,3.75,0,0,0,8,9.5,3.44,3.44,0,0,0,7.2,12.27Z"/><path class="cls-26" d="M3.89,20.85c.82-.48,2.31.52,3.32,2.24s1.17,3.51.35,4-2.3-.52-3.31-2.24S3.08,21.33,3.89,20.85Z"/><path class="cls-27" d="M8,26.45a4.82,4.82,0,0,0-.8-3.36c-.82-1.39-2-2.32-2.8-2.36a4.81,4.81,0,0,0,.81,3.35C6,25.48,7.18,26.41,8,26.45Z"/><path class="cls-28" d="M26,6.68c-.26.47-1.27.39-2.25-.18s-1.56-1.4-1.29-1.86,1.28-.39,2.26.18S26.3,6.22,26,6.68Z"/><path class="cls-29" d="M22.45,5.08A2.7,2.7,0,0,0,23.78,6.5a2.46,2.46,0,0,0,2,.39,2.68,2.68,0,0,0-1.33-1.43A2.41,2.41,0,0,0,22.45,5.08Z"/><path class="cls-30" d="M19.48,30.87c-.13-.52.65-1.17,1.75-1.44s2.09-.08,2.22.44S22.8,31,21.7,31.31,19.61,31.39,19.48,30.87Z"/><path class="cls-31" d="M23.18,29.53a2.73,2.73,0,0,0-1.95-.1,2.43,2.43,0,0,0-1.73,1.14,2.73,2.73,0,0,0,1.95.1A2.48,2.48,0,0,0,23.18,29.53Z"/><path class="cls-32" d="M3.48,15.9c.54,0,1,.86,1.08,2S4.22,20,3.69,20s-1-.86-1.08-2S3,15.92,3.48,15.9Z"/><path class="cls-33" d="M4.08,19.78a2.72,2.72,0,0,0,.48-1.89A2.5,2.5,0,0,0,3.78,16a2.75,2.75,0,0,0-.48,1.89A2.43,2.43,0,0,0,4.08,19.78Z"/><path class="cls-34" d="M12.32,30.29c.12-.53,1.11-.74,2.21-.49s1.9.89,1.78,1.42-1.12.74-2.22.48S12.2,30.81,12.32,30.29Z"/><path class="cls-35" d="M16.22,30.79a2.71,2.71,0,0,0-1.69-1,2.48,2.48,0,0,0-2.06.23,2.75,2.75,0,0,0,1.69,1A2.48,2.48,0,0,0,16.22,30.79Z"/><path class="cls-36" d="M31.63,15.91c-.39.15-.95-.39-1.26-1.2s-.25-1.59.14-1.73.95.39,1.26,1.2S32,15.76,31.63,15.91Z"/><path class="cls-37" d="M30.27,13.22a2.09,2.09,0,0,0,.1,1.49,1.84,1.84,0,0,0,1,1.21,2.14,2.14,0,0,0-.1-1.49C31,13.77,30.63,13.29,30.27,13.22Z"/><path class="cls-38" d="M27.37,26.65c-.32-.26-.13-1,.42-1.68s1.26-1,1.58-.74.13,1-.43,1.69S27.69,26.91,27.37,26.65Z"/><path class="cls-39" d="M29,24.14a2.16,2.16,0,0,0-1.25.83,1.86,1.86,0,0,0-.55,1.49,2.11,2.11,0,0,0,1.25-.83A1.86,1.86,0,0,0,29,24.14Z"/><path class="cls-40" d="M5.6,18.72c.27-.08.63.3.81.86s.12,1.09-.15,1.18-.63-.3-.81-.86S5.33,18.81,5.6,18.72Z"/><path class="cls-41" d="M6.43,20.6a1.37,1.37,0,0,0,0-1,1.31,1.31,0,0,0-.65-.86,1.42,1.42,0,0,0,0,1A1.27,1.27,0,0,0,6.43,20.6Z"/><path class="cls-42" d="M14.64,10.57a1.09,1.09,0,0,1-1.8,1.16,1,1,0,0,1,.42-1.32A1,1,0,0,1,14.64,10.57Z"/><path class="cls-42" d="M13.12,12a1.16,1.16,0,0,0,1.62-1.17,1.1,1.1,0,0,0-1.1.1A1.05,1.05,0,0,0,13.12,12Z"/><path class="cls-43" d="M22.58,7.28c-.1.26-.63.3-1.18.08s-.91-.61-.81-.87.63-.29,1.18-.08S22.68,7,22.58,7.28Z"/><path class="cls-44" d="M20.6,6.72a1.39,1.39,0,0,0,.8.64,1.24,1.24,0,0,0,1.08,0,1.42,1.42,0,0,0-.8-.63A1.28,1.28,0,0,0,20.6,6.72Z"/><path class="cls-45" d="M27.3,18.86a.78.78,0,0,1-.39-1,.68.68,0,1,1,1.27.38A.79.79,0,0,1,27.3,18.86Z"/><path class="cls-46" d="M27.5,17.22a.89.89,0,0,0-.59.63.86.86,0,0,0,.21.92.91.91,0,0,0,.6-.63A.86.86,0,0,0,27.5,17.22Z"/><path class="cls-47" d="M10.19,4.76c.33.42-.11,1.33-1,2s-1.87.93-2.2.51S7.1,6,8,5.28,9.85,4.34,10.19,4.76Z"/><path class="cls-48" d="M7.38,7.51A2.69,2.69,0,0,0,9.19,6.8,2.51,2.51,0,0,0,10.3,5a2.75,2.75,0,0,0-1.82.72A2.42,2.42,0,0,0,7.38,7.51Z"/><path class="cls-49" d="M24.47,26.8c.12.21-.08.54-.45.75s-.76.21-.88,0,.09-.55.45-.76S24.35,26.59,24.47,26.8Z"/><path class="cls-50" d="M25.21,25.59c.07.13-.05.33-.27.46s-.46.13-.54,0,.05-.33.28-.46S25.14,25.46,25.21,25.59Z"/><path class="cls-51" d="M8.34,23.56c-.24.12-.6-.12-.81-.54s-.2-.86,0-1,.61.12.82.54S8.58,23.44,8.34,23.56Z"/><path class="cls-52" d="M9.15,24.52c-.14.07-.36-.07-.49-.33s-.11-.52,0-.59.36.07.49.33S9.3,24.45,9.15,24.52Z"/><path class="cls-53" d="M5.09,18.39c-.13,0-.26-.16-.28-.39s.05-.43.18-.45.26.16.29.39S5.22,18.37,5.09,18.39Z"/><path class="cls-54" d="M29.59,14.52c-.19,0-.37-.23-.41-.57s.08-.62.27-.65.37.23.41.57S29.78,14.49,29.59,14.52Z"/><path class="cls-55" d="M29.37,15.69c-.12,0-.24-.16-.27-.38s0-.4.18-.42.24.15.27.37S29.5,15.67,29.37,15.69Z"/><path class="cls-56" d="M10.63,29.13c-.15.18-.54.12-.87-.14s-.48-.63-.33-.82.54-.12.87.14S10.78,28.94,10.63,29.13Z"/><path class="cls-57" d="M12,29.36c-.09.12-.32.08-.53-.08s-.29-.38-.2-.49.33-.08.53.08S12.11,29.25,12,29.36Z"/><path class="cls-58" d="M9.53,27.42c-.09.11-.33.07-.53-.09s-.29-.38-.2-.49.33-.08.53.08S9.62,27.3,9.53,27.42Z"/><path class="cls-59" d="M11.27,5.41c-.08-.22.17-.52.57-.66s.79-.08.87.15-.18.52-.58.66S11.35,5.64,11.27,5.41Zm-.41,1.16c.24-.09.4-.27.35-.41s-.29-.18-.53-.09-.4.27-.35.41S10.62,6.65,10.86,6.57Zm3-1.1c.24-.09.4-.27.35-.41s-.29-.17-.53-.09-.4.27-.35.41S13.59,5.56,13.83,5.47ZM24.25,8.1c.06-.22.45-.31.85-.19s.68.4.61.63-.45.32-.85.2S24.18,8.33,24.25,8.1Zm2,1.56c.24.08.48,0,.52-.12s-.13-.31-.37-.38-.48,0-.52.12S26,9.59,26.28,9.66Z"/></g></g></g></svg>